<?xml version="1.0" encoding="UTF-8" standalone="no"?>
<!-- Created with Inkscape (http://www.inkscape.org/) -->

<svg
   width="467.18896"
   height="512"
   viewBox="0 0 467.18896 512"
   version="1.1"
   id="svg1"
   xml:space="preserve"
   inkscape:version="1.4.2 (ebf0e940d0, 2025-05-08)"
   sodipodi:docname="Bow_Medical_white.svg"
   xmlns:inkscape="http://www.inkscape.org/namespaces/inkscape"
   xmlns:sodipodi="http://sodipodi.sourceforge.net/DTD/sodipodi-0.dtd"
   xmlns="http://www.w3.org/2000/svg"
   xmlns:svg="http://www.w3.org/2000/svg"
   xmlns:rdf="http://www.w3.org/1999/02/22-rdf-syntax-ns#"
   xmlns:cc="http://creativecommons.org/ns#"><sodipodi:namedview
     id="namedview1"
     inkscape:pageopacity="0"
     inkscape:pagecheckerboard="0"
     inkscape:document-units="px"
     inkscape:zoom="0.71143234"
     inkscape:cx="238.95456"
     inkscape:cy="307.82969"
     inkscape:window-width="1504"
     inkscape:window-height="975"
     inkscape:window-x="0"
     inkscape:window-y="0"
     inkscape:window-maximized="1"
     inkscape:current-layer="layer1"
     pagecolor="#505050"
     bordercolor="#eeeeee"
     borderopacity="1"
     inkscape:showpageshadow="0"
     inkscape:deskcolor="#505050" /><defs
     id="defs1" /><g
     inkscape:groupmode="layer"
     id="layer1"
     transform="translate(-22.405519)"><path
       style="fill:#ffffff;fill-opacity:1;stroke-width:0.708;stroke-dasharray:none;stroke:none"
       d="m 180.00492,511.93388 c 0,-0.27029 6.82436,-12.94534 15.16522,-28.16678 30.01509,-54.77499 50.89358,-99.26012 60.80954,-129.56508 13.8416,-42.30214 18.33824,-79.49973 13.28636,-109.9088 -2.37198,-14.27796 -7.26925,-31.13299 -9.04578,-31.13299 -0.85128,0 -27.55639,11.6578 -51.91266,22.66183 -26.29058,11.87794 -76.43951,37.1856 -97.17257,49.03822 -19.478326,11.13527 -43.576713,26.74535 -53.775142,34.83366 -9.58631,7.60282 -20.91317,19.2203 -24.461968,25.08956 -4.020348,6.64919 -4.471253,12.59045 -1.293624,17.0451 3.962651,5.55517 19.042216,11.69707 32.440399,13.21287 3.068832,0.34721 5.579694,1.00102 5.579694,1.45284 0,1.01378 -0.0061,1.01372 -12.852027,-0.12353 -5.771409,-0.5109 -13.237008,-1.77637 -16.59022,-2.81208 C 17.8669,366.66626 16.470602,348.20963 36.5052,324.95589 65.859259,290.88536 144.42046,243.79744 237.13321,204.70371 c 8.74116,-3.68582 16.04478,-6.85329 16.23034,-7.03882 0.50467,-0.50464 -5.12105,-9.51371 -10.94306,-17.52444 -6.47674,-8.91151 -24.78366,-27.21 -34.23806,-34.22225 -3.96053,-2.93742 -15.24189,-10.36277 -25.06978,-16.50061 -39.59149,-24.72655 -61.5716,-45.313777 -76.08213,-71.261121 -4.5523,-8.140235 -9.108122,-22.049668 -9.756997,-29.788985 -0.606276,-7.23175 2.50387,-29.7153169 3.915257,-28.30390987 0.21283,0.212854 1.26184,5.59939497 2.33109,11.97008887 2.85908,17.03509 8.42709,27.182313 22.80077,41.552258 16.54923,16.544961 34.08926,27.824967 72.08103,46.355416 27.31972,13.325163 41.6723,22.321323 56.13365,35.184543 13.48459,11.9943 26.24708,27.4087 33.96321,41.02045 1.81616,3.20367 3.78213,5.83749 4.36899,5.85289 0.58678,0.0156 3.98316,-1.0789 7.54733,-2.43181 28.18087,-10.69703 71.76607,-25.00998 105.53988,-34.65832 31.69556,-9.05459 81.21239,-21.0336 83.62334,-20.22993 0.58989,0.19664 -14.8,6.01395 -34.19976,12.92732 -69.74899,24.85615 -156.2254,58.14964 -155.82949,59.99454 0.11046,0.51487 1.67259,5.25621 3.4713,10.53626 23.99547,70.43782 -0.10074,160.0003 -65.31467,242.76565 -8.89558,11.28966 -16.35993,19.83454 -31.05077,35.54554 -10.59509,11.33084 -26.64976,26.68413 -26.64976,25.48541 z"
       id="path1" /></g><metadata
     id="metadata1"><rdf:RDF><cc:Work
         rdf:about=""><cc:license
           rdf:resource="https://bowmedical.com/conditions-generales-dutilisation/" /></cc:Work></rdf:RDF></metadata></svg>
