<?xml version="1.0" encoding="UTF-8" standalone="no"?>
<svg
   version="1.1"
   id="svg3"
   sodipodi:docname="Givaudan_logo_red.svg"
   width="140.00009"
   height="140.00531"
   inkscape:version="1.2.1 (9c6d41e410, 2022-07-14)"
   xmlns:inkscape="http://www.inkscape.org/namespaces/inkscape"
   xmlns:sodipodi="http://sodipodi.sourceforge.net/DTD/sodipodi-0.dtd"
   xmlns="http://www.w3.org/2000/svg"
   xmlns:svg="http://www.w3.org/2000/svg"
   xmlns:rdf="http://www.w3.org/1999/02/22-rdf-syntax-ns#"
   xmlns:cc="http://creativecommons.org/ns#"
   xmlns:dc="http://purl.org/dc/elements/1.1/">
  <defs
     id="defs7" />
  <sodipodi:namedview
     id="namedview5"
     pagecolor="#505050"
     bordercolor="#ffffff"
     borderopacity="1"
     inkscape:showpageshadow="0"
     inkscape:pageopacity="0"
     inkscape:pagecheckerboard="1"
     inkscape:deskcolor="#505050"
     showgrid="false"
     inkscape:zoom="0.91588974"
     inkscape:cx="33.846869"
     inkscape:cy="102.63244"
     inkscape:window-width="1366"
     inkscape:window-height="739"
     inkscape:window-x="0"
     inkscape:window-y="0"
     inkscape:window-maximized="1"
     inkscape:current-layer="svg3" />
  <path
     id="use5"
     d="m 139.54009,63.37 h -39.53 C 97.220094,47.55 83.770094,38.79 69.170094,38.66 c -14.98,-0.12 -30.75,10.93 -30.75,32.23 -0.01,17.95 17.4,30.07 31.82,30.07 9.51,0 26.27,-7.76 26.27,-20.25 0,-8.96 -15.64,-8.21 -16.67,-8.21 l -23.81,-1.07 0.01,-1.08 h 83.959996 v 3.69 c -2.52,40.15 -38.61,68.32 -72.799996,65.81 C 3.0800943,134.25 -0.01990567,74.94 9.4327735e-5,69.86 0.28009433,31.82 30.310094,0 70.470094,0 101.54009,0 135.11009,22.79 139.54009,63.37 Z"
     style="fill:#990033;fill-opacity:1" />
  <metadata
     id="metadata129">
    <rdf:RDF>
      <cc:Work
         rdf:about="">
        <dc:source>https://www.givaudan.com/media/media-resources</dc:source>
        <dc:creator>
          <cc:Agent>
            <dc:title>Givaudan</dc:title>
          </cc:Agent>
        </dc:creator>
      </cc:Work>
    </rdf:RDF>
  </metadata>
</svg>
