<?xml version="1.0" encoding="UTF-8" standalone="no"?>
<svg
   version="1.1"
   id="svg18"
   sodipodi:docname="Givaudan_text_white.svg"
   width="283.46484"
   height="56.9375"
   inkscape:version="1.2.1 (9c6d41e410, 2022-07-14)"
   xmlns:inkscape="http://www.inkscape.org/namespaces/inkscape"
   xmlns:sodipodi="http://sodipodi.sourceforge.net/DTD/sodipodi-0.dtd"
   xmlns="http://www.w3.org/2000/svg"
   xmlns:svg="http://www.w3.org/2000/svg"
   xmlns:rdf="http://www.w3.org/1999/02/22-rdf-syntax-ns#"
   xmlns:cc="http://creativecommons.org/ns#"
   xmlns:dc="http://purl.org/dc/elements/1.1/">
  <defs
     id="defs22" />
  <sodipodi:namedview
     id="namedview20"
     pagecolor="#505050"
     bordercolor="#ffffff"
     borderopacity="1"
     inkscape:showpageshadow="0"
     inkscape:pageopacity="0"
     inkscape:pagecheckerboard="1"
     inkscape:deskcolor="#505050"
     showgrid="false"
     inkscape:zoom="0.99601757"
     inkscape:cx="5.0199918"
     inkscape:cy="110.43982"
     inkscape:window-width="1366"
     inkscape:window-height="739"
     inkscape:window-x="0"
     inkscape:window-y="0"
     inkscape:window-maximized="1"
     inkscape:current-layer="svg18" />
  <path
     fill-rule="nonzero"
     fill="#ffffff"
     fill-opacity="1"
     d="m 48.324219,30.820313 v 1.878906 c 0,12.722656 -8.265625,23.988281 -23.328125,23.988281 C 10.070312,56.6875 0,44.5625 0,30.804688 0,16.390625 10.519531,5.0468747 25.0625,5.0468747 c 7.835938,0 15.378906,3.3398441 20.410156,9.6679693 l -4.355468,4.203125 c -3.613282,-4.957031 -9.847657,-8.21875 -15.941407,-8.21875 -11.152343,0 -18.605469,8.761719 -18.605469,19.90625 0,10.695313 6.875,20.335937 18.816407,20.335937 9.574219,0 15.65625,-7.058593 16.105469,-14.757812 H 27.800781 v -5.363281 h 20.523438"
     id="path2" />
  <path
     fill-rule="nonzero"
     fill="#ffffff"
     fill-opacity="1"
     d="M 61.324219,55.652344 H 55.242188 V 24.015625 h 6.082031 z M 62.472656,10.53125 c 0,2.300782 -1.890625,4.125 -4.191406,4.125 -2.296875,0 -4.191406,-1.824218 -4.191406,-4.125 0,-2.3593752 1.894531,-4.2539062 4.191406,-4.2539062 2.300781,0 4.191406,1.894531 4.191406,4.2539062"
     id="path4" />
  <path
     fill-rule="nonzero"
     fill="#ffffff"
     fill-opacity="1"
     d="m 81.785156,44.34375 9.125,-20.328125 h 6.78125 L 81.6875,56.9375 65.648438,24.015625 h 7.074218 l 9.0625,20.328125"
     id="path6" />
  <path
     fill-rule="nonzero"
     fill="#ffffff"
     fill-opacity="1"
     d="m 229.75,51.332032 c -6.42578,0 -10,-5.546876 -10,-11.5 0,-5.871094 3.71094,-11.355469 10,-11.355469 6.6875,0 10.27734,5.207031 10.27734,11.355469 0,6.226562 -3.52343,11.5 -10.27734,11.5 z M 240.08203,50.9375 v 4.714844 h 5.64453 V 24.015625 h -5.64453 v 4.9375 h -0.24609 c -2.46485,-3.742187 -6.32422,-5.613281 -10.84375,-5.613281 -9.19532,0 -15.42969,7.691406 -15.42969,16.34375 0,9.324219 5.76562,16.839844 15.43359,16.839844 4.78907,0 8.76563,-2.277344 10.83985,-5.585938 h 0.24609"
     id="path8" />
  <path
     fill-rule="nonzero"
     fill="#ffffff"
     fill-opacity="1"
     d="m 115.42578,51.332032 c -6.41797,0 -10.0039,-5.546876 -10.0039,-11.5 0,-5.871094 3.71875,-11.355469 10.0039,-11.355469 6.6875,0 10.27735,5.207031 10.27735,11.355469 0,6.226562 -3.51954,11.5 -10.27735,11.5 z M 125.75781,50.9375 v 4.714844 h 5.64844 V 24.015625 h -5.64844 v 4.9375 h -0.24609 c -2.46484,-3.742187 -6.32813,-5.613281 -10.83984,-5.613281 -9.19922,0 -15.437505,7.691406 -15.437505,16.34375 0,9.324219 5.773435,16.839844 15.445315,16.839844 4.78125,0 8.75781,-2.277344 10.83203,-5.585938 h 0.24609"
     id="path10" />
  <path
     fill-rule="nonzero"
     fill="#ffffff"
     fill-opacity="1"
     d="m 200.26953,50.980469 v 4.671875 h 5.83594 V 0 h -5.83594 v 28.953125 h -0.25 c -2.36328,-3.636719 -6.33984,-5.613281 -10.83594,-5.613281 -9.07812,0 -15.29687,7.628906 -15.29687,16.539062 0,9.191407 5.625,16.644532 15.29687,16.644532 4.47266,0 8.86719,-2.238282 10.83594,-5.542969 z m -10.18359,0.351563 c -6.82032,0 -10.01563,-5.289063 -10.01563,-11.5 0,-5.871094 3.71875,-11.355469 10.01563,-11.355469 6.67968,0 10.27343,5.207031 10.27343,11.355469 0,6.226562 -3.53125,11.5 -10.27343,11.5"
     id="path12" />
  <path
     fill-rule="nonzero"
     fill="#ffffff"
     fill-opacity="1"
     d="m 146.38281,24.015625 v 19.148438 c 0,4.882812 2,8.332031 7.30469,8.332031 5.29687,0 7.29687,-3.449219 7.29687,-8.332031 V 24.015625 h 6.19141 v 18.757813 c 0,1.363281 -0.0977,2.851562 -0.26953,3.855468 -1.125,6.386719 -6.12109,10.113282 -13.21875,10.113282 -7.09766,0 -12.09375,-3.726563 -13.21875,-10.101563 -0.17578,-1.015625 -0.26563,-2.5 -0.26563,-3.867187 V 24.015625 h 6.17969"
     id="path14" />
  <path
     fill-rule="nonzero"
     fill="#ffffff"
     fill-opacity="1"
     d="m 262.57031,28.089844 h 0.20703 c 1.64844,-2.714844 5.46485,-4.871094 9.32032,-4.871094 6.23828,0 9.88281,3.167969 11.01953,7.910156 0.26953,1.132813 0.34765,2.789063 0.34765,4.109376 v 20.414062 h -6.07812 V 36.597656 c 0,-0.703124 0.008,-1.425781 -0.0625,-2.257812 -0.3125,-3.953125 -2.58985,-6.074219 -6.59766,-6.074219 -4.00781,0 -7.16797,2.519531 -7.83203,6.21875 -0.24219,1.347657 -0.32422,3.167969 -0.32422,4.773438 v 16.394531 h -6.08203 V 24.015625 h 6.08203 v 4.074219"
     id="path16" />
  <metadata
     id="metadata240">
    <rdf:RDF>
      <cc:Work
         rdf:about="">
        <dc:source>https://www.givaudan.com/media/media-resources</dc:source>
        <dc:creator>
          <cc:Agent>
            <dc:title>Givaudan</dc:title>
          </cc:Agent>
        </dc:creator>
      </cc:Work>
    </rdf:RDF>
  </metadata>
</svg>
