<?xml version="1.0" encoding="UTF-8" standalone="no"?>
<svg
   width="92"
   height="45"
   viewBox="0 0 92 45"
   version="1.1"
   id="svg19"
   sodipodi:docname="SAP_logo.svg"
   inkscape:version="1.2.1 (9c6d41e410, 2022-07-14)"
   xmlns:inkscape="http://www.inkscape.org/namespaces/inkscape"
   xmlns:sodipodi="http://sodipodi.sourceforge.net/DTD/sodipodi-0.dtd"
   xmlns="http://www.w3.org/2000/svg"
   xmlns:svg="http://www.w3.org/2000/svg"
   xmlns:rdf="http://www.w3.org/1999/02/22-rdf-syntax-ns#"
   xmlns:cc="http://creativecommons.org/ns#"
   xmlns:dc="http://purl.org/dc/elements/1.1/">
  <defs
     id="defs23" />
  <sodipodi:namedview
     id="namedview21"
     pagecolor="#505050"
     bordercolor="#ffffff"
     borderopacity="1"
     inkscape:showpageshadow="0"
     inkscape:pageopacity="0"
     inkscape:pagecheckerboard="1"
     inkscape:deskcolor="#505050"
     showgrid="false"
     inkscape:zoom="13"
     inkscape:cx="46"
     inkscape:cy="22.538462"
     inkscape:window-width="1366"
     inkscape:window-height="739"
     inkscape:window-x="0"
     inkscape:window-y="0"
     inkscape:window-maximized="1"
     inkscape:current-layer="svg19" />
  <linearGradient
     id="a"
     gradientUnits="userSpaceOnUse"
     x1="45.483"
     x2="45.483"
     y2="45.001">
    <stop
       offset="0"
       stop-color="#00AEEF"
       id="stop2" />
    <stop
       offset=".212"
       stop-color="#0097DC"
       id="stop4" />
    <stop
       offset=".519"
       stop-color="#007CC5"
       id="stop6" />
    <stop
       offset=".792"
       stop-color="#006CB8"
       id="stop8" />
    <stop
       offset="1"
       stop-color="#0066B3"
       id="stop10" />
  </linearGradient>
  <path
     fill-rule="evenodd"
     clip-rule="evenodd"
     fill="url(#a)"
     d="M0 45h45.974L90.966 0H0v45"
     id="path13" />
  <path
     fill-rule="evenodd"
     clip-rule="evenodd"
     fill="#fff"
     d="M53.984 9H45l.03 21.13-7.823-21.137H29.45l-6.678 17.653c-.71-4.492-5.354-6.042-9.008-7.203-2.413-.775-4.974-1.915-4.948-3.175.02-1.034 1.37-1.993 4.053-1.85 1.8.097 3.39.242 6.553 1.77l3.11-5.42C19.648 9.3 15.66 8.373 12.39 8.37h-.02c-3.813 0-6.988 1.235-8.956 3.27-1.372 1.42-2.112 3.226-2.142 5.223-.05 2.748.957 4.696 3.073 6.253 1.788 1.31 4.075 2.16 6.09 2.784 2.485.77 4.515 1.44 4.49 2.866-.02.52-.216 1.006-.59 1.398-.62.64-1.57.88-2.885.906-2.537.054-4.417-.345-7.413-2.116L1.27 34.444C4.263 36.146 7.44 37 11.05 37l.812-.006c3.142-.057 5.692-.81 7.718-2.44.116-.093.22-.187.328-.282l-.34 1.752 7.58-.024 1.36-3.482c1.43.488 3.056.758 4.782.758 1.682 0 3.264-.256 4.667-.716l.948 3.44 13.6.013.033-7.938h2.894c6.995 0 11.13-3.56 11.13-9.53C66.56 11.896 62.54 9 53.984 9zM33.29 27.062c-1.045 0-2.025-.182-2.868-.502l2.836-8.955h.055l2.79 8.98c-.84.3-1.797.477-2.814.477zm21.22-5.145h-1.974V14.7h1.975c2.63 0 4.73.876 4.73 3.562-.002 2.78-2.1 3.655-4.73 3.655"
     id="path15" />
  <path
     fill="none"
     d="M0 0h92v45H0z"
     id="path17" />
  <metadata
     id="metadata202">
    <rdf:RDF>
      <cc:Work
         rdf:about="">
        <dc:source>https://www.sap.com/france/about/legal/copyright.html</dc:source>
        <dc:creator>
          <cc:Agent>
            <dc:title>SAP®</dc:title>
          </cc:Agent>
        </dc:creator>
        <dc:rights>
          <cc:Agent>
            <dc:title>https://www.sap.com/france/about/legal/trademark.html</dc:title>
          </cc:Agent>
        </dc:rights>
      </cc:Work>
    </rdf:RDF>
  </metadata>
</svg>
