<?xml version="1.0" encoding="UTF-8" standalone="no"?>
<svg
   width="114.23047"
   height="111.60938"
   viewBox="0 0 114.23047 111.60938"
   version="1.1"
   id="svg6"
   sodipodi:docname="UniversiteParis_noir.svg"
   inkscape:version="1.2.1 (9c6d41e410, 2022-07-14)"
   xmlns:inkscape="http://www.inkscape.org/namespaces/inkscape"
   xmlns:sodipodi="http://sodipodi.sourceforge.net/DTD/sodipodi-0.dtd"
   xmlns="http://www.w3.org/2000/svg"
   xmlns:svg="http://www.w3.org/2000/svg"
   xmlns:rdf="http://www.w3.org/1999/02/22-rdf-syntax-ns#"
   xmlns:cc="http://creativecommons.org/ns#"
   xmlns:dc="http://purl.org/dc/elements/1.1/">
  <defs
     id="defs10" />
  <sodipodi:namedview
     id="namedview8"
     pagecolor="#505050"
     bordercolor="#ffffff"
     borderopacity="1"
     inkscape:showpageshadow="0"
     inkscape:pageopacity="0"
     inkscape:pagecheckerboard="1"
     inkscape:deskcolor="#505050"
     showgrid="false"
     inkscape:zoom="3.2328397"
     inkscape:cx="55.678604"
     inkscape:cy="58.462534"
     inkscape:window-width="1366"
     inkscape:window-height="739"
     inkscape:window-x="0"
     inkscape:window-y="0"
     inkscape:window-maximized="1"
     inkscape:current-layer="svg6" />
  <path
     fill-rule="nonzero"
     fill="#000000"
     fill-opacity="1"
     d="m 92.488284,23.636719 h 17.972646 v 1.628906 h -5.57812 v 33.394531 c 0,9.605469 -1.69141,19.828128 -5.796876,26.468748 l -3.39062,-4.63672 c 3.37109,-7.77734 2.39453,-17.535152 2.46094,-21.832028 V 25.265625 h -5.66797 z m 0,0"
     id="path2" />
  <path
     fill-rule="nonzero"
     fill="#000000"
     fill-opacity="1"
     d="m 64.011719,27.9375 h 0.695313 c 1.871093,18.691406 5.734372,34.78125 18.894532,53.191404 8.1875,11.44922 19.195306,27.749996 19.195306,27.749996 h 11.43359 c 0,0 -16.527336,-20.910146 -22.867176,-30.386716 C 76.394534,56.121094 71.242184,38.046875 70.402344,1.238282 V 0 H 60.78125 v 1.238282 c 0.304688,30.484374 -3.148437,43.765624 -7.789062,55.125 -3.199219,7.832031 -9.507813,17.843752 -17.1875,25.585942 0.0078,1.36718 0.679687,4.42578 1.273437,6.42578 5.3125,-6.92188 14.164063,-10.73828 21.925781,-10.73828 5.652344,0 10.843748,1.46093 15.488278,5.68359 1.84375,1.68359 5.02735,5.46875 10.33594,14.23828 -5.68359,5.976556 -13.6289,9.972656 -23.093749,9.972656 -13.246093,0 -19.285156,-4.92579 -23.785156,-11.328126 -4.117187,-5.85547 -6.238281,-14.55859 -6.238281,-28.062499 v -42.875 h 5.09375 V 23.636719 H 0 v 1.628906 h 5.273438 v 31.371094 c 0,17.820315 3.855468,27.746095 10.101562,36.355465 6.375,8.781246 19.660156,18.617186 44.40625,18.617186 13.066404,0 22.058594,-5.71094 27.031254,-10.73828 1.32812,2.27344 2.98828,5.15625 4.54297,8.00781 h 8.61328 c 0,0 -5.75,-8.68359 -14.33203,-21.054676 -9.12891,-13.15625 -17.92188,-14.875 -26.621099,-14.875 -4.609375,0 -10.046875,2.14453 -13.183593,4.36718 l -0.261719,-0.26172 c 5.71875,-6.539059 9.386719,-14.332028 11.675781,-20.167965 2.414062,-6.15625 6.3125,-19.097656 6.765625,-28.949219"
     id="path4" />
  <metadata
     id="metadata130">
    <rdf:RDF>
      <cc:Work
         rdf:about="">
        <dc:source>https://u-paris.fr/charte-graphique-et-outils/</dc:source>
        <dc:creator>
          <cc:Agent>
            <dc:title>Université Paris Cité</dc:title>
          </cc:Agent>
        </dc:creator>
      </cc:Work>
    </rdf:RDF>
  </metadata>
</svg>
