<?xml version="1.0" encoding="UTF-8" standalone="no"?>
<svg
   version="1.1"
   id="svg26"
   sodipodi:docname="AFIA_CFA_blanc.svg"
   width="140.177"
   height="55"
   inkscape:version="1.2.1 (9c6d41e410, 2022-07-14)"
   xmlns:inkscape="http://www.inkscape.org/namespaces/inkscape"
   xmlns:sodipodi="http://sodipodi.sourceforge.net/DTD/sodipodi-0.dtd"
   xmlns="http://www.w3.org/2000/svg"
   xmlns:svg="http://www.w3.org/2000/svg"
   xmlns:rdf="http://www.w3.org/1999/02/22-rdf-syntax-ns#"
   xmlns:cc="http://creativecommons.org/ns#"
   xmlns:dc="http://purl.org/dc/elements/1.1/">
  <defs
     id="defs30" />
  <sodipodi:namedview
     id="namedview28"
     pagecolor="#505050"
     bordercolor="#ffffff"
     borderopacity="1"
     inkscape:showpageshadow="0"
     inkscape:pageopacity="0"
     inkscape:pagecheckerboard="1"
     inkscape:deskcolor="#505050"
     showgrid="false"
     inkscape:zoom="2.8809154"
     inkscape:cx="24.992056"
     inkscape:cy="34.364077"
     inkscape:window-width="1366"
     inkscape:window-height="739"
     inkscape:window-x="0"
     inkscape:window-y="0"
     inkscape:window-maximized="1"
     inkscape:current-layer="svg26" />
  <g
     id="Clip-2"
     transform="translate(65.707965,10.707965)"
     style="fill:#ffffff;fill-opacity:1;fill-rule:evenodd;stroke:none;stroke-width:1" />
  <path
     d="m 76.076164,10.707965 c 6.476277,0 9.100827,3.564011 9.100827,6.907124 v 15.175112 h -6.473922 v -1.540137 c -1.006109,1.056243 -2.802755,1.847282 -4.814502,1.847282 -5.90775,0 -8.180602,-2.639582 -8.180602,-6.68528 0,-4.576106 3.674465,-7.654015 9.624607,-7.654015 h 3.370497 c 0,-1.627645 -1.22592,-2.682311 -3.061975,-2.682311 -1.883786,0 -2.803383,0.352081 -3.763803,1.407535 l -4.815287,-2.770134 c 2.40835,-2.728035 5.646018,-4.005176 9.01416,-4.005176 z m 2.626905,12.976696 h -3.807137 c -1.706523,0 -2.97562,1.188056 -2.71326,2.85843 0.173023,1.187268 1.225921,1.671162 2.71326,1.671162 2.843577,0 3.807137,-1.627645 3.807137,-2.594014 z"
     id="use12"
     style="fill:#ffffff;fill-opacity:1" />
  <g
     id="Clip-5"
     transform="translate(90.044248,0.973451)"
     style="fill:#ffffff;fill-opacity:1;fill-rule:evenodd;stroke:none;stroke-width:1" />
  <path
     d="m 100.58644,0.973451 c 1.32364,0 2.5572,0.5175158 3.57285,1.1192424 v 5.036358 c -0.92636,-0.8172935 -2.38147,-0.8582358 -2.77876,-0.8582358 -2.226715,0 -2.378619,2.2758658 -2.381434,4.0332214 l -4.2e-5,1.042683 h 5.160236 v 5.25177 H 98.999054 V 32.610619 H 92.469181 V 16.59849 h -2.424933 v -5.25177 h 2.424933 v -0.989592 c 0,-6.7149888 2.561008,-9.383677 8.117259,-9.383677 z"
     id="use18"
     style="fill:#ffffff;fill-opacity:1" />
  <g
     id="Clip-8"
     transform="translate(109.02655,1.946903)"
     style="fill:#ffffff;fill-opacity:1;fill-rule:evenodd;stroke:none;stroke-width:1" />
  <path
     d="m 115.66845,11.393353 v 21.703992 h -6.42527 V 11.393353 Z m -3.25843,-9.44645 c 1.95661,0 3.43069,1.4072763 3.43069,3.2073943 0,1.846529 -1.47408,3.2942379 -3.43069,3.2942379 -1.86661,0 -3.38347,-1.4477089 -3.38347,-3.2942379 0,-1.800118 1.51686,-3.2073943 3.38347,-3.2073943 z"
     id="use24"
     style="fill:#ffffff;fill-opacity:1" />
  <g
     id="Clip-11"
     transform="translate(120.70797,10.707965)"
     style="fill:#ffffff;fill-opacity:1;fill-rule:evenodd;stroke:none;stroke-width:1" />
  <path
     d="m 131.0779,10.707965 c 6.47235,0 9.0991,3.564011 9.0991,6.907124 v 15.175112 h -6.47518 v -1.540137 c -1.00721,1.056243 -2.80119,1.847282 -4.81262,1.847282 -5.90539,0 -8.18123,-2.639582 -8.18123,-6.68528 0,-4.576106 3.67572,-7.654015 9.62508,-7.654015 h 3.36877 c 0,-1.627645 -1.22718,-2.682311 -3.06261,-2.682311 -1.88252,0 -2.79961,0.352081 -3.76223,1.407535 l -4.81105,-2.770134 c 2.40569,-2.728035 5.64257,-4.005176 9.01197,-4.005176 z m 2.62392,12.976696 h -3.80604 c -1.70621,0 -2.97562,1.188056 -2.71326,2.85843 0.17428,1.187268 1.22545,1.671162 2.71326,1.671162 2.84342,0 3.80604,-1.627645 3.80604,-2.594014 z"
     id="use30"
     style="fill:#ffffff;fill-opacity:1" />
  <g
     id="Clip-14"
     style="fill:#ffffff;fill-opacity:1;fill-rule:evenodd;stroke:none;stroke-width:1" />
  <path
     d="m 47.366129,0 c 4.16783,0 7.556103,3.345366 7.623451,7.500812 l 0.001,0.126168 v 39.745256 c 0,4.172484 -3.346595,7.559421 -7.498416,7.626743 l -0.126057,0.001 H 7.615053 C 3.534033,54.999979 0.199239,51.791472 0,47.75479 V 7.244488 C 0.197184,3.25028 3.465577,0.066276 7.489019,0.001021 l 0.126034,-0.001 z m -3.44745,25.909701 c -0.333134,1.138233 -2.657237,8.300769 -12.585755,11.708105 -9.792158,3.362869 -16.03546,-0.726121 -17.09516,-1.481627 l -0.03052,-0.02186 -3.63,4.107294 c 6.379687,4.641624 13.942265,6.52745 22.84067,3.4697 8.886829,-3.051371 13.649658,-9.081367 15.895712,-16.568816 l 0.06729,-0.227337 z"
     id="use36"
     style="fill:#ffffff;fill-opacity:1" />
  <g
     id="Clip-17"
     transform="translate(65.707965,38.938053)"
     style="fill:#ffffff;fill-opacity:1;fill-rule:evenodd;stroke:none;stroke-width:1" />
  <path
     d="m 73.690255,38.938053 c 2.322623,0 4.516659,0.944224 6.132754,2.762811 l -2.235916,2.262707 c -0.871565,-1.466003 -2.362951,-2.240564 -3.896838,-2.240564 -2.758328,0 -4.66572,2.532486 -4.66572,5.234636 0,2.703553 1.888314,5.257402 4.66572,5.257402 1.181011,0 2.341546,-0.357261 3.916537,-2.178966 l 2.197139,2.220291 C 78.206914,54.058115 76.012878,55 73.690255,55 c -4.435381,0 -7.98229,-3.476554 -7.98229,-8.042357 0,-4.543816 3.546909,-8.01959 7.98229,-8.01959 z"
     id="use42"
     style="fill:#ffffff;fill-opacity:1" />
  <g
     id="Clip-20"
     transform="translate(98.318584,38.938053)"
     style="fill:#ffffff;fill-opacity:1;fill-rule:evenodd;stroke:none;stroke-width:1" />
  <polygon
     id="use48"
     points="9.7833597,6.3554613 9.7833597,9.1175186 3.4249355,9.1175186 3.4249355,15.575221 0,15.575221 0,0 11.19469,0 11.19469,2.7620573 3.4249355,2.7620573 3.4249355,6.3554613 "
     style="fill:#ffffff;fill-opacity:1"
     transform="translate(98.318584,38.938053)" />
  <g
     id="Clip-23"
     transform="translate(125.0885,38.938053)"
     style="fill:#ffffff;fill-opacity:1;fill-rule:evenodd;stroke:none;stroke-width:1" />
  <path
     d="m 133.72285,38.938053 6.45415,15.575221 h -3.60491 l -1.2791,-2.990751 h -5.34257 l -1.23773,2.990751 h -3.62419 l 6.47561,-15.575221 z m -1.09166,5.336749 c -0.48127,1.287655 -1.06708,3.031925 -1.61136,4.486435 h 3.22583 z"
     id="use54"
     style="fill:#ffffff;fill-opacity:1" />
  <metadata
     id="metadata144">
    <rdf:RDF>
      <cc:Work
         rdf:about="">
        <dc:source>https://www.cfa-afia.com/mentions-legales/</dc:source>
        <dc:creator>
          <cc:Agent>
            <dc:title>AFIA CFA</dc:title>
          </cc:Agent>
        </dc:creator>
      </cc:Work>
    </rdf:RDF>
  </metadata>
</svg>
