<?xml version="1.0" encoding="UTF-8" standalone="no"?>
<svg
   id="Calque_1"
   data-name="Calque 1"
   viewBox="0 0 130 150"
   version="1.1"
   sodipodi:docname="DL_02_Dip_Etat.svg"
   inkscape:version="1.2.1 (9c6d41e410, 2022-07-14)"
   xmlns:inkscape="http://www.inkscape.org/namespaces/inkscape"
   xmlns:sodipodi="http://sodipodi.sourceforge.net/DTD/sodipodi-0.dtd"
   xmlns="http://www.w3.org/2000/svg"
   xmlns:svg="http://www.w3.org/2000/svg"
   xmlns:rdf="http://www.w3.org/1999/02/22-rdf-syntax-ns#"
   xmlns:cc="http://creativecommons.org/ns#"
   xmlns:dc="http://purl.org/dc/elements/1.1/">
  <sodipodi:namedview
     id="namedview57"
     pagecolor="#505050"
     bordercolor="#ffffff"
     borderopacity="1"
     inkscape:showpageshadow="0"
     inkscape:pageopacity="0"
     inkscape:pagecheckerboard="1"
     inkscape:deskcolor="#505050"
     showgrid="false"
     inkscape:zoom="3.9"
     inkscape:cx="64.871795"
     inkscape:cy="75.128205"
     inkscape:window-width="1366"
     inkscape:window-height="739"
     inkscape:window-x="0"
     inkscape:window-y="0"
     inkscape:window-maximized="1"
     inkscape:current-layer="Calque_1" />
  <defs
     id="defs4">
    <style
       id="style2">.cls-1{fill:#144455;}.cls-2{fill:#006ab1;}.cls-3{fill:#fff;}</style>
  </defs>
  <title
     id="title6">Plan de travail 1</title>
  <path
     class="cls-1"
     d="M64.86,149.79,0,112.34V37.45L64.86,0l64.86,37.45v74.9ZM5,109.46,64.86,144l59.86-34.56V40.33L64.86,5.77,5,40.33Z"
     id="path8" />
  <polygon
     class="cls-1"
     points="117.3 105.17 64.86 135.45 12.42 105.17 12.42 44.62 64.86 14.34 117.3 44.62 117.3 105.17"
     id="polygon10" />
  <path
     class="cls-2"
     d="M64.86,138.34,9.92,106.62V43.18L64.86,11.46,119.8,43.18v63.44ZM14.92,103.73l49.94,28.83,49.94-28.83V46.06L64.86,17.23,14.92,46.06Z"
     id="path12" />
  <path
     class="cls-3"
     d="M41.6,53.23h2.76c1.92,0,2.94,1,2.94,3.27v4.29c0,2.22-1,3.27-2.94,3.27H41.6Zm1.86,9.3h.64c1,0,1.33-.37,1.33-1.52V56.27c0-1.14-.34-1.52-1.33-1.52h-.64Z"
     id="path14" />
  <path
     class="cls-3"
     d="M49.35,64.06V53.23h1.86V64.06Z"
     id="path16" />
  <path
     class="cls-3"
     d="M53.27,64.06V53.23h2.67c2.29,0,3.36.88,3.36,3.19s-1.06,3.19-3.36,3.19h-.81v4.44Zm1.86-6h.72c1.22,0,1.59-.37,1.59-1.67s-.37-1.67-1.59-1.67h-.72Z"
     id="path18" />
  <path
     class="cls-3"
     d="M60.68,64.06V53.23h1.86v9.21h2.92v1.62Z"
     id="path20" />
  <path
     class="cls-3"
     d="M66.6,55.85a2.85,2.85,0,0,1,5.7,0v5.58a2.85,2.85,0,0,1-5.7,0Zm2-5.35h1.65l1.44,2.16H70.34l-.89-1.33-.88,1.33H67.19Zm-.16,10.89c0,.81.24,1.2,1,1.2s1-.39,1-1.2V55.9c0-.81-.24-1.2-1-1.2s-1,.39-1,1.2Z"
     id="path22" />
  <path
     class="cls-3"
     d="M81.56,53.23V64.06H79.94V55.6h0l-1.68,8.46h-.9L75.65,55.6h0v8.46H74V53.23h2.45l1.32,6.33h0l1.32-6.33Z"
     id="path24" />
  <path
     class="cls-3"
     d="M83.27,64.06V53.23h5v1.62H85.13v2.79h2.4v1.62h-2.4v3.18h3.33v1.62Z"
     id="path26" />
  <path
     class="cls-3"
     d="M48.27,69.23H51c1.92,0,2.94,1,2.94,3.27v4.29c0,2.22-1,3.27-2.94,3.27H48.27Zm1.86,9.3h.64c1,0,1.33-.37,1.33-1.52V72.27c0-1.14-.34-1.52-1.33-1.52h-.64Z"
     id="path28" />
  <path
     class="cls-3"
     d="M55.83,69.23h1.41v4.11H55.83Z"
     id="path30" />
  <path
     class="cls-3"
     d="M59.1,80.06V69.23h5v1.62H61v2.79h2.4v1.62H61v3.18h3.33v1.62Zm2.79-11.4H60.64l1.19-2.16h2Z"
     id="path32" />
  <path
     class="cls-3"
     d="M66.84,70.85H65V69.23H70.5v1.62H68.7v9.21H66.84Z"
     id="path34" />
  <path
     class="cls-3"
     d="M72.4,80.06H70.6l2-10.83h2.31l2,10.83H75.1l-.33-2.4h-2Zm.6-4h1.5l-.73-4.65h0Z"
     id="path36" />
  <path
     class="cls-3"
     d="M78.51,70.85h-1.8V69.23h5.46v1.62h-1.8v9.21H78.51Z"
     id="path38" />
  <path
     class="cls-3"
     d="M42.38,88.5c-.15-1.71-.69-2.43-1.6-2.43-1.36,0-2,1.2-2,4.58s.6,4.57,2,4.57c1.09,0,1.72-.75,1.75-2.76H43.7c0,2.4-1.08,3.75-2.92,3.75s-3.14-1.47-3.14-5.56,1.2-5.56,3.14-5.56c1.6,0,2.59,1.11,2.77,3.42Z"
     id="path40" />
  <path
     class="cls-3"
     d="M48.2,96.21c-1.83,0-3.06-1.53-3.06-5.56s1.23-5.56,3.06-5.56,3.06,1.53,3.06,5.56S50,96.21,48.2,96.21Zm0-10.14c-1,0-1.89.9-1.89,4.58s.84,4.57,1.89,4.57,1.89-.9,1.89-4.57S49.25,86.07,48.2,86.07Z"
     id="path42" />
  <path
     class="cls-3"
     d="M54.62,85.23l2.79,8h0v-8h1.17V96.06H57.35L54,86.64h0v9.42H52.79V85.23Z"
     id="path44" />
  <path
     class="cls-3"
     d="M65.16,85.23v1H62.94v9.84H61.77V86.22H59.55v-1Z"
     id="path46" />
  <path
     class="cls-3"
     d="M66.27,85.23h2.61a2.7,2.7,0,0,1,3,2.8,2.6,2.6,0,0,1-1.74,2.66l1.83,5.37H70.71L69,90.93,67.44,91v5.07H66.27ZM67.44,90h1c1.68,0,2.22-.66,2.22-1.87s-.54-1.87-2.22-1.87h-1Z"
     id="path48" />
  <path
     class="cls-3"
     d="M76.53,96.21c-1.83,0-3.06-1.53-3.06-5.56s1.23-5.56,3.06-5.56,3.06,1.53,3.06,5.56S78.36,96.21,76.53,96.21ZM76,82.59h1l1.51,2.07h-1l-1.06-1.53-1.06,1.53h-1Zm.51,3.48c-1,0-1.89.9-1.89,4.58s.84,4.57,1.89,4.57,1.89-.9,1.89-4.57S77.58,86.07,76.53,86.07Z"
     id="path50" />
  <path
     class="cls-3"
     d="M82.44,85.23v9.84H86v1H81.27V85.23Z"
     id="path52" />
  <path
     class="cls-3"
     d="M92.06,85.23v1H88.28v3.69h2.79v1H88.28v4.17h4v1H87.11V85.23Zm-2.62-.57h-.75l1.47-2.07h1.17Z"
     id="path54" />
  <metadata
     id="metadata286">
    <rdf:RDF>
      <cc:Work
         rdf:about="">
        <dc:title>Plan de travail 1</dc:title>
        <dc:source>https://www.enseignementsup-recherche.gouv.fr/fr/labels-des-formations-controlees-par-l-etat-46088/</dc:source>
        <dc:creator>
          <cc:Agent>
            <dc:title>Le ministère de l'Enseignement supérieur</dc:title>
          </cc:Agent>
        </dc:creator>
      </cc:Work>
    </rdf:RDF>
  </metadata>
</svg>
