<?xml version="1.0" encoding="UTF-8" standalone="no"?>
<svg
   version="1.1"
   id="svg27"
   sodipodi:docname="DL_02_Dip_Etat_blanc.svg"
   width="129.72"
   height="149.78999"
   inkscape:version="1.2.1 (9c6d41e410, 2022-07-14, custom)"
   xmlns:inkscape="http://www.inkscape.org/namespaces/inkscape"
   xmlns:sodipodi="http://sodipodi.sourceforge.net/DTD/sodipodi-0.dtd"
   xmlns="http://www.w3.org/2000/svg"
   xmlns:svg="http://www.w3.org/2000/svg"
   xmlns:rdf="http://www.w3.org/1999/02/22-rdf-syntax-ns#"
   xmlns:cc="http://creativecommons.org/ns#"
   xmlns:dc="http://purl.org/dc/elements/1.1/">
  <defs
     id="defs31" />
  <sodipodi:namedview
     id="namedview29"
     pagecolor="#505050"
     bordercolor="#ffffff"
     borderopacity="1"
     inkscape:showpageshadow="0"
     inkscape:pageopacity="0"
     inkscape:pagecheckerboard="1"
     inkscape:deskcolor="#505050"
     showgrid="false"
     inkscape:zoom="1.581696"
     inkscape:cx="48.049689"
     inkscape:cy="17.702517"
     inkscape:window-width="1366"
     inkscape:window-height="739"
     inkscape:window-x="0"
     inkscape:window-y="0"
     inkscape:window-maximized="1"
     inkscape:current-layer="svg27" />
  <path
     class="cls-1"
     fill="#ffffff"
     d="M 64.86,149.79 0,112.34 V 37.45 L 64.86,0 129.72,37.45 v 74.89 z M 5,109.45 64.86,144 124.72,109.44 V 40.33 L 64.86,5.77 5,40.33 Z"
     id="path8" />
  <polygon
     class="cls-1"
     fill="#ffffff"
     points="12.42,105.17 12.42,44.62 64.86,14.34 117.3,44.62 117.3,105.17 64.86,135.44 "
     id="polygon10" />
  <path
     class="cls-2"
     fill="#006eb7"
     d="M 64.86,138.33 9.92,106.61 V 43.17 L 64.86,11.46 119.8,43.17 v 63.44 z M 14.92,103.72 64.86,132.56 114.8,103.72 V 46.06 L 64.86,17.23 14.92,46.06 Z"
     id="path12" />
  <path
     class="cls-3"
     fill="#1e4455"
     d="m 41.59,53.23 h 2.76 c 1.92,0 2.94,1.05 2.94,3.27 v 4.29 c 0,2.22 -1,3.27 -2.94,3.27 h -2.76 z m 1.86,9.3 h 0.65 c 1,0 1.33,-0.38 1.33,-1.52 v -4.74 c 0,-1.14 -0.34,-1.51 -1.33,-1.51 h -0.65 z"
     id="path14" />
  <path
     class="cls-3"
     fill="#1e4455"
     d="M 49.35,64.06 V 53.23 h 1.86 v 10.83 z"
     id="path16" />
  <path
     class="cls-3"
     fill="#1e4455"
     d="M 53.26,64.06 V 53.23 h 2.67 c 2.3,0 3.36,0.88 3.36,3.19 0,2.31 -1.06,3.2 -3.36,3.2 h -0.81 v 4.44 z m 1.86,-6 h 0.72 c 1.21,0 1.59,-0.38 1.59,-1.67 0,-1.29 -0.38,-1.66 -1.59,-1.66 h -0.72 z"
     id="path18" />
  <path
     class="cls-3"
     fill="#1e4455"
     d="M 60.67,64.06 V 53.23 h 1.86 v 9.21 h 2.93 v 1.62 z"
     id="path20" />
  <path
     class="cls-3"
     fill="#1e4455"
     d="m 66.6,55.85 a 2.85,2.85 0 0 1 5.7,0 v 5.58 a 2.85,2.85 0 0 1 -5.7,0 z m 2,-5.35 h 1.65 l 1.44,2.16 h -1.36 l -0.88,-1.34 -0.89,1.34 h -1.38 z m -0.16,10.89 c 0,0.81 0.24,1.2 1,1.2 0.76,0 1,-0.39 1,-1.2 V 55.9 c 0,-0.81 -0.24,-1.2 -1,-1.2 -0.76,0 -1,0.39 -1,1.2 z"
     id="path22" />
  <path
     class="cls-3"
     fill="#1e4455"
     d="m 81.55,53.23 v 10.83 h -1.62 v -8.46 0 l -1.68,8.46 h -0.9 L 75.64,55.6 v 0 8.46 H 74 V 53.23 h 2.44 l 1.32,6.33 v 0 l 1.32,-6.33 z"
     id="path24" />
  <path
     class="cls-3"
     fill="#1e4455"
     d="M 83.26,64.06 V 53.23 h 5 v 1.62 h -3.14 v 2.79 h 2.4 v 1.62 h -2.4 v 3.18 h 3.33 v 1.62 z"
     id="path26" />
  <path
     class="cls-3"
     fill="#1e4455"
     d="M 48.26,69.23 H 51 c 1.92,0 2.94,1 2.94,3.27 v 4.29 c 0,2.22 -1,3.27 -2.94,3.27 h -2.74 z m 1.86,9.3 h 0.64 c 1,0 1.34,-0.38 1.34,-1.52 v -4.74 c 0,-1.14 -0.34,-1.51 -1.34,-1.51 h -0.64 z"
     id="path28" />
  <path
     class="cls-3"
     fill="#1e4455"
     d="m 55.82,69.23 h 1.41 v 4.11 h -1.41 z"
     id="path30" />
  <path
     class="cls-3"
     fill="#1e4455"
     d="M 59.09,80.06 V 69.23 h 5 v 1.62 H 61 v 2.79 h 2.4 v 1.62 H 61 v 3.18 h 3.33 v 1.62 z m 2.79,-11.4 h -1.25 l 1.19,-2.16 h 2 z"
     id="path32" />
  <path
     class="cls-3"
     fill="#1e4455"
     d="M 66.83,70.85 H 65 v -1.62 h 5.46 v 1.62 h -1.8 v 9.21 h -1.83 z"
     id="path34" />
  <path
     class="cls-3"
     fill="#1e4455"
     d="M 72.39,80.06 H 70.6 l 2,-10.83 h 2.3 l 2,10.83 h -1.8 l -0.33,-2.4 h -2 z M 73,76 h 1.5 l -0.74,-4.65 v 0 z"
     id="path36" />
  <path
     class="cls-3"
     fill="#1e4455"
     d="m 78.5,70.85 h -1.8 v -1.62 h 5.46 v 1.62 h -1.8 v 9.21 H 78.5 Z"
     id="path38" />
  <path
     class="cls-3"
     fill="#1e4455"
     d="m 42.37,88.5 c -0.15,-1.71 -0.69,-2.43 -1.6,-2.43 -1.37,0 -2,1.2 -2,4.57 0,3.37 0.6,4.58 2,4.58 1.09,0 1.72,-0.75 1.75,-2.76 h 1.17 c 0,2.4 -1.08,3.75 -2.92,3.75 -1.84,0 -3.14,-1.47 -3.14,-5.57 0,-4.1 1.2,-5.56 3.14,-5.56 1.6,0 2.59,1.11 2.77,3.42 z"
     id="path40" />
  <path
     class="cls-3"
     fill="#1e4455"
     d="m 48.19,96.21 c -1.83,0 -3.06,-1.53 -3.06,-5.57 0,-4.04 1.23,-5.56 3.06,-5.56 1.83,0 3.06,1.53 3.06,5.56 0,4.03 -1.25,5.57 -3.06,5.57 z m 0,-10.14 c -1,0 -1.89,0.9 -1.89,4.57 0,3.67 0.84,4.58 1.89,4.58 1.05,0 1.89,-0.9 1.89,-4.58 0,-3.68 -0.84,-4.57 -1.89,-4.57 z"
     id="path42" />
  <path
     class="cls-3"
     fill="#1e4455"
     d="m 54.61,85.23 2.79,8 v 0 -8 h 1.2 V 96.06 H 57.34 L 54,86.64 v 0 9.42 H 52.78 V 85.23 Z"
     id="path44" />
  <path
     class="cls-3"
     fill="#1e4455"
     d="m 65.16,85.23 v 1 h -2.22 v 9.84 h -1.17 v -9.85 h -2.22 v -1 z"
     id="path46" />
  <path
     class="cls-3"
     fill="#1e4455"
     d="m 66.27,85.23 h 2.61 a 2.7,2.7 0 0 1 3,2.8 2.61,2.61 0 0 1 -1.74,2.66 l 1.83,5.37 H 70.71 L 69,90.93 67.44,91 v 5.07 H 66.27 Z M 67.44,90 h 1 c 1.68,0 2.22,-0.66 2.22,-1.87 0,-1.21 -0.54,-1.88 -2.22,-1.88 h -1 z"
     id="path48" />
  <path
     class="cls-3"
     fill="#1e4455"
     d="m 76.53,96.21 c -1.83,0 -3.06,-1.53 -3.06,-5.57 0,-4.04 1.23,-5.56 3.06,-5.56 1.83,0 3.06,1.53 3.06,5.56 0,4.03 -1.23,5.57 -3.06,5.57 z M 76,82.59 h 1 l 1.51,2.07 h -1 l -1.06,-1.53 -1.07,1.53 h -1 z m 0.51,3.48 c -1,0 -1.89,0.9 -1.89,4.57 0,3.67 0.84,4.58 1.89,4.58 1.05,0 1.89,-0.9 1.89,-4.58 0,-3.68 -0.82,-4.57 -1.87,-4.57 z"
     id="path50" />
  <path
     class="cls-3"
     fill="#1e4455"
     d="m 82.44,85.23 v 9.84 H 86 v 1 H 81.27 V 85.23 Z"
     id="path52" />
  <path
     class="cls-3"
     fill="#1e4455"
     d="m 92.05,85.23 v 1 h -3.78 v 3.69 h 2.79 v 1 h -2.79 v 4.17 h 4 v 1 H 87.1 V 85.23 Z m -2.62,-0.57 h -0.75 l 1.47,-2.07 h 1.17 z"
     id="path54" />
  <metadata
     id="metadata286">
    <rdf:RDF>
      <cc:Work
         rdf:about="">
        <dc:title>DL_02_Dip_Etat_blanc</dc:title>
        <dc:source>https://www.enseignementsup-recherche.gouv.fr/fr/labels-des-formations-controlees-par-l-etat-46088/</dc:source>
        <dc:creator>
          <cc:Agent>
            <dc:title>Le ministère de l'Enseignement supérieur</dc:title>
          </cc:Agent>
        </dc:creator>
      </cc:Work>
    </rdf:RDF>
  </metadata>
</svg>
