<?xml version="1.0" encoding="UTF-8" standalone="no"?>
<svg
   id="Calque_1"
   data-name="Calque 1"
   viewBox="0 0 129.72 149.79"
   version="1.1"
   sodipodi:docname="DL_02_Dip_Etat_blanc.svg"
   inkscape:version="1.2.1 (9c6d41e410, 2022-07-14)"
   xmlns:inkscape="http://www.inkscape.org/namespaces/inkscape"
   xmlns:sodipodi="http://sodipodi.sourceforge.net/DTD/sodipodi-0.dtd"
   xmlns="http://www.w3.org/2000/svg"
   xmlns:svg="http://www.w3.org/2000/svg"
   xmlns:rdf="http://www.w3.org/1999/02/22-rdf-syntax-ns#"
   xmlns:cc="http://creativecommons.org/ns#"
   xmlns:dc="http://purl.org/dc/elements/1.1/">
  <sodipodi:namedview
     id="namedview57"
     pagecolor="#505050"
     bordercolor="#ffffff"
     borderopacity="1"
     inkscape:showpageshadow="0"
     inkscape:pageopacity="0"
     inkscape:pagecheckerboard="1"
     inkscape:deskcolor="#505050"
     showgrid="false"
     inkscape:zoom="2.54684"
     inkscape:cx="57.718584"
     inkscape:cy="78.921329"
     inkscape:window-width="1366"
     inkscape:window-height="739"
     inkscape:window-x="0"
     inkscape:window-y="0"
     inkscape:window-maximized="1"
     inkscape:current-layer="Calque_1" />
  <defs
     id="defs4">
    <style
       id="style2">.cls-1{fill:#fff;}.cls-2{fill:#006eb7;}.cls-3{fill:#1e4455;}</style>
  </defs>
  <title
     id="title6">DL_02_Dip_Etat_blanc</title>
  <path
     class="cls-1"
     d="M64.86,149.79,0,112.34V37.45L64.86,0l64.86,37.45v74.89ZM5,109.45,64.86,144l59.86-34.56V40.33L64.86,5.77,5,40.33Z"
     transform="translate(0 0)"
     id="path8" />
  <polygon
     class="cls-1"
     points="117.3 105.17 64.86 135.44 12.42 105.17 12.42 44.62 64.86 14.34 117.3 44.62 117.3 105.17"
     id="polygon10" />
  <path
     class="cls-2"
     d="M64.86,138.33,9.92,106.61V43.17L64.86,11.46,119.8,43.17v63.44ZM14.92,103.72l49.94,28.84,49.94-28.84V46.06L64.86,17.23,14.92,46.06Z"
     transform="translate(0 0)"
     id="path12" />
  <path
     class="cls-3"
     d="M41.59,53.23h2.76c1.92,0,2.94,1.05,2.94,3.27v4.29c0,2.22-1,3.27-2.94,3.27H41.59Zm1.86,9.3h.65c1,0,1.33-.38,1.33-1.52V56.27c0-1.14-.34-1.51-1.33-1.51h-.65Z"
     transform="translate(0 0)"
     id="path14" />
  <path
     class="cls-3"
     d="M49.35,64.06V53.23h1.86V64.06Z"
     transform="translate(0 0)"
     id="path16" />
  <path
     class="cls-3"
     d="M53.26,64.06V53.23h2.67c2.3,0,3.36.88,3.36,3.19s-1.06,3.2-3.36,3.2h-.81v4.44Zm1.86-6h.72c1.21,0,1.59-.38,1.59-1.67s-.38-1.66-1.59-1.66h-.72Z"
     transform="translate(0 0)"
     id="path18" />
  <path
     class="cls-3"
     d="M60.67,64.06V53.23h1.86v9.21h2.93v1.62Z"
     transform="translate(0 0)"
     id="path20" />
  <path
     class="cls-3"
     d="M66.6,55.85a2.85,2.85,0,0,1,5.7,0v5.58a2.85,2.85,0,0,1-5.7,0Zm2-5.35h1.65l1.44,2.16H70.33l-.88-1.34-.89,1.34H67.18Zm-.16,10.89c0,.81.24,1.2,1,1.2s1-.39,1-1.2V55.9c0-.81-.24-1.2-1-1.2s-1,.39-1,1.2Z"
     transform="translate(0 0)"
     id="path22" />
  <path
     class="cls-3"
     d="M81.55,53.23V64.06H79.93V55.6h0l-1.68,8.46h-.9L75.64,55.6h0v8.46H74V53.23h2.44l1.32,6.33h0l1.32-6.33Z"
     transform="translate(0 0)"
     id="path24" />
  <path
     class="cls-3"
     d="M83.26,64.06V53.23h5v1.62H85.12v2.79h2.4v1.62h-2.4v3.18h3.33v1.62Z"
     transform="translate(0 0)"
     id="path26" />
  <path
     class="cls-3"
     d="M48.26,69.23H51c1.92,0,2.94,1,2.94,3.27v4.29c0,2.22-1,3.27-2.94,3.27H48.26Zm1.86,9.3h.64c1,0,1.34-.38,1.34-1.52V72.27c0-1.14-.34-1.51-1.34-1.51h-.64Z"
     transform="translate(0 0)"
     id="path28" />
  <path
     class="cls-3"
     d="M55.82,69.23h1.41v4.11H55.82Z"
     transform="translate(0 0)"
     id="path30" />
  <path
     class="cls-3"
     d="M59.09,80.06V69.23h5v1.62H61v2.79h2.4v1.62H61v3.18h3.33v1.62Zm2.79-11.4H60.63l1.19-2.16h2Z"
     transform="translate(0 0)"
     id="path32" />
  <path
     class="cls-3"
     d="M66.83,70.85H65V69.23h5.46v1.62h-1.8v9.21H66.83Z"
     transform="translate(0 0)"
     id="path34" />
  <path
     class="cls-3"
     d="M72.39,80.06H70.6l2-10.83H74.9l2,10.83h-1.8l-.33-2.4h-2ZM73,76h1.5l-.74-4.65h0Z"
     transform="translate(0 0)"
     id="path36" />
  <path
     class="cls-3"
     d="M78.5,70.85H76.7V69.23h5.46v1.62h-1.8v9.21H78.5Z"
     transform="translate(0 0)"
     id="path38" />
  <path
     class="cls-3"
     d="M42.37,88.5c-.15-1.71-.69-2.43-1.6-2.43-1.37,0-2,1.2-2,4.57s.6,4.58,2,4.58c1.09,0,1.72-.75,1.75-2.76h1.17c0,2.4-1.08,3.75-2.92,3.75s-3.14-1.47-3.14-5.57,1.2-5.56,3.14-5.56c1.6,0,2.59,1.11,2.77,3.42Z"
     transform="translate(0 0)"
     id="path40" />
  <path
     class="cls-3"
     d="M48.19,96.21c-1.83,0-3.06-1.53-3.06-5.57s1.23-5.56,3.06-5.56,3.06,1.53,3.06,5.56S50,96.21,48.19,96.21Zm0-10.14c-1,0-1.89.9-1.89,4.57s.84,4.58,1.89,4.58,1.89-.9,1.89-4.58S49.24,86.07,48.19,86.07Z"
     transform="translate(0 0)"
     id="path42" />
  <path
     class="cls-3"
     d="M54.61,85.23l2.79,8h0v-8H58.6V96.06H57.34L54,86.64h0v9.42H52.78V85.23Z"
     transform="translate(0 0)"
     id="path44" />
  <path
     class="cls-3"
     d="M65.16,85.23v1H62.94v9.84H61.77V86.22H59.55v-1Z"
     transform="translate(0 0)"
     id="path46" />
  <path
     class="cls-3"
     d="M66.27,85.23h2.61a2.7,2.7,0,0,1,3,2.8,2.61,2.61,0,0,1-1.74,2.66l1.83,5.37H70.71L69,90.93,67.44,91v5.07H66.27ZM67.44,90h1c1.68,0,2.22-.66,2.22-1.87s-.54-1.88-2.22-1.88h-1Z"
     transform="translate(0 0)"
     id="path48" />
  <path
     class="cls-3"
     d="M76.53,96.21c-1.83,0-3.06-1.53-3.06-5.57s1.23-5.56,3.06-5.56,3.06,1.53,3.06,5.56S78.36,96.21,76.53,96.21ZM76,82.59h1l1.51,2.07h-1l-1.06-1.53-1.07,1.53h-1Zm.51,3.48c-1,0-1.89.9-1.89,4.57s.84,4.58,1.89,4.58,1.89-.9,1.89-4.58S77.58,86.07,76.53,86.07Z"
     transform="translate(0 0)"
     id="path50" />
  <path
     class="cls-3"
     d="M82.44,85.23v9.84H86v1H81.27V85.23Z"
     transform="translate(0 0)"
     id="path52" />
  <path
     class="cls-3"
     d="M92.05,85.23v1H88.27v3.69h2.79v1H88.27v4.17h4v1H87.1V85.23Zm-2.62-.57h-.75l1.47-2.07h1.17Z"
     transform="translate(0 0)"
     id="path54" />
  <metadata
     id="metadata286">
    <rdf:RDF>
      <cc:Work
         rdf:about="">
        <dc:title>DL_02_Dip_Etat_blanc</dc:title>
        <dc:source>https://www.enseignementsup-recherche.gouv.fr/fr/labels-des-formations-controlees-par-l-etat-46088/</dc:source>
        <dc:creator>
          <cc:Agent>
            <dc:title>Le ministère de l'Enseignement supérieur</dc:title>
          </cc:Agent>
        </dc:creator>
      </cc:Work>
    </rdf:RDF>
  </metadata>
</svg>
