<?xml version="1.0" encoding="UTF-8" standalone="no"?>
<svg
   width="283.46"
   height="56.94"
   viewBox="0 0 283.46 56.94"
   version="1.1"
   id="svg4"
   sodipodi:docname="Givaudan_text_black.svg"
   inkscape:version="1.2.1 (9c6d41e410, 2022-07-14)"
   xmlns:inkscape="http://www.inkscape.org/namespaces/inkscape"
   xmlns:sodipodi="http://sodipodi.sourceforge.net/DTD/sodipodi-0.dtd"
   xmlns="http://www.w3.org/2000/svg"
   xmlns:svg="http://www.w3.org/2000/svg"
   xmlns:rdf="http://www.w3.org/1999/02/22-rdf-syntax-ns#"
   xmlns:cc="http://creativecommons.org/ns#"
   xmlns:dc="http://purl.org/dc/elements/1.1/">
  <defs
     id="defs8" />
  <sodipodi:namedview
     id="namedview6"
     pagecolor="#505050"
     bordercolor="#ffffff"
     borderopacity="1"
     inkscape:showpageshadow="0"
     inkscape:pageopacity="0"
     inkscape:pagecheckerboard="1"
     inkscape:deskcolor="#505050"
     showgrid="false"
     inkscape:zoom="4.3886264"
     inkscape:cx="141.73"
     inkscape:cy="28.482716"
     inkscape:window-width="1366"
     inkscape:window-height="739"
     inkscape:window-x="0"
     inkscape:window-y="0"
     inkscape:window-maximized="1"
     inkscape:current-layer="svg4" />
  <path
     fill-rule="nonzero"
     fill="rgb(13.729858%, 12.159729%, 12.548828%)"
     fill-opacity="1"
     d="M 262.570312 28.09375 L 262.570312 24.019531 L 256.488281 24.019531 L 256.488281 55.65625 L 262.570312 55.65625 L 262.570312 39.261719 C 262.570312 37.65625 262.652344 35.835938 262.894531 34.488281 C 263.558594 30.789062 266.71875 28.269531 270.726562 28.269531 C 274.734375 28.269531 277.011719 30.390625 277.324219 34.34375 C 277.394531 35.175781 277.386719 35.898438 277.386719 36.601562 L 277.386719 55.65625 L 283.464844 55.65625 L 283.464844 35.242188 C 283.464844 33.921875 283.386719 32.265625 283.117188 31.132812 C 281.980469 26.390625 278.335938 23.222656 272.097656 23.222656 C 268.242188 23.222656 264.425781 25.378906 262.777344 28.09375 Z M 146.382812 24.019531 L 140.203125 24.019531 L 140.203125 42.777344 C 140.203125 44.144531 140.292969 45.628906 140.46875 46.644531 C 141.59375 53.019531 146.589844 56.746094 153.6875 56.746094 C 160.785156 56.746094 165.78125 53.019531 166.90625 46.632812 C 167.078125 45.628906 167.175781 44.140625 167.175781 42.777344 L 167.175781 24.019531 L 160.984375 24.019531 L 160.984375 43.167969 C 160.984375 48.050781 158.984375 51.5 153.6875 51.5 C 148.382812 51.5 146.382812 48.050781 146.382812 43.167969 Z M 200.269531 50.984375 L 200.019531 50.984375 C 198.050781 54.289062 193.65625 56.527344 189.183594 56.527344 C 179.511719 56.527344 173.886719 49.074219 173.886719 39.882812 C 173.886719 30.972656 180.105469 23.34375 189.183594 23.34375 C 193.679688 23.34375 197.65625 25.320312 200.019531 28.957031 L 200.269531 28.957031 L 200.269531 0.00390625 L 206.105469 0.00390625 L 206.105469 55.65625 L 200.269531 55.65625 Z M 190.085938 51.335938 C 196.828125 51.335938 200.359375 46.0625 200.359375 39.835938 C 200.359375 33.6875 196.765625 28.480469 190.085938 28.480469 C 183.789062 28.480469 180.070312 33.964844 180.070312 39.835938 C 180.070312 46.046875 183.265625 51.335938 190.085938 51.335938 Z M 115.425781 51.335938 C 122.183594 51.335938 125.703125 46.0625 125.703125 39.835938 C 125.703125 33.6875 122.113281 28.480469 115.425781 28.480469 C 109.140625 28.480469 105.421875 33.964844 105.421875 39.835938 C 105.421875 45.789062 109.007812 51.335938 115.425781 51.335938 Z M 125.757812 50.941406 L 125.511719 50.941406 C 123.4375 54.25 119.460938 56.527344 114.679688 56.527344 C 105.007812 56.527344 99.234375 49.011719 99.234375 39.6875 C 99.234375 31.035156 105.472656 23.34375 114.671875 23.34375 C 119.183594 23.34375 123.046875 25.214844 125.511719 28.957031 L 125.757812 28.957031 L 125.757812 24.019531 L 131.40625 24.019531 L 131.40625 55.65625 L 125.757812 55.65625 Z M 229.75 51.335938 C 236.503906 51.335938 240.027344 46.0625 240.027344 39.835938 C 240.027344 33.6875 236.4375 28.480469 229.75 28.480469 C 223.460938 28.480469 219.75 33.964844 219.75 39.835938 C 219.75 45.789062 223.324219 51.335938 229.75 51.335938 Z M 240.082031 50.941406 L 239.835938 50.941406 C 237.761719 54.25 233.785156 56.527344 228.996094 56.527344 C 219.328125 56.527344 213.5625 49.011719 213.5625 39.6875 C 213.5625 31.035156 219.796875 23.34375 228.992188 23.34375 C 233.511719 23.34375 237.371094 25.214844 239.835938 28.957031 L 240.082031 28.957031 L 240.082031 24.019531 L 245.726562 24.019531 L 245.726562 55.65625 L 240.082031 55.65625 Z M 81.785156 44.347656 L 72.722656 24.019531 L 65.648438 24.019531 L 81.6875 56.941406 L 97.691406 24.019531 L 90.910156 24.019531 Z M 61.324219 55.65625 L 61.324219 24.019531 L 55.242188 24.019531 L 55.242188 55.65625 Z M 62.472656 10.535156 C 62.472656 8.175781 60.582031 6.28125 58.28125 6.28125 C 55.984375 6.28125 54.089844 8.175781 54.089844 10.535156 C 54.089844 12.835938 55.984375 14.660156 58.28125 14.660156 C 60.582031 14.660156 62.472656 12.835938 62.472656 10.535156 Z M 48.324219 30.824219 L 48.324219 32.703125 C 48.324219 45.425781 40.058594 56.691406 24.996094 56.691406 C 10.070312 56.691406 0 44.566406 0 30.808594 C 0 16.394531 10.519531 5.050781 25.0625 5.050781 C 32.898438 5.050781 40.441406 8.390625 45.472656 14.71875 L 41.117188 18.921875 C 37.503906 13.964844 31.269531 10.703125 25.175781 10.703125 C 14.023438 10.703125 6.570312 19.464844 6.570312 30.609375 C 6.570312 41.304688 13.445312 50.945312 25.386719 50.945312 C 34.960938 50.945312 41.042969 43.886719 41.492188 36.1875 L 27.800781 36.1875 L 27.800781 30.824219 L 48.324219 30.824219 "
     id="path2" />
  <metadata
     id="metadata133">
    <rdf:RDF>
      <cc:Work
         rdf:about="">
        <dc:creator>
          <cc:Agent>
            <dc:title>Givaudan</dc:title>
          </cc:Agent>
        </dc:creator>
        <dc:source>https://www.givaudan.com/media/media-resources</dc:source>
      </cc:Work>
    </rdf:RDF>
  </metadata>
</svg>
