<?xml version="1.0" encoding="UTF-8" standalone="no"?>
<svg
   width="383.66406"
   height="111.61328"
   viewBox="0 0 383.66406 111.61328"
   version="1.1"
   id="svg56"
   sodipodi:docname="UniversiteParisCite_couleur.svg"
   inkscape:version="1.2.1 (9c6d41e410, 2022-07-14)"
   xmlns:inkscape="http://www.inkscape.org/namespaces/inkscape"
   xmlns:sodipodi="http://sodipodi.sourceforge.net/DTD/sodipodi-0.dtd"
   xmlns="http://www.w3.org/2000/svg"
   xmlns:svg="http://www.w3.org/2000/svg"
   xmlns:rdf="http://www.w3.org/1999/02/22-rdf-syntax-ns#"
   xmlns:cc="http://creativecommons.org/ns#"
   xmlns:dc="http://purl.org/dc/elements/1.1/">
  <defs
     id="defs60" />
  <sodipodi:namedview
     id="namedview58"
     pagecolor="#505050"
     bordercolor="#ffffff"
     borderopacity="1"
     inkscape:showpageshadow="0"
     inkscape:pageopacity="0"
     inkscape:pagecheckerboard="1"
     inkscape:deskcolor="#505050"
     showgrid="false"
     inkscape:zoom="2.7460651"
     inkscape:cx="194.09591"
     inkscape:cy="58.629346"
     inkscape:window-width="1366"
     inkscape:window-height="739"
     inkscape:window-x="0"
     inkscape:window-y="0"
     inkscape:window-maximized="1"
     inkscape:current-layer="svg56" />
  <path
     fill-rule="nonzero"
     fill="#8a1738"
     fill-opacity="1"
     d="m 92.492189,23.640625 h 17.972651 v 1.628906 h -5.58203 v 33.394531 c 0,9.605469 -1.6875,19.828124 -5.792971,26.468754 l -3.39062,-4.63672 c 3.37109,-7.777346 2.39453,-17.535159 2.46094,-21.832034 V 25.269531 h -5.66797 z m 0,0"
     id="path2" />
  <path
     fill-rule="nonzero"
     fill="#8a1738"
     fill-opacity="1"
     d="m 64.015625,27.941406 h 0.695313 c 1.867187,18.6875 5.734371,34.78125 18.894531,53.1875 8.1875,11.45313 19.191411,27.750004 19.191411,27.750004 h 11.4375 c 0,0 -16.527351,-20.910164 -22.867191,-30.386724 C 76.398439,56.125 71.246099,38.050781 70.406249,1.242187 V 0 h -9.621092 v 1.242187 c 0.304687,30.484375 -3.152344,43.761719 -7.789063,55.125 -3.199219,7.832031 -9.507813,17.839849 -17.1875,25.585939 0.0078,1.36719 0.679687,4.42578 1.269531,6.42187 5.316406,-6.91796 14.164063,-10.73437 21.929688,-10.73437 5.652344,0 10.84375,1.46094 15.484376,5.68359 1.84375,1.67969 5.03125,5.46875 10.33984,14.23828 -5.68359,5.976574 -13.6289,9.972664 -23.093748,9.972664 -13.246093,0 -19.285156,-4.92578 -23.789062,-11.328124 -4.113281,-5.85547 -6.234375,-14.5586 -6.234375,-28.062505 v -42.875 h 5.09375 V 23.636718 H 0 v 1.632813 h 5.277344 v 31.371094 c 0,17.820311 3.851563,27.746091 10.101563,36.355471 6.375,8.781254 19.660156,18.617184 44.402343,18.617184 13.070309,0 22.062499,-5.71093 27.035159,-10.73828 1.32812,2.27344 2.98828,5.15625 4.54297,8.00391 h 8.61328 c 0,0 -5.75,-8.67969 -14.33203,-21.050784 -9.12891,-13.15625 -17.921879,-14.875 -26.621098,-14.875 -4.609374,0 -10.046874,2.14453 -13.183593,4.36719 l -0.261719,-0.26172 C 51.292969,70.519531 54.960938,62.726562 57.25,56.890625 c 2.414063,-6.15625 6.3125,-19.101563 6.765625,-28.949219"
     id="path4" />
  <path
     fill-rule="nonzero"
     fill="#000000"
     fill-opacity="1"
     d="m 166.85938,62.277344 c 10.17187,0 15.77734,-4.804688 15.77734,-13.527344 V 23.574218 h -5.69531 v 25.070313 c 0,5.949219 -3.44922,9.089844 -9.97657,9.089844 -6.52734,0 -9.97656,-3.140625 -9.97656,-9.089844 V 23.574218 h -6.11719 V 48.75 c 0,8.722656 5.67579,13.527344 15.98829,13.527344"
     id="path6" />
  <path
     fill-rule="nonzero"
     fill="#000000"
     fill-opacity="1"
     d="m 213.80078,61.753906 v -21.1875 c 0,-3.996094 -2.96875,-6.285156 -8.14453,-6.285156 -4.94922,0 -9.02734,1.890625 -10.87891,3.730468 v -3.375 l -5.3789,0.230469 v 26.886719 h 5.64062 V 41.644531 c 1.70703,-2.304687 5.41797,-3.507813 8.23047,-3.507813 3.29297,0 4.89063,1.15625 4.89063,3.53125 v 20.085938 z m 0,0"
     id="path8" />
  <path
     fill-rule="nonzero"
     fill="#000000"
     fill-opacity="1"
     d="m 220.14063,30.6875 h 5.58593 v -5.171875 h -5.58593 z m 0,0"
     id="path10" />
  <path
     fill-rule="nonzero"
     fill="#000000"
     fill-opacity="1"
     d="m 220.14063,61.753906 h 5.58593 V 34.695312 l -5.58593,0.113282 z m 0,0"
     id="path12" />
  <path
     fill-rule="nonzero"
     fill="#000000"
     fill-opacity="1"
     d="m 245.20703,61.753906 10.39453,-26.609375 0.13282,-0.339844 h -4.88672 l -8.01172,21.507813 -7.79688,-21.34375 -0.0586,-0.164063 h -5.94141 l 10.3125,26.949219 z m 0,0"
     id="path14" />
  <path
     fill-rule="nonzero"
     fill="#000000"
     fill-opacity="1"
     d="m 262.34375,44.828125 c 1.13281,-6.40625 4.9375,-7.371094 7.125,-7.371094 5.69531,0 6.55469,4.960937 6.63281,7.371094 z m 18.66016,14.378906 v -4.183594 l -0.42578,0.421875 c -1.54297,1.53125 -5.07422,3.078125 -8.83204,3.078125 -6.41015,0 -9.66015,-3.410156 -9.66015,-10.140625 v -0.273437 h 19.32031 l 0.0234,-0.226563 c 0.0508,-0.535156 0.0508,-1.652344 0.0508,-2.070312 0,-7.328125 -4.37891,-11.53125 -12.01172,-11.53125 -6.48047,0 -13.02344,4.34375 -13.02344,14.050781 0,8.601563 5.35547,13.945313 13.97657,13.945313 6.13281,0 9.3789,-2.09375 10.48828,-2.992188 z m 0,0"
     id="path16" />
  <path
     fill-rule="nonzero"
     fill="#000000"
     fill-opacity="1"
     d="m 292.03125,42.976562 c 1.26172,-2.984375 4.25391,-4.050781 6.63672,-4.050781 1.38672,0 2.69922,0.238281 3.26172,0.589844 l 0.38281,0.242187 v -4.554687 l -0.0859,-0.07422 c -0.60156,-0.527344 -1.67578,-0.796875 -3.1875,-0.796875 -2.76562,0 -5.54297,1.6875 -7.32812,4.421875 v -4.117188 l -5.32031,0.230469 v 26.88672 h 5.64062 z m 0,0"
     id="path18" />
  <path
     fill-rule="nonzero"
     fill="#000000"
     fill-opacity="1"
     d="m 315.23047,45.996094 c -3.42969,-1.132813 -5.5,-1.816407 -5.5,-4.488282 0,-2.207031 2.05859,-3.578125 5.36719,-3.578125 2.58984,0 5.39843,0.929688 7.03125,1.855469 l 0.375,0.210938 v -3.820313 l -0.1211,-0.07422 c -1.34765,-0.839844 -4.21484,-1.820312 -7.86718,-1.820312 -6.07032,0 -9.84375,2.988281 -9.84375,7.804687 0,4.683594 3.64843,6.5625 7.58593,7.898438 l 0.77735,0.273437 c 3.29297,1.167969 5.46875,1.9375 5.46875,4.632813 0,2.585937 -1.89453,3.84375 -5.78907,3.84375 -3.11328,0 -6.32031,-1.421875 -8.11328,-2.832031 l -0.40625,-0.320313 v 4.039063 l 0.0859,0.07422 c 1.45703,1.28125 5.00391,2.582032 8.96094,2.582032 6.69531,0 10.53125,-2.863282 10.53125,-7.859376 0,-5.175781 -4.03906,-6.9375 -8.54297,-8.421874"
     id="path20" />
  <path
     fill-rule="nonzero"
     fill="#000000"
     fill-opacity="1"
     d="m 334.64063,25.515625 h -5.58985 V 30.6875 h 5.58985 z m 0,0"
     id="path22" />
  <path
     fill-rule="nonzero"
     fill="#000000"
     fill-opacity="1"
     d="m 334.64063,34.695312 -5.58985,0.113282 v 26.945312 h 5.58985 z m 0,0"
     id="path24" />
  <path
     fill-rule="nonzero"
     fill="#000000"
     fill-opacity="1"
     d="m 350.23438,62.277344 c 3.08984,0 5.73046,-0.957032 6.74218,-1.90625 l 0.082,-0.07422 v -3.792968 l -0.41406,0.347656 c -1.05469,0.886719 -2.82031,1.460938 -4.5,1.460938 -2.50781,0 -3.67187,-1.019532 -3.67187,-3.210938 V 38.453125 h 7.94922 v -3.648438 h -7.94922 v -7.214843 l -5.48047,2.367187 v 4.828125 l -3.81641,0.578125 v 3.089844 h 3.76172 v 17.695312 c 0,3.953125 2.59375,6.128907 7.29688,6.128907"
     id="path26" />
  <path
     fill-rule="nonzero"
     fill="#000000"
     fill-opacity="1"
     d="m 378.12109,22.261718 h -5.78515 l -3.72656,8.214844 h 3.69531 z m 0,0"
     id="path28" />
  <path
     fill-rule="nonzero"
     fill="#000000"
     fill-opacity="1"
     d="m 371.64844,37.457031 c 5.69531,0 6.55469,4.960937 6.63281,7.371094 h -13.75781 c 1.13672,-6.40625 4.9375,-7.371094 7.125,-7.371094 m 0,-3.175781 c -6.48047,0 -13.02344,4.34375 -13.02344,14.050781 0,8.601563 5.35547,13.945313 13.97656,13.945313 6.13672,0 9.37891,-2.09375 10.48828,-2.996094 l 0.0937,-0.07422 v -4.183594 l -0.42578,0.421875 c -1.54297,1.53125 -5.07031,3.078125 -8.83203,3.078125 -6.41015,0 -9.66015,-3.410156 -9.66015,-10.140625 v -0.273437 h 19.32031 l 0.0234,-0.226563 c 0.0547,-0.535156 0.0547,-1.652344 0.0547,-2.070312 0,-7.328125 -4.3789,-11.53125 -12.01562,-11.53125"
     id="path30" />
  <path
     fill-rule="nonzero"
     fill="#000000"
     fill-opacity="1"
     d="m 156.98828,74.652346 h 6.10938 c 5.32422,0 7.80468,2.37109 7.80468,7.46484 0,4.95313 -2.625,7.46094 -7.80468,7.46094 h -6.10938 z m 7.48438,-3.964846 h -13.60157 v 38.17969 h 6.11719 V 93.593746 h 7.27344 c 7.96484,0 12.91406,-4.39843 12.91406,-11.47656 0,-7.15625 -4.75,-11.429686 -12.70312,-11.429686"
     id="path32" />
  <path
     fill-rule="nonzero"
     fill="#000000"
     fill-opacity="1"
     d="m 188.96094,106.0586 c -1.70703,0 -4.57031,-0.54297 -4.57031,-4.16016 0,-3.492194 2.70312,-4.406254 5.08984,-5.218754 0.21094,-0.0703 0.41797,-0.14062 0.625,-0.21094 2.14453,-0.76171 3.73828,-1.61328 4.54297,-2.42578 v 8.835944 c -1.21875,2.01953 -3.28516,3.17969 -5.6875,3.17969 m 13.19531,-0.10547 c -1.30859,0 -1.97656,-0.69531 -1.97656,-2.0586 V 87.101566 c 0,-3.83985 -3.25391,-5.70703 -9.94531,-5.70703 -4.25,0 -7.8086,1.22265 -9.32032,2.35937 l -0.0977,0.0742 v 3.54687 l 0.375,-0.21484 c 2.25,-1.28125 4.86328,-1.96094 7.55859,-1.96094 4.1875,0 5.89844,0.8086 5.89844,2.79297 v 1.46875 c 0,2.04297 -2.30469,2.91016 -6.71875,4.38281 l -0.28906,0.0898 c -4.1875,1.30859 -8.51954,2.66406 -8.51954,8.281254 0,4.29297 3.31641,7.17578 8.25,7.17578 4.59766,0 6.89063,-1.83594 8.02344,-3.4961 0.41016,2.16797 2.27344,3.4961 4.96094,3.4961 1.92578,0 3.57812,-0.53906 4.42187,-1.44531 l 0.0664,-0.0703 v -2.76953 l -0.38672,0.25781 c -0.42969,0.28516 -1.33203,0.58985 -2.30078,0.58985"
     id="path34" />
  <path
     fill-rule="nonzero"
     fill="#000000"
     fill-opacity="1"
     d="m 220.76172,81.445316 c -2.76953,0 -5.54688,1.6875 -7.32813,4.42187 v -4.11719 l -5.32421,0.23047 V 108.86719 H 213.75 V 90.089846 c 1.26563,-2.98438 4.25391,-4.05078 6.64063,-4.05078 1.38671,0 2.69531,0.23828 3.25781,0.59375 l 0.38281,0.23828 v -4.55469 l -0.082,-0.0742 c -0.60547,-0.52734 -1.67578,-0.79687 -3.1875,-0.79687"
     id="path36" />
  <path
     fill-rule="nonzero"
     fill="#000000"
     fill-opacity="1"
     d="m 227.61328,77.800786 h 5.58594 v -5.17188 h -5.58594 z m 0,0"
     id="path38" />
  <path
     fill-rule="nonzero"
     fill="#000000"
     fill-opacity="1"
     d="m 227.61328,108.86719 h 5.58594 V 81.808596 l -5.58594,0.11719 z m 0,0"
     id="path40" />
  <path
     fill-rule="nonzero"
     fill="#000000"
     fill-opacity="1"
     d="m 249.88281,93.109376 c -3.42968,-1.13281 -5.5,-1.81641 -5.5,-4.48438 0,-2.21093 2.0586,-3.58203 5.36719,-3.58203 2.59375,0 5.39844,0.9336 7.03125,1.85547 l 0.375,0.21094 v -3.82031 l -0.12109,-0.0742 c -1.34375,-0.83985 -4.21485,-1.82031 -7.86719,-1.82031 -6.07031,0 -9.84375,2.99218 -9.84375,7.80468 0,4.67969 3.64844,6.5625 7.58594,7.89844 l 0.77734,0.27734 c 3.29297,1.16407 5.46875,1.9336 5.46875,4.628914 0,2.58594 -1.89453,3.84375 -5.78906,3.84375 -3.11719,0 -6.32031,-1.42188 -8.11328,-2.83203 l -0.40625,-0.32031 v 4.03906 l 0.0859,0.0742 c 1.45704,1.28125 5.00391,2.58203 8.96094,2.58203 6.69531,0 10.53125,-2.86328 10.53125,-7.85938 0,-5.171874 -4.03906,-6.937504 -8.54297,-8.421874"
     id="path42" />
  <path
     fill-rule="nonzero"
     fill="#000000"
     fill-opacity="1"
     d="m 295.85938,105.0586 c -8.82032,0 -14.75,-6.140634 -14.75,-15.281254 0,-9.28125 5.85156,-15.28125 14.90625,-15.28125 4.14062,0 7.53906,1.09765 10.39453,3.35547 l 0.40234,0.32031 v -4.79297 l -0.10937,-0.0742 c -2.15625,-1.460936 -5.37891,-3.140624 -11.21485,-3.140624 -12.35547,0 -20.65234,7.882814 -20.65234,19.613284 0,11.730474 8.08594,19.613284 20.12109,19.613284 5.1875,0 9.24219,-1.16797 12.39063,-3.56641 l 0.10156,-0.0742 v -4.95703 l -0.41016,0.33594 c -3.28515,2.68359 -6.83593,3.92969 -11.17968,3.92969"
     id="path44" />
  <path
     fill-rule="nonzero"
     fill="#000000"
     fill-opacity="1"
     d="m 313.68359,77.800786 h 5.58594 v -5.17188 h -5.58594 z m 0,0"
     id="path46" />
  <path
     fill-rule="nonzero"
     fill="#000000"
     fill-opacity="1"
     d="m 313.68359,108.86719 h 5.58594 V 81.808596 l -5.58594,0.11719 z m 0,0"
     id="path48" />
  <path
     fill-rule="nonzero"
     fill="#000000"
     fill-opacity="1"
     d="m 336.77344,105.42578 c -2.50391,0 -3.67188,-1.01953 -3.67188,-3.21093 V 85.566406 h 7.94922 v -3.64844 h -7.94922 v -7.21484 l -5.48047,2.37109 v 4.82813 l -3.8164,0.57422 v 3.08984 h 3.76172 v 17.695314 c 0,3.95313 2.59375,6.12891 7.30078,6.12891 3.08203,0 5.72265,-0.95703 6.74219,-1.90235 l 0.0781,-0.0742 v -3.79688 l -0.41016,0.34766 c -1.05859,0.88672 -2.82421,1.46093 -4.5039,1.46093"
     id="path50" />
  <path
     fill-rule="nonzero"
     fill="#000000"
     fill-opacity="1"
     d="m 356.9375,77.589846 5.8125,-8.21094 h -5.78516 l -3.72265,8.21094 z m 0,0"
     id="path52" />
  <path
     fill-rule="nonzero"
     fill="#000000"
     fill-opacity="1"
     d="m 356.27734,84.570316 c 5.69922,0 6.55469,4.96093 6.63282,7.37109 h -13.75391 c 1.13281,-6.40625 4.93359,-7.37109 7.12109,-7.37109 m 0,-3.17578 c -6.48046,0 -13.01953,4.34375 -13.01953,14.05078 0,8.601564 5.35547,13.945314 13.97266,13.945314 6.13281,0 9.38281,-2.09375 10.49219,-2.9961 l 0.0937,-0.0742 v -4.17969 l -0.42578,0.42187 c -1.54688,1.52735 -5.07422,3.07422 -8.83594,3.07422 -6.41016,0 -9.66016,-3.41015 -9.66016,-10.140624 v -0.27344 h 19.32031 l 0.0234,-0.22656 c 0.0547,-0.53516 0.0547,-1.65235 0.0547,-2.07031 0,-7.32813 -4.37891,-11.53125 -12.01563,-11.53125"
     id="path54" />
  <metadata
     id="metadata259">
    <rdf:RDF>
      <cc:Work
         rdf:about="">
        <dc:creator>
          <cc:Agent>
            <dc:title>Université Paris Cité</dc:title>
          </cc:Agent>
        </dc:creator>
        <dc:source>https://u-paris.fr/charte-graphique-et-outils/</dc:source>
      </cc:Work>
    </rdf:RDF>
  </metadata>
</svg>
