<?xml version="1.0" encoding="UTF-8" standalone="no"?>
<svg
   width="250.73047"
   height="290.17578"
   viewBox="0 0 250.73047 290.17579"
   version="1.1"
   id="svg58"
   sodipodi:docname="UPJV_blanc.svg"
   inkscape:version="1.2.1 (9c6d41e410, 2022-07-14)"
   xmlns:inkscape="http://www.inkscape.org/namespaces/inkscape"
   xmlns:sodipodi="http://sodipodi.sourceforge.net/DTD/sodipodi-0.dtd"
   xmlns="http://www.w3.org/2000/svg"
   xmlns:svg="http://www.w3.org/2000/svg"
   xmlns:rdf="http://www.w3.org/1999/02/22-rdf-syntax-ns#"
   xmlns:cc="http://creativecommons.org/ns#"
   xmlns:dc="http://purl.org/dc/elements/1.1/">
  <sodipodi:namedview
     id="namedview60"
     pagecolor="#505050"
     bordercolor="#ffffff"
     borderopacity="1"
     inkscape:showpageshadow="0"
     inkscape:pageopacity="0"
     inkscape:pagecheckerboard="1"
     inkscape:deskcolor="#505050"
     showgrid="false"
     inkscape:zoom="1.9263906"
     inkscape:cx="125.62354"
     inkscape:cy="145.86865"
     inkscape:window-width="1366"
     inkscape:window-height="739"
     inkscape:window-x="0"
     inkscape:window-y="0"
     inkscape:window-maximized="1"
     inkscape:current-layer="svg58" />
  <defs
     id="defs8">
    <clipPath
       id="clip-0">
      <path
         clip-rule="nonzero"
         d="m 227,7 h 23.73047 V 37 H 227 Z m 0,0"
         id="path2" />
    </clipPath>
    <clipPath
       id="clip-1">
      <path
         clip-rule="nonzero"
         d="M 0,43 H 250.73047 V 290.17969 H 0 Z m 0,0"
         id="path5" />
    </clipPath>
  </defs>
  <path
     fill-rule="nonzero"
     fill="#ffffff"
     fill-opacity="1"
     d="m 236.26953,0 h 6.15234 v 0.46874975 l -5.78125,5.40234395 h -4.4375 L 236.26953,0"
     id="path10" />
  <path
     fill-rule="nonzero"
     fill="#ffffff"
     fill-opacity="1"
     d="m 228.35937,170.28125 c 0.39063,-0.65235 0.72657,-1.20704 0.80079,-1.73438 0.0898,-0.59766 0.21093,-1.41406 0.62109,-2.05078 0.25,-0.39063 0.5,-0.92578 0.75391,-1.44922 0.19531,-0.40625 0.48437,-1.02734 0.60937,-1.17187 0,0 0.25391,-0.13672 0.50781,-0.33204 0.16797,-0.14062 0.4961,-0.40234 0.69532,-0.47265 0.33984,0.19922 0.88281,0.89844 0.89062,1.18359 0,0.55469 -0.64062,1.82422 -0.89844,2.17578 -0.23828,0.32422 -0.36718,0.71094 -0.49218,1.07422 -0.0547,0.16406 -0.14844,0.44531 -0.19922,0.52344 -0.10157,0.11719 -0.21094,0.23047 -0.30469,0.34375 -0.25391,0.26953 -0.5,0.54687 -0.75391,0.875 -0.15625,0.20312 -0.30468,0.47266 -0.46875,0.78125 -0.17968,0.33594 -0.625,1.14062 -0.875,1.29297 -0.62109,0.35937 -1.09375,0.48437 -1.35937,0.5039 -0.0664,-0.0547 -0.16016,-0.17578 -0.16016,-0.33593 0.0469,-0.23438 0.41016,-0.83985 0.63281,-1.20703"
     id="path12" />
  <path
     fill-rule="nonzero"
     fill="#ffffff"
     fill-opacity="1"
     d="M 0,7.4648437 H 11.476562 V 12.65625 H 8.847656 v 11.867188 c 0,1.082031 0.128906,2 0.375,2.753906 0.242188,0.757812 0.589844,1.371094 1.019532,1.847656 0.449218,0.476563 0.972656,0.835938 1.578124,1.042969 0.597657,0.226563 1.261719,0.335937 1.976563,0.335937 0.738281,0 1.417969,-0.08984 2.023437,-0.28125 0.609376,-0.191406 1.136719,-0.511718 1.5625,-0.972656 0.441407,-0.457031 0.773438,-1.074218 1.007813,-1.839844 0.230469,-0.769531 0.34375,-1.726562 0.34375,-2.886718 V 12.65625 H 15.699219 V 7.4648437 H 27.179688 V 12.65625 h -2.289063 v 11.132813 c 0,2.011719 -0.292969,3.796875 -0.867187,5.375 -0.582032,1.558593 -1.375,2.882812 -2.386719,3.964843 -1.015625,1.078126 -2.203125,1.902344 -3.566407,2.472657 -1.367187,0.5625 -2.820312,0.847656 -4.390624,0.847656 -1.550782,0 -2.988282,-0.277344 -4.34375,-0.835937 -1.34375,-0.5625 -2.519532,-1.375 -3.519532,-2.4375 C 4.824219,32.109375 4.03125,30.816406 3.453125,29.300782 2.875,27.769532 2.585938,26.054688 2.585938,24.128906 V 12.65625 H 0 V 7.4648437"
     id="path14" />
  <path
     fill-rule="nonzero"
     fill="#ffffff"
     fill-opacity="1"
     d="m 48.703125,7.4648437 h 10.875 V 12.65625 H 57.246094 V 36.070313 H 50.988281 L 39.078125,17.574219 v 13.328125 h 2.398437 v 5.167969 H 30.621094 v -5.167969 h 2.367187 V 12.65625 H 30.667969 V 7.4648437 h 8.636719 L 51.132812,26.207032 V 12.65625 H 48.703125 V 7.4648437"
     id="path16" />
  <path
     fill-rule="nonzero"
     fill="#ffffff"
     fill-opacity="1"
     d="m 62.667969,7.4648437 h 12.25 v 5.1718753 h -3.019531 v 18.265625 h 3.019531 v 5.167969 h -12.25 v -5.167969 h 2.964843 V 12.636719 H 62.667969 V 7.4648437"
     id="path18" />
  <path
     fill-rule="nonzero"
     fill="#ffffff"
     fill-opacity="1"
     d="M 92.050781,7.4648437 H 104.30078 V 12.65625 H 101.75 L 94.105469,36.070313 H 86.367188 L 78.949219,12.65625 H 76.203125 V 7.4648437 H 88.464844 V 12.65625 h -3.054688 l 4.972656,16.222656 4.96875,-16.222656 H 92.050781 V 7.4648437"
     id="path20" />
  <path
     fill-rule="nonzero"
     fill="#ffffff"
     fill-opacity="1"
     d="m 106.82422,7.4648437 h 22.76172 v 9.7617193 h -6.15625 v -4.058594 h -7.33594 v 5.640625 h 5.68359 v 5.46875 h -5.68359 v 6.625 h 7.33594 v -5.078125 h 6.15625 v 10.246094 h -22.76172 v -5.167969 h 3 V 13.167969 h -3 V 7.4648437"
     id="path22" />
  <path
     fill-rule="nonzero"
     fill="#ffffff"
     fill-opacity="1"
     d="m 142.09375,12.65625 v 6.925782 h 3.75391 c 0.71484,0 1.35937,-0.07031 1.93359,-0.203126 0.57812,-0.128906 1.0625,-0.339843 1.46875,-0.621093 0.41406,-0.28125 0.72656,-0.636719 0.94141,-1.066407 0.22265,-0.421874 0.33593,-0.933593 0.33593,-1.527343 0,-1.109375 -0.39453,-1.96875 -1.1875,-2.585938 -0.79297,-0.613281 -1.95312,-0.921875 -3.49218,-0.921875 z m -9.22656,-5.1914063 h 15.1289 c 1.47657,0 2.78516,0.222656 3.94922,0.6601561 1.15625,0.441406 2.12891,1.027344 2.92188,1.761719 0.79687,0.7382812 1.39843,1.5937502 1.8164,2.5664062 0.42578,0.976563 0.63672,1.996094 0.63672,3.046875 0,0.972656 -0.10156,1.824219 -0.3125,2.550782 -0.20312,0.734374 -0.5039,1.375 -0.90234,1.9375 -0.39063,0.570312 -0.88672,1.066406 -1.46485,1.507812 -0.57812,0.433594 -1.23828,0.820312 -1.98046,1.175781 0.64062,0.332031 1.21093,0.828125 1.69531,1.503907 0.49609,0.671874 0.86328,1.539062 1.11328,2.605468 l 0.96484,3.722656 h 2.35938 l 0.0352,5.566407 h -8.30078 l -1.13281,-6.792969 c -0.10547,-0.808594 -0.28125,-1.503906 -0.51953,-2.085938 -0.23438,-0.582031 -0.54297,-1.0625 -0.92578,-1.433593 -0.39844,-0.375 -0.86719,-0.648438 -1.4336,-0.820313 -0.55078,-0.175781 -1.21875,-0.257812 -1.98437,-0.257812 h -2.4375 v 6.222656 h 2.625 v 5.167969 h -11.85161 v -5.167969 h 2.95703 V 12.65625 h -2.95703 V 7.4648437"
     id="path24" />
  <path
     fill-rule="nonzero"
     fill="#ffffff"
     fill-opacity="1"
     d="m 175.49609,15.523438 c -0.0625,-0.4375 -0.22265,-0.855469 -0.46093,-1.25 -0.25,-0.386719 -0.56641,-0.726563 -0.95313,-1.003906 -0.375,-0.285157 -0.8125,-0.507813 -1.29297,-0.667969 -0.48828,-0.167969 -1,-0.246094 -1.52734,-0.246094 -0.48047,0 -0.92188,0.05078 -1.33594,0.148437 -0.41797,0.09766 -0.77344,0.257813 -1.08203,0.464844 -0.30859,0.203125 -0.55859,0.46875 -0.74219,0.796875 -0.17969,0.332031 -0.27344,0.722657 -0.27344,1.171875 0,0.5625 0.1211,1.015625 0.3711,1.347656 0.24219,0.335938 0.5625,0.609376 0.94531,0.820313 0.38281,0.21875 0.80469,0.386719 1.26172,0.511719 0.47656,0.121094 0.92578,0.265625 1.36328,0.410156 l 5.19531,1.738281 c 0.71875,0.25 1.39063,0.597657 2.01563,1.039063 0.63281,0.445312 1.17578,0.976562 1.63672,1.613281 0.46093,0.617187 0.82422,1.34375 1.08593,2.164063 0.25782,0.820312 0.39063,1.726562 0.39063,2.757812 0,1.378906 -0.25,2.644531 -0.76563,3.792969 -0.5039,1.144531 -1.22265,2.121093 -2.13671,2.9375 -0.91797,0.820312 -2.01563,1.457031 -3.30469,1.90625 -1.28125,0.453125 -2.70313,0.675781 -4.26172,0.675781 -1.09375,0 -2.13281,-0.113281 -3.10156,-0.363281 -0.98047,-0.246094 -1.8711,-0.601563 -2.67578,-1.066407 -0.8086,-0.464843 -1.51172,-1.023437 -2.10938,-1.664062 -0.59766,-0.652344 -1.08594,-1.390625 -1.41797,-2.199219 h -1.94922 v -5.683593 h 6.83594 v 1.167968 c 0,0.566406 0.0859,1.089844 0.26953,1.566406 0.1875,0.480469 0.46485,0.894532 0.83203,1.246094 0.35547,0.347656 0.81641,0.625 1.3711,0.820313 0.55078,0.195312 1.20312,0.292969 1.94531,0.292969 1.13281,0 1.99609,-0.265626 2.58594,-0.78125 0.58984,-0.523438 0.89062,-1.253907 0.89062,-2.179688 0,-0.480469 -0.11328,-0.886719 -0.3164,-1.199219 -0.20704,-0.320312 -0.47657,-0.59375 -0.80079,-0.808593 -0.32812,-0.226563 -0.69921,-0.40625 -1.09375,-0.558594 -0.40625,-0.15625 -0.79687,-0.289063 -1.1914,-0.410156 l -4.32031,-1.402344 c -0.8125,-0.253906 -1.60938,-0.605469 -2.36719,-1.054688 -0.76563,-0.457031 -1.44141,-1.019531 -2.01953,-1.703125 -0.58203,-0.683593 -1.05078,-1.476562 -1.40235,-2.386719 -0.33984,-0.910156 -0.51172,-1.953124 -0.51172,-3.125 0,-1.355468 0.25,-2.566406 0.75,-3.625 0.50782,-1.066406 1.21094,-1.9609372 2.11719,-2.6875002 0.91016,-0.734374 1.98438,-1.289062 3.22656,-1.664062 1.24219,-0.378906 2.60157,-0.570312 4.08985,-0.570312 1.17578,0 2.2539,0.140624 3.25,0.402343 0.99219,0.273438 1.8789,0.636719 2.66797,1.089844 0.78906,0.449219 1.45703,0.976563 2.0039,1.5625 0.55078,0.5742192 0.96485,1.1875002 1.25,1.8164062 h 1.88672 v 5.699219 h -6.82422 v -1.660156"
     id="path26" />
  <path
     fill-rule="nonzero"
     fill="#ffffff"
     fill-opacity="1"
     d="m 185.23047,7.4648437 h 12.24609 v 5.1718753 h -3.02344 v 18.265625 h 3.02344 v 5.167969 h -12.24609 v -5.167969 h 2.95703 V 12.636719 h -2.95703 V 7.4648437"
     id="path28" />
  <path
     fill-rule="nonzero"
     fill="#ffffff"
     fill-opacity="1"
     d="m 205.42578,30.902344 h 2.95703 v -18.4375 h -3.47656 v 3.699219 h -6.14453 V 7.4648437 h 26.01953 v 8.6992193 h -6.19141 v -3.699219 h -3.9414 v 18.4375 h 3.01953 v 5.167969 h -12.24219 v -5.167969"
     id="path30" />
  <g
     clip-path="url(#clip-0)"
     id="g34"
     transform="translate(0,-0.00390625)">
    <path
       fill-rule="nonzero"
       fill="#ffffff"
       fill-opacity="1"
       d="m 227.50391,7.46875 h 22.75781 v 9.761719 h -6.15235 v -4.058594 h -7.33984 V 18.8125 h 5.67578 v 5.46875 h -5.67578 v 6.625 h 7.33984 v -5.078125 h 6.15235 V 36.074219 H 227.50391 V 30.90625 H 230.5 V 13.171875 h -2.99609 V 7.46875"
       id="path32" />
  </g>
  <path
     fill-rule="nonzero"
     fill="#ffffff"
     fill-opacity="1"
     d="m 27.132812,55.136719 c -0.109374,-0.367187 -0.28125,-0.695313 -0.507812,-0.96875 -0.226562,-0.273437 -0.523438,-0.488281 -0.882812,-0.636719 -0.351563,-0.152344 -0.789063,-0.226562 -1.3125,-0.226562 -0.5,0 -0.929688,0.07031 -1.300782,0.207031 -0.367187,0.140625 -0.683594,0.339844 -0.933594,0.601563 -0.265624,0.265624 -0.472656,0.585937 -0.625,0.960937 -0.160156,0.382813 -0.273437,0.8125 -0.34375,1.28125 h 6.113282 c -0.01953,-0.4375 -0.08984,-0.84375 -0.207032,-1.21875"
     id="path36" />
  <path
     fill-rule="nonzero"
     fill="#ffffff"
     fill-opacity="1"
     d="m 124.84766,61.15625 c -0.58594,0 -1.14453,0.109375 -1.65625,0.324219 -0.50391,0.214844 -0.95313,0.53125 -1.33594,0.941406 -0.38281,0.417969 -0.69531,0.9375 -0.92188,1.554688 -0.22656,0.621093 -0.34375,1.355469 -0.34375,2.179687 0,0.914063 0.11329,1.726563 0.33985,2.40625 0.21875,0.664063 0.51953,1.226563 0.90234,1.660156 0.37891,0.4375 0.81641,0.753907 1.33985,0.972657 1.16796,0.484375 2.74609,0.40625 3.64843,0.01172 0.41797,-0.179688 0.81641,-0.449219 1.1836,-0.792969 v -8.371095 c -0.38282,-0.273437 -0.81641,-0.484375 -1.28907,-0.621094 -0.60546,-0.175781 -1.23437,-0.265625 -1.86718,-0.265625"
     id="path38" />
  <path
     fill-rule="nonzero"
     fill="#ffffff"
     fill-opacity="1"
     d="m 11.628906,62.058594 c 0.628906,0 1.160156,-0.09375 1.589844,-0.28125 0.414062,-0.1875 0.808594,-0.464844 1.171875,-0.839844 v -6.609375 c -0.382813,-0.320312 -0.824219,-0.550781 -1.308594,-0.6875 -0.496093,-0.152343 -1.007812,-0.222656 -1.527343,-0.222656 -0.5,0 -0.964844,0.09375 -1.410157,0.277344 -0.441406,0.183593 -0.824219,0.453125 -1.160156,0.816406 -0.324219,0.351563 -0.589844,0.789063 -0.773437,1.308594 -0.195313,0.515625 -0.292969,1.113281 -0.292969,1.78125 0,0.730469 0.09375,1.371093 0.277343,1.921875 0.179688,0.558594 0.441407,1.023437 0.761719,1.40625 0.332031,0.371094 0.722657,0.652344 1.171875,0.84375 0.460938,0.191406 0.957032,0.285156 1.5,0.285156"
     id="path40" />
  <path
     fill-rule="nonzero"
     fill="#ffffff"
     fill-opacity="1"
     d="m 70.847656,151.39843 c -0.992187,0 -1.703125,1.33594 -1.941406,1.86719 -0.230469,0.53125 -0.230469,2.09375 -0.230469,2.86328 0,0.75391 -0.707031,1.91797 -0.765625,2.62891 -0.0625,0.70312 0.230469,1.57422 0.882813,1.57422 0.644531,0 0.988281,-0.52735 0.988281,-0.94532 0,-0.40234 0.410156,-1.80859 0.640625,-2.14062 0.238281,-0.35547 0.707031,-3.22656 1,-4.09766 0.292969,-0.88281 0.234375,-1.75 -0.574219,-1.75"
     id="path42" />
  <path
     fill-rule="nonzero"
     fill="#ffffff"
     fill-opacity="1"
     d="m 85.371094,169.53515 c -0.921875,0 -1.515625,1.45313 -2.042969,2.11328 -0.53125,0.66407 -0.660156,0.9375 -0.53125,1.92969 0.136719,0.98047 0.792969,0.65234 1.453125,0.51953 0.667969,-0.13281 1.71875,-2.63672 1.71875,-3.37109 0,-0.73438 0.0625,-1.19141 -0.597656,-1.19141"
     id="path44" />
  <path
     fill-rule="nonzero"
     fill="#ffffff"
     fill-opacity="1"
     d="m 156.59766,61.929688 c -0.24219,-0.289063 -0.55079,-0.507813 -0.9375,-0.675782 -0.77344,-0.328124 -2.17579,-0.34375 -3.04297,-0.01172 -0.41407,0.15625 -0.75,0.371094 -1.03516,0.660156 -0.28516,0.292969 -0.51953,0.65625 -0.69531,1.089844 -0.10156,0.242187 -0.1875,0.503906 -0.26172,0.78125 h 6.70312 c -0.043,-0.269532 -0.10156,-0.527344 -0.17578,-0.769532 -0.12109,-0.414062 -0.30859,-0.777343 -0.55468,-1.074218"
     id="path46" />
  <path
     fill-rule="nonzero"
     fill="#ffffff"
     fill-opacity="1"
     d="m 89.1875,71.582032 c 0.59375,0.160156 1.363281,0.195312 2.101562,0.01562 0.335938,-0.08203 0.660157,-0.195312 0.953126,-0.335937 0.300781,-0.140625 0.582031,-0.304687 0.835937,-0.488281 0.167969,-0.125 0.316406,-0.25 0.445313,-0.378906 l 0.01172,-2.664063 h -2.65625 c -0.496094,0 -0.949218,0.05469 -1.347656,0.164063 -0.378906,0.101562 -0.707031,0.25 -0.976562,0.4375 -0.25,0.179687 -0.433594,0.386718 -0.570313,0.644531 -0.136719,0.253906 -0.199219,0.542969 -0.199219,0.886719 0,0.316406 0.05469,0.585937 0.160156,0.804687 0.109376,0.21875 0.257813,0.394531 0.453126,0.542969 0.214843,0.15625 0.480468,0.28125 0.789062,0.371094"
     id="path48" />
  <path
     fill-rule="nonzero"
     fill="#ffffff"
     fill-opacity="1"
     d="m 163.90234,169.58984 c 0.0937,-0.58984 0.17578,-1.08984 0.23047,-1.38281 0.0586,-0.32422 0.0625,-0.54297 0.0508,-0.71094 -1.04297,0.29297 -1.30859,2.01953 -1.30859,2.02734 -0.0547,0.41016 -0.22656,0.98438 -0.49609,1.88672 -0.23438,0.76563 -0.4961,1.63281 -0.57813,2.1836 -0.0352,0.20703 -0.0781,0.42578 -0.125,0.65234 -0.0703,0.34375 -0.19922,0.96094 -0.20703,1.33984 0.60156,-0.25781 1.44531,-1.4414 1.71875,-2.19922 0.16406,-0.41406 0.53906,-2.69921 0.71484,-3.79687"
     id="path50" />
  <g
     clip-path="url(#clip-1)"
     id="g54"
     transform="translate(0,-0.00390625)">
    <path
       fill-rule="nonzero"
       fill="#ffffff"
       fill-opacity="1"
       d="m 217.06641,185.75 c -0.14063,0.19531 -0.33594,0.46484 -0.40625,0.58594 -0.0742,1.13281 -0.82422,3.74218 -2.92579,3.74218 -2.09375,0 -3.69921,-2.47656 -3.77343,-3.82031 -0.008,-0.21875 -0.0273,-0.69531 -0.0391,-1.36719 -0.043,-1.49609 -0.14062,-4.99609 -0.25781,-5.51953 -0.11719,-0.42968 -0.19531,-1.77734 -0.23828,-3.16015 -0.60156,1.21484 -1.16406,2.27343 -1.45703,2.57031 -0.41016,0.40625 -1.05859,0.69922 -1.67578,0.98047 -0.25,0.11719 -0.59766,0.27344 -0.73438,0.36328 l -0.0898,0.14062 c -0.26563,0.41797 -0.82422,1.28125 -0.99609,1.76172 -0.0625,0.17969 -0.043,0.38672 -0.008,0.74219 0.0312,0.31641 0.0703,0.70313 0.008,1.14453 -0.10938,0.84375 -0.37891,2.35547 -0.90235,3.05078 -0.52344,0.67969 -1.85156,1.44532 -2.85937,1.44532 -1.28907,0 -2.23047,-1.19532 -2.38672,-2.36329 -0.0391,-0.21875 -0.10156,-0.65625 -0.1875,-1.16406 -0.28906,-1.77734 -0.41016,-2.63672 -0.41016,-3.01953 l 0.004,-0.55859 c 0.0547,-3.25391 -0.004,-4.24219 -0.0664,-4.48828 -0.21094,-0.80079 -1.08594,-4.51563 -1.23828,-5.21875 -0.0469,-0.25 -0.082,-0.55469 -0.125,-0.8711 -0.0391,-0.29687 -0.10547,-0.79687 -0.16406,-1.05078 -0.61719,-0.44531 -1.78125,-1.40234 -1.78125,-2.78906 0,-0.88281 0.73828,-1.51953 1.45312,-2.13281 0.17969,-0.16016 0.35157,-0.30079 0.47266,-0.42188 0.0859,-0.0859 0.19531,-0.23437 0.31641,-0.38281 0.43359,-0.57813 1.17187,-1.54688 2.5039,-1.54688 0.91797,0 3.69141,0 3.69141,2.07813 0,0.34375 0.0117,0.62109 0.0234,0.89062 0.0234,0.41407 0.0352,0.8086 0.004,1.3086 -0.082,1.07812 -0.0859,2.70703 0.008,3.03906 0.22266,0.48437 0.33985,1.26562 0.47266,2.16797 0.0586,0.39453 0.11719,0.79687 0.18359,1.14844 0.0859,0.46875 0.11329,0.89453 0.13282,1.26562 0.0234,0.46094 0.0469,0.82813 0.17968,1.05469 0.10547,0.1875 0.25,0.38281 0.38282,0.57422 0.13281,0.1875 0.2539,0.37109 0.37109,0.5664 0.19141,-0.14062 0.37109,-0.28515 0.44531,-0.35156 0.51563,-0.58594 3.91797,-5.16797 4.19141,-5.97266 0.10937,-0.34765 0.21484,-0.80468 0.33594,-1.27734 0.29297,-1.22266 0.49218,-2.00781 0.82031,-2.50391 0.57422,-0.86718 1.88281,-1.80468 3.00391,-1.80468 0.58984,0 1.15625,0.26562 1.59765,0.73828 0.51953,0.55469 0.80078,1.33203 0.75391,2.0664 -0.0391,0.53907 -0.0156,2.14063 -0.008,3.10157 l 0.008,0.8789 v 0.59766 c -0.0156,3.22266 0,5.04687 0.0469,5.42578 0.0312,0.25 0.043,0.59766 0.0547,1.04688 0.0156,0.55468 0.0586,1.8164 0.19531,2.1914 0.0898,0.0977 0.29688,0.26953 0.45313,0.39453 0.76953,0.63282 1.82031,1.5 1.6875,2.66407 -0.0898,0.74609 -0.60547,1.44531 -1.07031,2.05859 z m -23.4961,-8.86719 c -0.3164,0.48828 -0.77734,1.42969 -1.00781,2.47266 -0.35156,1.71484 -2.85938,4.98828 -5.34375,4.98828 -2.62891,0 -4.76953,-1.73047 -4.76953,-3.85547 0,-0.34375 0.0156,-1.01953 0.0352,-1.87891 0.0547,-2.24218 0.1836,-8.0039 -0.0547,-9.29687 -0.0625,-0.0508 -0.10938,-0.082 -0.14453,-0.10938 0,0.008 0,0.008 0,0.008 -0.87891,1.26172 -1.98438,1.98437 -3.03907,1.98437 -1.6289,0 -2.5039,-2.28125 -2.60156,-3.5039 -0.0234,-0.28907 -0.10547,-0.57422 -0.17969,-0.85938 -0.16797,-0.62891 -0.38281,-1.41797 -0.0156,-2.32031 0.28515,-0.71094 1.40625,-3.01172 3.78125,-3.01172 0.83984,0 1.53906,0.55469 2.09765,1.00391 0.10157,0.082 0.23829,0.18359 0.33985,0.25 2.96094,-0.0195 4.38281,0.39062 4.88281,1.41015 0.58594,1.1836 1.01563,5.16406 0.92188,6.72266 -0.0352,0.52734 -0.11329,1.32812 -0.20313,2.17969 -0.12109,1.21875 -0.33203,3.26953 -0.27734,3.63671 0.16015,0.57813 0.32031,0.73438 0.38281,0.73438 0.30078,0 0.57031,-0.41797 0.64062,-0.69531 0.51563,-2.09375 1.53125,-3.25391 2.84375,-3.25391 0.79688,0 1.46094,0.38281 1.8125,1.03516 0.38672,0.71093 0.34766,1.67968 -0.10156,2.35937 z m -17.58984,3.59375 c -0.34766,1.03516 -3.5,5.39844 -5.85547,7.07422 -2.46875,1.75 -4.29297,2.53125 -5.91797,2.53125 -1.50781,0 -5.53516,-1.11328 -6.07031,-3.75 -0.16797,-0.85937 -0.36719,-1.60156 -0.53906,-2.26172 -0.17579,-0.6875 -0.32422,-1.22656 -0.3711,-1.66406 -0.082,-0.72656 -0.375,-4.03516 -0.27344,-5.39844 0.0547,-0.74609 0.6836,-6.83594 1.51172,-8.91015 0.0742,-0.19532 0.16016,-0.42969 0.26563,-0.71485 0.80078,-2.19922 2.46875,-6.77344 6.46875,-6.77344 2.5664,0 4.04687,1.50391 4.04687,4.13282 0,2.6289 -0.75781,8.93359 -2.19922,11.61328 l -0.23437,0.43359 c -1.00781,1.89844 -1.90625,3.5586 -4.01563,4.39844 0.043,0.60156 0.1875,1.44141 0.69922,2.02734 0.44141,0.5 1.08594,0.74219 1.96875,0.74219 1.54688,0 3.29688,-1.71484 3.85938,-2.49219 0.52344,-0.73047 1.95703,-2.15234 2.4375,-2.53906 l 0.10937,-0.0898 c 0.58594,-0.48438 1.39063,-1.13672 2.27344,-1.13672 0.62109,0 1.20703,0.30859 1.58203,0.8125 0.39063,0.55078 0.48828,1.26172 0.25391,1.96484 z m -19.96875,-23.92969 c -0.28906,0.45704 -0.46875,1.53125 -0.60547,2.3125 l -0.0508,0.34766 c -0.17578,0.96875 -1.07813,4.31641 -1.79688,5.76172 l -0.14843,0.29687 c -0.44532,0.8711 -0.90235,1.76172 -0.90235,2.16016 0,0.73047 -0.43359,1.89453 -0.95703,3.21875 -0.0781,0.19141 -0.14062,0.35938 -0.1875,0.48438 -0.30859,0.8125 -0.46875,1.64843 -0.46875,2.47265 0,0.66406 -0.17969,2.03906 -0.38672,3.63281 -0.1875,1.40235 -0.375,2.83985 -0.41797,3.66797 -0.0195,0.34766 -0.0391,0.98438 -0.0703,1.78516 -0.28906,8.69922 -0.52344,9.85156 -0.99219,10.41016 -0.49609,0.58593 -1.40625,1.20703 -2.46875,1.21875 -0.5664,0 -1.39453,-0.1836 -2.13672,-1.04297 l -0.16796,-0.19922 -0.0625,-0.25391 c -0.0625,-0.24609 -0.0625,-0.55078 -0.0508,-1.55078 0.004,-1.14453 0.0156,-2.87109 -0.15234,-4.11328 -0.13281,-1.02344 -0.46094,-4.14063 -0.78906,-7.15625 -0.32031,-2.96484 -0.64453,-6.03906 -0.72656,-6.58984 -0.0469,-0.3086 -0.11329,-0.6211 -0.17969,-0.95704 -0.17578,-0.91796 -0.35547,-1.85156 -0.27735,-2.71093 0.0234,-0.26953 -0.20312,-0.89453 -0.375,-1.34766 -0.25781,-0.69922 -0.52734,-1.42187 -0.52734,-2.13281 0,-0.55469 0.10938,-1.10938 0.21094,-1.64063 0.11719,-0.61718 0.23828,-1.20312 0.15625,-1.6875 l -0.0391,-0.25 c -0.19141,-1.29687 -0.59766,-3.98047 -0.59766,-5.82422 0,-0.5625 0.0117,-1.14843 0.0352,-1.72265 0.0352,-1.27735 0.0742,-2.59766 -0.0977,-3.42578 -0.30859,-1.55078 -0.37891,-5.94922 -0.37891,-7.36719 v -5.81641 c 0,-0.55859 0.043,-1.07812 0.0781,-1.58203 0.0547,-0.88281 0.11719,-1.71875 -0.0859,-2.20703 -0.55078,-1.32812 -0.64453,-3.11328 -0.21875,-4.55859 0.0937,-0.34766 0.18359,-0.79297 0.28125,-1.26172 0.28125,-1.42188 0.53125,-2.64844 1.38281,-3.14063 0.14063,-0.082 0.30078,-0.18359 0.46094,-0.28515 0.59375,-0.375 1.20703,-0.76563 1.85938,-0.76563 1.48437,0 2.00781,1.78907 2.00781,3.31641 v 0.21094 c 0,0.82421 -0.004,3.03125 0.10156,3.66796 0.17188,0.96094 0.0195,2.4961 -0.31641,3.35157 -0.15625,0.39062 -0.32031,1.45703 -0.32031,2.8789 0,0.64453 -0.0273,1.90625 -0.0625,3.23438 -0.0352,1.43359 -0.0664,2.91797 -0.0664,3.72265 0,0.77735 0.0273,2.60547 0.0625,4.37891 0.0352,1.78125 0.0664,3.61719 0.0664,4.41797 0,0.79297 0.11719,1.62891 0.21875,2.36719 0.0937,0.66015 0.17578,1.28906 0.17578,1.83593 0,0.37891 0.12891,1.42188 0.24219,2.33204 0.25781,2.05078 0.36719,3.08203 0.27344,3.6289 -0.0391,0.2461 -0.11719,0.53906 -0.19922,0.84766 -0.11719,0.44922 -0.38672,1.48047 -0.28125,1.78125 0.42578,0.86328 1.09375,3.23437 1.14062,4.17578 0.0273,-0.10156 0.0586,-0.21484 0.0781,-0.27344 0.0664,-0.24609 0.125,-0.45312 0.17969,-0.60937 0.29687,-0.92188 0.53515,-2.36719 0.46484,-2.73828 -0.64062,-1.0625 -0.0469,-2.5 0.91797,-3.27735 0.42187,-0.40625 1.10547,-2.70703 1.32812,-3.45703 0,0 0.0312,-0.0937 0.0352,-0.11328 0.39063,-1.30469 1.20313,-4.00781 2.28516,-6.30078 0.41015,-0.875 0.78515,-1.84375 1.11328,-2.70313 0.6289,-1.63672 1.0039,-2.58593 1.51953,-3.08593 0.21094,-0.21875 0.65625,-1.22657 0.89844,-1.77344 0.38281,-0.85938 0.63281,-1.39844 0.91406,-1.73047 0.28125,-0.34766 1.14453,-2.28516 1.51562,-3.27734 0.3125,-0.81641 1.98438,-4.14454 2.48047,-5.0586 0.2461,-0.44922 0.6875,-1.11719 1.14453,-1.82422 0.4336,-0.66797 1.08594,-1.67578 1.19141,-1.93359 0.008,-0.0273 0.82031,-2.32031 1.875,-3.36719 0.23047,-0.23047 0.47266,-0.87109 0.64453,-1.33984 0.23047,-0.62109 0.4336,-1.15625 0.77735,-1.50781 0.11718,-0.13282 0.47265,-0.70703 0.72656,-1.13282 0.76953,-1.25781 1.35547,-2.1875 1.92187,-2.67968 0.38282,-0.34766 0.69922,-0.90235 1.00782,-1.42969 0.20312,-0.36328 0.39843,-0.70313 0.63281,-1.01563 0.21094,-0.28515 0.51953,-0.65625 0.84765,-1.05468 0.48829,-0.60157 1.10157,-1.33985 1.34375,-1.72266 0.4336,-0.71094 1.14063,-1.87891 1.50391,-2.49219 0.26172,-0.45312 0.98047,-1.58203 1.92188,-2.41797 0.19531,-0.16796 0.45312,-0.70703 0.65625,-1.14453 0.29687,-0.6289 0.63281,-1.33593 1.13281,-1.88672 0.2539,-0.28125 0.55078,-0.59765 0.84375,-0.89062 0.39062,-0.40625 1.04687,-1.08203 1.17187,-1.31641 0.16797,-0.71093 0.73438,-1.99609 1.98438,-2.9375 1.04297,-0.79687 1.67578,-1.55468 2.12109,-2.1289 0.25,-0.33985 0.79688,-1.01563 1.37891,-1.74219 0.64062,-0.804689 1.375,-1.710939 1.64844,-2.085939 3.01171,-4.070312 4.04687,-4.5 4.38671,-4.644531 0.85938,-0.363281 2.51563,-1.65625 3.0586,-2.191406 0.63672,-0.636719 1.99219,-1.613282 2.92187,-2.015625 0.42188,-0.191407 0.88672,-0.292969 1.32813,-0.382813 0.39453,-0.08594 0.92578,-0.195312 1.08203,-0.339844 0.98047,-0.839843 2.08984,-1.25 3.39844,-1.25 1.42968,0 7.47656,2.792969 7.78515,4.769532 0.008,0.07031 0.90625,6.875 -1.55859,7.648436 -1.67188,0.51563 -3.80469,0.36328 -4.53125,-1.214842 -0.0469,-0.105469 -0.0937,-0.207032 -0.13672,-0.304688 -0.33984,-0.804688 -0.58594,-1.378906 -2.63281,-1.378906 -2.42188,0 -2.89063,0.339844 -4.42578,1.476562 0,0 -0.48438,0.363282 -0.49219,0.363282 -1.61328,1.179692 -4.10547,3.062502 -7.05078,5.820312 -2.63672,2.46875 -3.6211,3.125 -4.21094,3.51563 0,0 -0.125,0.082 -0.12891,0.082 -0.35937,0.23828 -0.49609,0.42968 -0.51953,0.48437 0.0859,1.01172 -0.57031,2.35156 -1.29297,3.0586 -0.16015,0.16406 -0.28515,0.40234 -0.42968,0.68359 -0.23047,0.46094 -0.52344,1.03516 -1.10547,1.46484 -0.4961,0.375 -1.21875,1.01953 -1.85547,1.58594 0,0 -0.67969,0.60547 -0.67578,0.59766 -0.64453,0.57422 -1.01953,1.42578 -1.21094,1.8789 -0.13281,0.47657 -0.46875,0.77735 -0.64062,0.91797 -0.0117,0.008 -0.0234,0.0234 -0.0391,0.0352 -0.0234,0.10547 -0.0508,0.26953 -0.0703,0.40625 -0.0664,0.46875 -0.15234,1 -0.37891,1.44531 -0.35937,0.71875 -1.03515,1.46484 -1.54296,1.87891 -0.3711,0.29687 -0.63282,0.59375 -0.69922,0.71875 -0.12891,0.84375 -0.94532,2.03125 -2.06641,2.19922 -0.24219,0.043 -0.82031,0.41015 -0.94531,0.63671 -0.0117,0.78907 -0.11719,1.76953 -0.78906,2.56641 -0.14063,0.16406 -0.38672,0.52344 -0.61329,0.86719 -0.58593,0.85156 -0.96484,1.39843 -1.33593,1.69922 -0.40625,0.32031 -0.82422,0.67578 -1.08203,1.125 -0.17188,0.29687 -0.42969,0.64453 -0.71094,1.00781 -0.25,0.33203 -0.72266,0.94922 -0.78906,1.16406 -0.0312,0.10938 -0.0703,0.26953 -0.10547,0.4375 -0.14844,0.6875 -0.34766,1.62109 -0.98047,2.42578 -0.41797,0.54688 -0.83985,0.83203 -1.10938,1.01172 -0.0742,0.0547 -0.18359,0.125 -0.21093,0.16016 -0.0586,0.12109 -0.16407,0.35156 -0.28125,0.625 -0.70704,1.57812 -1.08594,2.35156 -1.4336,2.69531 -0.23828,0.23828 -0.69922,0.90625 -1.0039,1.75781 -0.22266,0.58985 -0.55079,1.17188 -0.83985,1.67578 -0.19531,0.33203 -0.42969,0.7461 -0.47656,0.92578 -0.19141,0.66797 -0.39453,1.30079 -1.00781,2.3125 -0.19922,0.33204 -0.4375,0.6836 -0.67188,1.01563 -0.41797,0.60156 -0.84765,1.22656 -1.02734,1.75 -0.21875,0.60156 -0.48828,1.04687 -0.67578,1.375 -0.0664,0.10937 -0.15625,0.26562 -0.17969,0.31641 0,0 0.0273,-0.0664 0.0273,-0.17188 0,0.61328 -0.41406,1.48047 -1.03906,2.01563 -0.004,0.32031 -0.0273,0.84375 -0.38281,1.41796 z M 135.88281,61.671875 v -4.050781 h 6.625 v 13.402344 h 2.41797 v 4.046874 h -9.01172 v -4.046874 h 2.29688 v -9.351563 z m -1.2539,13.398437 h -6.625 v -0.574218 c -0.26563,0.164062 -0.54297,0.308594 -0.83594,0.433594 -0.76953,0.332031 -1.64453,0.5 -2.60156,0.5 -1.16797,0 -2.27344,-0.207032 -3.28907,-0.617188 -1.02343,-0.414062 -1.92578,-1.027344 -2.67968,-1.828125 -0.7461,-0.789063 -1.33985,-1.773437 -1.75782,-2.917969 -0.41406,-1.132812 -0.625,-2.4375 -0.625,-3.875 0,-1.316406 0.20313,-2.535156 0.59766,-3.625 0.40625,-1.105468 0.98828,-2.0625 1.73438,-2.84375 0.74609,-0.789062 1.65234,-1.40625 2.69921,-1.839844 1.04297,-0.429687 2.21094,-0.648437 3.47657,-0.648437 0.83203,0 1.60156,0.09375 2.30078,0.277344 0.33203,0.08984 0.66015,0.207031 0.98047,0.355469 v -4.261719 h -2.1875 v -4.050781 h 6.45312 v 21.46875 h 2.35938 z M 114.38672,62.398438 h -4.32813 v -0.878907 c -0.043,0.01172 -0.082,0.02734 -0.125,0.03906 -0.27734,0.101562 -0.53906,0.257812 -0.78906,0.46875 -0.24219,0.207031 -0.46484,0.484375 -0.65625,0.820312 -0.19531,0.339844 -0.33984,0.753906 -0.42578,1.234375 l 0.008,6.941407 h 2.73438 v 4.046874 h -9.35547 v -4.046874 h 2.21875 l 0.0156,-9.351563 h -2.23437 v -4.050781 h 6.51562 v 0.933594 c 0.0977,-0.08594 0.19532,-0.167969 0.30079,-0.246094 0.33984,-0.253906 0.71875,-0.453125 1.13281,-0.59375 0.41797,-0.144532 0.87109,-0.21875 1.34765,-0.21875 h 1.52344 c 0.48438,0 0.96875,0.01172 1.45703,0.03125 l 0.66016,0.03125 z m -5.66797,120.347652 c -0.18359,0.61328 -0.37109,1.78125 -0.35937,2.03516 0.0703,0.44922 -0.0312,0.94922 -0.14844,1.5 -0.0508,0.23437 -0.0937,0.47656 -0.11719,0.64453 -0.0898,0.82031 -0.57422,2.58203 -1.78516,3.42578 -0.9414,0.64844 -1.67968,1.05469 -2.48046,1.05469 -1.31641,0 -1.86719,-1.66406 -1.86719,-2.55078 0,-0.4961 0.23047,-0.99219 0.47265,-1.51563 0.10938,-0.23437 0.28516,-0.61328 0.3086,-0.7539 -0.004,-0.20703 -0.0703,-0.8086 -0.13672,-1.35157 -0.11719,-0.97265 -0.25,-2.08203 -0.25,-2.80078 0,-0.97265 -0.22266,-1.70312 -0.33594,-1.86718 -0.41406,-0.38282 -0.69922,-0.97657 -1.04297,-1.78516 -0.082,-0.1875 -0.16797,-0.37109 -0.21875,-0.48047 -0.0859,-0.16406 -0.17578,-0.35937 -0.26953,-0.56641 -0.12109,-0.2539 -0.34765,-0.74609 -0.44531,-0.87109 0.008,0 0.0391,0.043 0.10547,0.0977 -0.425784,-0.32422 -0.527346,-0.8086 -0.644534,-1.3711 -0.01563,-0.082 -0.03906,-0.20312 -0.07422,-0.3125 -0.08984,0.0391 -0.199219,0.082 -0.269532,0.11719 -0.429687,0.20313 -0.824218,0.39453 -1.28125,0.39453 -1.191406,0 -2.875,-0.83594 -2.875,-2.67187 0,-1.32813 0.945313,-1.97266 1.394532,-2.28125 0.07812,-0.0625 0.15625,-0.10938 0.1875,-0.13672 l 0.246093,-0.20703 c 0.8125,-0.65625 1.289063,-1.08985 1.429688,-1.29297 0.222656,-0.71485 1.164062,-3.32422 2.996093,-3.32422 1.62891,0 2.73047,1.35156 2.92969,2.63281 0.11719,0.72656 0.55859,2.1875 0.94531,2.90625 0.0586,0.10547 0.17969,0.31641 0.31641,0.55469 1.53906,2.60937 3.11719,5.56641 3.11328,7.75 0.004,0.0664 0.0469,0.32031 0.0742,0.50391 0.16797,1.03515 0.27734,1.88671 0.082,2.52343 z m -15.773438,1.45703 c -0.09375,0.0586 -0.21875,0.16016 -0.359374,0.26563 -1,0.76562 -3.089844,2.36328 -6.675782,2.36328 -4.082031,0 -5.984375,-3.20703 -5.984375,-5.38281 0,-0.33203 0.0078,-0.62891 0.0078,-0.89844 0.01172,-0.24219 0.01563,-0.51562 0.01172,-0.73437 -0.691406,-0.25391 -2.078124,-0.86719 -2.078124,-2.39454 0,-1.13671 0.71875,-1.68359 1.101562,-1.97265 0.03125,-0.0156 0.04687,-0.0312 0.07813,-0.0547 -0.01172,-0.0859 -0.01563,-0.16016 -0.02344,-0.25 -0.09766,-0.97656 -0.238282,-2.44141 0.257812,-3.625 0.464844,-1.15625 1.410156,-2.98437 1.710938,-3.51172 0.03125,-0.0625 0.08984,-0.21484 0.128906,-0.32812 0.160156,-0.46094 0.542968,-1.54297 1.675781,-1.54297 h 1.921875 c 0.339844,0 0.835938,-0.10938 1.3125,-0.20313 0.601562,-0.1289 1.210938,-0.2539 1.792969,-0.2539 0.84375,0 2.277343,0.42968 2.277343,3.32422 0,1.28125 -0.382812,3.7539 -1.082031,4.88281 -0.304687,0.48437 -0.605469,0.82812 -0.84375,1.09765 -0.195312,0.22657 -0.34375,0.39063 -0.410156,0.54688 -0.253906,0.56641 -1.105469,2.25 -1.628906,2.85547 l -0.08984,0.10937 c -0.06641,0.0742 -0.140625,0.15625 -0.207031,0.23828 0.01953,0.0352 0.04297,0.0664 0.06641,0.10157 0.300781,0.55078 0.613281,1.125 1.917969,1.125 1.179687,0 1.535156,-0.32422 1.851562,-0.60547 0.175781,-0.16797 0.445313,-0.35547 0.777344,-0.47266 0.04687,-0.0391 0.152344,-0.16797 0.222656,-0.25781 0.359375,-0.4375 0.96875,-1.17578 1.976563,-1.17578 0.351562,0 0.507812,-0.0352 0.703125,-0.082 0.207031,-0.0508 0.460937,-0.11328 0.828125,-0.11328 1.140625,0 1.941406,1.09765 1.941406,2.66796 0,1.5586 -2.507812,3.8125 -3.179688,4.28125 z M 75.027344,75.523438 c -1.207032,0 -2.34375,-0.234376 -3.375,-0.6875 -1.03125,-0.457032 -1.933594,-1.105469 -2.679688,-1.929688 -0.746094,-0.816406 -1.332031,-1.800781 -1.746094,-2.925781 -0.40625,-1.117188 -0.613281,-2.347657 -0.613281,-3.664063 0,-1.320312 0.21875,-2.558594 0.652344,-3.675781 0.433594,-1.125 1.035156,-2.105469 1.796875,-2.917969 0.765625,-0.8125 1.667969,-1.457031 2.6875,-1.914062 1.988281,-0.898438 4.40625,-0.914063 6.433594,-0.125 0.90625,0.351562 1.71875,0.871094 2.417968,1.550781 h 2.035157 v 4.050781 H 78.625 l -0.199219,-0.355468 c -0.371093,-0.664063 -0.824219,-1.132813 -1.378906,-1.4375 -0.984375,-0.53125 -2.421875,-0.65625 -3.585937,-0.105469 -0.496094,0.234375 -0.9375,0.578125 -1.3125,1.015625 -0.382813,0.449218 -0.6875,1.007812 -0.914063,1.664062 -0.226563,0.664063 -0.339844,1.421875 -0.339844,2.25 0,0.816406 0.113281,1.558594 0.339844,2.207032 0.222656,0.636718 0.53125,1.183593 0.917969,1.628906 0.378906,0.4375 0.820312,0.773437 1.316406,1.007812 0.488281,0.226563 1.023438,0.34375 1.589844,0.34375 0.863281,0 1.585937,-0.199218 2.210937,-0.609375 0.621094,-0.40625 1.128907,-1.023437 1.507813,-1.832031 l 0.296875,-0.636719 3.628906,1.789063 -0.289063,0.613281 c -0.335937,0.714844 -0.757812,1.371094 -1.25,1.941406 -0.496093,0.574219 -1.0625,1.070313 -1.6875,1.476563 -0.632812,0.410156 -1.328124,0.726562 -2.074218,0.945312 -0.746094,0.21875 -1.546875,0.332032 -2.375,0.332032 z m 0.488281,78.515622 c -0.171875,0.30469 -0.363281,0.59375 -0.566406,0.8711 -0.316407,0.46093 -0.636719,0.9375 -0.710938,1.3125 -0.191406,0.9375 -0.84375,1.64453 -1.273437,2.11718 -0.101563,0.10938 -0.214844,0.23438 -0.253906,0.28907 -0.121094,0.16406 -0.277344,0.63281 -0.332032,1.16796 -0.04687,0.49219 -0.265625,0.92579 -0.441406,1.26563 -0.06641,0.13281 -0.167969,0.32422 -0.191406,0.40625 0.0039,0.0898 0.03516,0.25391 0.05078,0.40625 0.101563,0.67187 0.238281,1.58594 -0.183594,2.36719 -0.109375,0.1875 -0.269531,0.57422 -0.425781,0.95312 -0.40625,0.98828 -0.703125,1.66406 -1.054688,2.05469 -0.292968,0.35547 -0.960937,2.00391 -0.960937,2.49219 0,0.55078 0.660156,3.28125 1.019531,4.55859 0.04297,0.14844 0.08203,0.32422 0.128906,0.53516 0.28125,1.21875 0.539063,1.9375 0.746094,2.17187 1.621094,0.0391 3.191406,0.66406 3.191406,2.01563 0,0.48047 -0.191406,1.26953 -1.742187,2.54687 -0.02344,0.0312 -0.06641,0.0937 -0.09766,0.14063 -0.363281,0.53515 -1.191407,1.78515 -3.214844,1.78515 -2.492187,0 -4.03125,-2.59765 -4.226563,-3.63281 -0.04297,-0.22656 -0.113281,-0.73047 -0.210937,-1.41797 -0.171875,-1.15234 -0.449219,-3.07812 -0.582031,-3.55469 -0.08594,-0.28515 -0.125,-0.58984 -0.160156,-0.88671 -0.101563,-0.86329 -0.214844,-1.41407 -0.828126,-1.85547 l 0.140626,0.082 c -0.28125,-0.14063 -0.53125,-0.35547 -0.773438,-0.5625 -0.113281,-0.0898 -0.269531,-0.20703 -0.390625,-0.30078 -0.3125,0.23828 -0.800781,0.79687 -0.914063,1.01562 -0.0078,0.0234 -0.02734,0.082 -0.03906,0.14063 -0.121094,0.48437 -0.304688,1.02343 -1.09375,1.7539 -0.707031,0.64844 -1.820312,2.04688 -2.335938,2.8711 -0.214843,0.34375 -0.503906,0.74609 -0.804687,1.17187 -0.382813,0.53125 -0.855469,1.19531 -0.988281,1.48438 -0.390625,0.91015 -0.988282,1.33984 -1.355469,1.58593 -0.04297,0.0664 -0.113281,0.21485 -0.171875,0.33204 -0.171875,0.34765 -0.410156,0.82421 -0.792969,1.27343 -0.246093,0.29297 -0.53125,0.74219 -0.832031,1.22266 -0.324219,0.51172 -0.660156,1.05078 -1.019531,1.5 -0.265625,0.32812 -1.644531,2.05469 -2.535157,2.95312 -0.828124,0.83594 -2.121093,1.71875 -3.28125,1.71875 -1.359374,0 -3.667968,-0.84765 -4.050781,-3.125 l -0.148437,-0.8789 c -0.238282,-1.39063 -0.449219,-2.58594 -0.449219,-3.73828 0,-0.33203 0.0078,-0.67188 0.01563,-0.9961 0.0078,-0.27343 0.01953,-0.61718 0.01953,-0.91015 -0.0625,0.0469 -0.109375,0.10547 -0.167969,0.15234 -0.191406,0.16406 -0.390624,0.33203 -0.5,0.44922 0,0.004 0,0.004 0,0.004 -0.07031,0.26562 -0.183593,0.69531 -0.546874,1.125 -0.132813,0.15234 -0.246094,0.26562 -0.332032,0.35937 -0.160156,0.16406 -0.246094,0.24609 -0.414062,0.55078 -0.445313,0.83594 -1.347656,1.79688 -2.09375,2.23438 -0.167969,0.10156 -0.3125,0.19922 -0.457032,0.28906 -0.363281,0.24219 -0.703124,0.46484 -1.152343,0.58984 0.04297,-0.008 0.06641,-0.0195 0.06641,-0.0195 -0.07813,0.0391 -0.261719,0.19141 -0.394531,0.30469 -0.277344,0.22656 -0.621094,0.51953 -1.023438,0.73047 -0.6875,0.375 -1.28125,0.66406 -2.148437,0.66406 -0.714844,0 -2.5,-0.42187 -3.371094,-1.22656 -0.242187,-0.22266 -1.464844,-1.39844 -1.464844,-2.60938 0,-0.14453 -0.06641,-0.46093 -0.113281,-0.71484 -0.08984,-0.42578 -0.179688,-0.85156 -0.179688,-1.26953 0,-0.12891 0.01172,-0.40235 0.01953,-0.81641 0.02344,-0.9414 0.08594,-3.64062 0.01563,-4.46094 -0.03906,-0.0586 -0.08203,-0.10546 -0.113281,-0.17187 -0.285157,-0.54297 -0.535157,-1.67969 -0.257813,-2.42188 l 0.05078,-0.1289 c 0.414063,-1.06641 0.511719,-1.45313 0.523438,-1.57813 v -0.17187 c -0.01172,-1.03516 0.01563,-2.10156 0.515625,-2.76172 0.03516,-0.043 0.07031,-0.10156 0.113281,-0.16016 0.386719,-0.54687 1.199219,-1.67578 2.683594,-1.67578 1.242187,0 2.488281,0.91406 2.488281,2.95703 0,1.02344 -0.339844,1.72266 -0.539063,2.14453 -0.01172,0.0234 -0.01953,0.043 -0.03125,0.0664 0.04688,0.41406 0.05469,1.16406 -0.378906,1.69531 -0.269531,0.32422 -0.65625,0.51563 -1.078125,0.51563 0.08203,0 0.128907,-0.0273 0.128907,-0.0273 -0.05859,0.0352 -0.199219,0.16016 -0.28125,0.23438 -0.08203,0.082 -0.175782,0.17187 -0.28125,0.25391 -0.02344,0.0156 -0.04297,0.0352 -0.06641,0.0469 0.144531,0.21875 0.394531,0.49609 0.5625,0.61719 l 0.101563,0.0742 c 0.546875,0.38672 1.683594,1.19531 1.683594,2.54687 0,0.17188 -0.01563,0.35938 -0.02734,0.55078 -0.03125,0.42188 -0.08984,1.21094 0.121094,1.45313 0.08594,0.0781 0.289062,0.1289 0.578124,0.1289 0.363282,0 1.15625,-0.37109 2.207032,-1.4375 0.04687,-0.043 0.105468,-0.14453 0.167968,-0.23828 0.164063,-0.26953 0.476563,-0.71875 1.027344,-0.91015 0.03906,-0.0547 0.113282,-0.12891 0.164063,-0.19922 0.324219,-0.40235 0.808593,-1.00781 1.621093,-1.00781 0.07813,0 0.210938,-0.0117 0.34375,-0.0312 -0.222656,-0.39844 -0.375,-0.86329 -0.375,-1.39454 0,-0.67187 0.558594,-3.39062 1.542969,-5.14843 -0.292969,-0.57813 -0.324219,-1.28125 -0.05078,-1.89453 0.667969,-1.47266 1.730469,-2.22657 3.15625,-2.22657 0.832031,0 1.59375,0.46094 1.941406,1.17578 0.34375,0.69532 0.246094,1.50782 -0.265625,2.16016 -0.03906,0.0586 -0.109375,0.125 -0.164062,0.18359 0.0625,0.10157 0.125,0.1836 0.175781,0.30469 0.703125,1.52344 0.945312,4.92969 0.921875,5.55078 -0.02734,0.66797 0.152344,1.62891 0.296875,2.39844 0.125,0.65625 0.21875,1.16797 0.21875,1.57813 0,0.1289 -0.01172,0.29687 -0.01953,0.53515 -0.152344,2.64063 0.140625,3.29297 0.300781,3.46485 1.023438,-0.0156 1.535156,-0.95313 2.09375,-2.17579 0.5,-1.08203 1.507812,-2.45703 1.84375,-2.90625 0.04687,-0.0898 0.175781,-0.39062 0.273438,-0.60937 0.351562,-0.83594 0.792968,-1.87891 1.464843,-2.48828 0.566407,-0.52735 1.578125,-1.92969 2.277344,-3.00781 l 0.199219,-0.3086 c 0.503906,-0.79687 1.082031,-1.70312 1.769531,-2.26562 0.691406,-0.57813 1.347656,-1.29688 1.511719,-1.65625 0.07031,-0.15235 0.113281,-0.35157 0.160156,-0.5586 0.113281,-0.49609 0.269531,-1.17187 0.875,-1.62109 0.5625,-0.42188 1.945312,-1.73828 2.203125,-2.21484 0.0039,-0.61329 0.07031,-1.58985 0.894531,-2.41016 0.828125,-0.83594 1.273438,-1.48047 1.320313,-1.93359 0.132812,-1.07813 0.492187,-3.30079 0.792969,-4.50782 0.0625,-0.24218 0.113281,-0.47265 0.160156,-0.69531 0.214844,-0.92969 0.402344,-1.72266 0.941406,-2.30469 0.01953,-0.0703 0.04297,-0.28515 0.05469,-0.4414 0.04687,-0.50391 0.113281,-1.19922 0.464843,-2.08203 0.269531,-0.67969 0.492188,-1.21094 0.671875,-1.63672 0.191406,-0.46094 0.328125,-0.79297 0.414063,-1.04297 0.210937,-0.65235 2.078125,-3.83594 4.242187,-3.83594 2.003906,0 4.0625,1.36328 4.0625,3.64844 0,1.72656 0.195313,3.41406 0.289063,3.72265 v -0.0117 c 0.300781,0.80468 0.292969,2.18359 -0.308594,3.2539 z M 22.335938,63.578125 c -0.6875,-0.265625 -1.269532,-0.660156 -1.757813,-1.179687 -0.492187,-0.53125 -0.878906,-1.1875 -1.152344,-1.960938 -0.28125,-0.789062 -0.410156,-1.703125 -0.410156,-2.742188 0,-0.84375 0.113281,-1.644531 0.347656,-2.390624 0.234375,-0.75 0.582031,-1.398438 1.054688,-1.960938 0.46875,-0.554688 1.046875,-1 1.738281,-1.324219 0.699219,-0.332031 1.503906,-0.492187 2.421875,-0.492187 0.886719,0 1.628906,0.136718 2.222656,0.410156 0.59375,0.265625 1.082031,0.621094 1.460938,1.066406 0.382812,0.441406 0.65625,0.957032 0.855469,1.523438 0.195312,0.570312 0.328124,1.152344 0.40625,1.738281 0.03516,0.292969 0.0625,0.585937 0.07031,0.882813 0.01953,0.296874 0.01953,0.582031 0.01953,0.863281 h -8.511719 c 0,0.335937 0.03516,0.644531 0.07813,0.921875 0.05078,0.277344 0.121093,0.539062 0.210937,0.789062 0.28125,0.761719 0.738281,1.332032 1.355469,1.71875 0.613281,0.382813 1.320312,0.574219 2.097656,0.574219 0.621094,0 1.21875,-0.08203 1.800781,-0.257813 0.578125,-0.171874 1.1875,-0.4375 1.832031,-0.800781 l 0.851563,1.445313 c -0.78125,0.53125 -1.554687,0.925781 -2.339844,1.183594 -0.78125,0.261718 -1.589843,0.390624 -2.4375,0.390624 -0.796875,0 -1.535156,-0.132812 -2.214843,-0.398437 z m 1.480468,71.085935 c 0.15625,0.4961 0.320313,1.00391 0.320313,1.53125 0,0.42969 -0.175781,1.0586 -0.535157,2.33594 -0.335937,1.23047 -0.8125,2.91406 -0.8125,3.66797 0,0.69531 0.132813,0.95703 0.257813,1.21484 0.121094,0.23828 0.28125,0.56641 0.28125,1.01953 0,0.51563 -0.210937,0.98047 -0.382813,1.35938 -0.04687,0.11328 -0.113281,0.26172 -0.144531,0.35156 0.02734,0.0781 0.06641,0.19531 0.105469,0.30078 0.144531,0.375 0.335938,0.88281 0.335938,1.48047 0,0.47656 -0.117188,0.91016 -0.234376,1.33203 -0.113281,0.39453 -0.21875,0.77735 -0.21875,1.16406 0,0.55469 -0.07031,1.39063 -0.140624,2.19922 -0.0625,0.70703 -0.128907,1.4336 -0.128907,1.82813 0,0.58203 0.199219,2.17578 0.328125,3.22656 0.05469,0.43359 0.09766,0.8125 0.121094,1.04688 0.06641,0.6289 0.296875,8.30468 0.06641,9.45312 -0.160156,0.80078 -0.332031,3.64063 -0.246094,6.10156 0.04297,1.14844 0.0078,2.94922 -0.02344,4.69141 -0.03906,2.08984 -0.07031,4.24219 0.01563,5.05859 0.1875,1.66797 0.101562,16.03907 -0.269531,19.31641 -0.152344,1.39453 -0.316407,3.80859 -0.46875,6.14062 -0.257813,3.92579 -0.382813,5.57422 -0.546875,6.12891 l -0.207032,0.65234 c -0.222656,0.71485 -0.457031,1.45313 -0.578124,2.03907 -0.105469,0.44531 -0.300782,0.89453 -0.496094,1.32812 -0.136719,0.32031 -0.371094,0.85156 -0.371094,1.03125 0,0.10547 0.0039,0.25 0.01172,0.42188 0.04297,1.32422 0.04297,2.69922 -0.527344,3.63281 -0.171875,0.28906 -0.351563,0.55469 -0.527344,0.80859 -0.285156,0.41797 -0.636719,0.92578 -0.664062,1.17578 -0.152344,1.17969 -0.699219,2.73829 -3.761719,2.73829 -2.914062,0 -4.925781,-1.83594 -5.191406,-3.61719 -0.117188,-0.73828 -0.289063,-1.78516 -0.523438,-2.25781 -0.324218,-0.63282 -0.390625,-1.71875 -0.390625,-3.26172 0,-1.00782 0.777344,-1.98438 1.730469,-2.36328 -1.125,-0.77344 -2.171875,-2.08594 -2.171875,-3.1836 0,-1.75781 1.644531,-3.23828 3.59375,-3.23828 0.832031,0 1.667969,0.36719 2.242187,0.99219 0.523438,0.57812 0.78125,1.30859 0.722657,2.07031 -0.06641,0.69922 -0.601563,3.24609 -2.019531,3.88672 0.453124,0.48828 0.761718,1.23437 0.761718,2.28125 0,0.20312 -0.0078,0.42578 -0.01563,0.65625 -0.02734,0.67187 -0.07422,1.92187 0.261719,2.26953 0.02344,0.0234 0.09766,0.10938 0.371094,0.10938 0.496094,0 1.027344,-0.5586 1.136718,-0.75391 0.01953,-0.082 0.04297,-0.27344 0.05469,-0.40625 0.05859,-0.55469 0.140625,-1.25 0.636719,-1.75 -0.05469,0.0586 -0.07422,0.0977 -0.07422,0.0977 0.109375,-0.20313 0.230469,-0.84766 0.367188,-1.91407 0,0 0.01953,-0.14062 0.01562,-0.14062 l 0.07422,-0.57031 c 0.203125,-1.53907 0.746094,-5.63672 0.820313,-7.13282 0.0078,-0.29687 0.01563,-0.60156 0.02344,-0.92578 0.03516,-1.61328 0.07422,-3.4414 1.0625,-5.5625 l 0.0039,-0.0156 c 0.07031,-0.30078 0.160156,-1.32032 0.160156,-4.44922 v -0.1875 c 0,-5.97656 -0.109375,-7.13281 -0.152344,-7.35156 -0.226562,-0.97657 -0.375,-6.20313 -0.296875,-7.39063 0.04687,-0.55078 0.160156,-1.01172 0.265625,-1.41797 0.140625,-0.55469 0.210938,-0.85937 0.128906,-1.17578 -0.304687,-1.11328 -0.832031,-5.11328 -0.925781,-7.93359 -0.09766,-2.80469 0.08203,-8.06641 0.171875,-9.6875 0.04297,-0.74219 -0.07031,-1.65625 -0.191406,-2.53125 -0.109375,-0.85157 -0.21875,-1.65625 -0.167969,-2.31641 l 0.04297,-0.54297 c 0.07813,-1.07422 0.136718,-2.08594 0.695312,-2.86328 0.09766,-0.13281 -0.01953,-0.42578 -0.136718,-0.56641 -0.738282,-0.89453 -0.660157,-3.42968 -0.476563,-4.08593 0.02734,-0.15235 0.03516,-0.71094 0.04297,-1.11719 0.01563,-1.48828 0.05859,-2.60547 0.667968,-3.17969 -0.01953,-0.1875 -0.08203,-0.47656 -0.128906,-0.68359 l -0.05078,-0.24219 c -0.21875,-0.98047 -0.300781,-4.80078 -0.0078,-6.41797 0.132813,-0.7539 0.140626,-1.71094 0.152344,-2.64844 0.01172,-0.80468 0.01953,-1.5625 0.113282,-2.15625 0.08984,-0.58984 0.09766,-1.73437 0.101562,-2.65625 0.01172,-0.9414 0.01953,-1.44921 0.07422,-1.75 0.03516,-0.20703 -0.01172,-0.73437 -0.171875,-0.93359 -0.01953,-0.0156 -0.02734,-0.0234 -0.101563,-0.0234 -0.367187,0 -0.847656,0.88672 -1.085937,1.31641 -0.167969,0.3125 -0.308594,0.57812 -0.488282,0.78906 -0.53125,0.64063 -1.511718,1.375 -2.539062,1.375 -1.351562,0 -2.246094,-1.78125 -2.246094,-2.96094 0,-0.28906 0.03125,-0.57812 0.0625,-0.85156 0.03516,-0.28906 0.09766,-0.8164 0.01563,-0.94922 0,0 0.0039,0 0.01172,0 -0.730469,-0.84375 -1.167969,-1.91406 -1.167969,-2.85546 0,-0.61329 0.234375,-1.25 0.46875,-1.8711 0.105469,-0.28906 0.238281,-0.63672 0.261719,-0.79297 0.02344,-0.1914 0.06641,-0.42578 0.113281,-0.67968 0.101563,-0.55469 0.234375,-1.30469 0.234375,-1.66016 0,-1.28516 1.152344,-3.06641 3.332032,-3.06641 1.597656,0 3.226562,1.58985 3.226562,3.15625 0,0.82032 -0.265625,1.35938 -0.4375,1.71485 -0.03516,0.0703 -0.08203,0.15625 -0.09375,0.19531 0,0.15625 0.06641,0.66406 0.695312,0.66406 0.308594,0 0.683594,-0.0352 1.070313,-0.0781 1.351563,-0.12891 3.199219,-0.32032 4.007813,1.1914 0.714843,1.34375 1.109374,3.85547 1.109374,5.07813 0,0.71093 -0.203124,1.61328 -0.386718,2.40625 -0.109375,0.46875 -0.246094,1.05468 -0.246094,1.25781 0,0.19531 0.117188,0.5625 0.222656,0.88281 z M 6.152344,60.292969 C 5.867188,59.523438 5.722656,58.632812 5.722656,57.628906 c 0,-0.914062 0.132813,-1.742187 0.410156,-2.488281 0.265626,-0.753906 0.664063,-1.394531 1.160157,-1.917969 0.507812,-0.535156 1.113281,-0.941406 1.8125,-1.234375 0.714843,-0.292969 1.496093,-0.433593 2.359375,-0.433593 0.574218,0 1.09375,0.0625 1.566406,0.183593 0.472656,0.125 0.921875,0.339844 1.359375,0.652344 V 47.867188 H 12.777344 V 45.90625 h 3.734375 v 15.777344 h 1.726562 v 1.960937 h -3.847656 v -0.96875 c -0.382813,0.386719 -0.828125,0.695313 -1.332031,0.910157 -0.5,0.214843 -1.066406,0.324218 -1.707032,0.324218 -0.796874,0 -1.539062,-0.136718 -2.226562,-0.417968 -0.691406,-0.277344 -1.285156,-0.683594 -1.792969,-1.222657 -0.5,-0.535156 -0.898437,-1.191406 -1.179687,-1.976562 z m 31.332031,10.730469 h 2.230469 v -16.78125 h -2.230469 v -4.066407 h 10.195313 c 1.121093,0 2.167968,0.148438 3.113281,0.441407 0.96875,0.300781 1.816406,0.75 2.53125,1.335937 0.726562,0.597656 1.296875,1.355469 1.695312,2.246094 0.394531,0.882812 0.597657,1.902343 0.597657,3.027343 0,0.953126 -0.199219,1.867188 -0.59375,2.71875 -0.390626,0.84375 -0.945313,1.589844 -1.65625,2.21875 -0.703126,0.621094 -1.550782,1.121094 -2.523438,1.480469 -0.964844,0.359375 -2.050781,0.539063 -3.226562,0.539063 h -3.480469 v 6.839844 h 2.359375 v 4.046874 h -9.011719 z m 18.9375,-13.402344 h 6.621094 v 13.402344 h 2.421875 v 4.046874 h -9.011719 v -4.046874 h 2.292969 v -9.351563 h -2.324219 z m 2.003906,-6.050782 c 0.148438,-0.320312 0.339844,-0.601562 0.578125,-0.84375 0.242188,-0.242187 0.53125,-0.4375 0.855469,-0.578124 0.65625,-0.289063 1.449219,-0.296876 2.117187,0.0039 0.316407,0.140625 0.601563,0.335937 0.84375,0.574218 0.238282,0.242188 0.433594,0.523438 0.574219,0.839844 0.148438,0.335938 0.222657,0.691406 0.222657,1.054688 0,0.371094 -0.07422,0.730468 -0.21875,1.066406 -0.140626,0.320312 -0.332032,0.609375 -0.5625,0.855469 -0.25,0.261719 -0.539063,0.464843 -0.859376,0.609375 -0.328124,0.144531 -0.683593,0.222656 -1.050781,0.222656 -0.375,0 -0.734375,-0.07813 -1.066406,-0.222656 -0.328125,-0.144532 -0.621094,-0.347656 -0.867187,-0.605469 -0.234376,-0.25 -0.425782,-0.535156 -0.566407,-0.859375 -0.144531,-0.335938 -0.21875,-0.695312 -0.21875,-1.066406 0,-0.363282 0.07422,-0.71875 0.21875,-1.050782 z m 25.535157,16.5 c 0.230468,-0.601562 0.542968,-1.132812 0.929687,-1.578124 0.382813,-0.441407 0.835937,-0.816407 1.347656,-1.121094 0.496094,-0.289063 1.019531,-0.523438 1.550781,-0.695313 0.527344,-0.171875 1.078126,-0.296875 1.625,-0.371093 1.382813,-0.183594 2.640626,-0.113282 3.5,-0.03516 0.21875,0.02344 0.429688,0.04687 0.632813,0.07031 l 0.0078,-0.515625 c 0,-0.46875 -0.07031,-0.882813 -0.199219,-1.21875 -0.128907,-0.320313 -0.300781,-0.578125 -0.523438,-0.78125 -0.226562,-0.210938 -0.496093,-0.359375 -0.820312,-0.464844 -0.707031,-0.226563 -1.671875,-0.199219 -2.488281,-0.07813 -0.414063,0.06641 -0.800782,0.144531 -1.164063,0.246094 -0.355469,0.101562 -0.6875,0.214844 -0.984375,0.34375 -0.28125,0.121094 -0.519531,0.246094 -0.714844,0.378906 l -0.667968,0.453125 -1.546876,-3.277344 0.503907,-0.328125 c 0.40625,-0.261718 0.855469,-0.511718 1.339843,-0.738281 0.484376,-0.222656 1,-0.417969 1.53125,-0.578125 0.523438,-0.15625 1.066407,-0.28125 1.617188,-0.375 1.582031,-0.265625 3.125,-0.152344 4.367188,0.222656 0.839843,0.25 1.566406,0.644532 2.160156,1.179688 0.59375,0.535156 1.058594,1.21875 1.375,2.039062 0.308594,0.792969 0.464844,1.746094 0.464844,2.832032 l -0.01563,7.34375 h 1.785157 v 4.046874 h -6.050781 v -0.753906 c -0.332032,0.21875 -0.675782,0.417969 -1.03125,0.59375 -0.832032,0.40625 -1.78125,0.613282 -2.824219,0.613282 -0.867188,0 -1.675781,-0.140626 -2.40625,-0.417969 -0.734375,-0.277344 -1.378907,-0.664063 -1.917969,-1.152344 -0.542969,-0.488281 -0.96875,-1.066406 -1.273438,-1.714844 -0.304687,-0.660156 -0.460937,-1.367187 -0.460937,-2.105469 0,-0.765624 0.117187,-1.457031 0.351563,-2.0625 z m 53.925782,-16.5 c 0.14453,-0.320312 0.33984,-0.601562 0.57812,-0.84375 0.24219,-0.242187 0.53125,-0.4375 0.85547,-0.578124 0.65235,-0.289063 1.44922,-0.296876 2.11719,0.0039 0.32031,0.140625 0.60547,0.335937 0.84375,0.578125 0.23828,0.238281 0.43359,0.519531 0.57422,0.835937 0.14844,0.335938 0.22265,0.691406 0.22265,1.054688 0,0.371094 -0.0742,0.730468 -0.21875,1.066406 -0.14062,0.320312 -0.33203,0.609375 -0.5625,0.855469 -0.24609,0.257812 -0.53515,0.464843 -0.85937,0.609375 -0.32813,0.144531 -0.67969,0.222656 -1.04688,0.222656 -0.3789,0 -0.73828,-0.07813 -1.07031,-0.222656 -0.33203,-0.144532 -0.625,-0.347656 -0.86719,-0.605469 -0.23437,-0.25 -0.42578,-0.539063 -0.5664,-0.859375 -0.14844,-0.335938 -0.22266,-0.695312 -0.22266,-1.066406 0,-0.363282 0.0742,-0.714844 0.22266,-1.050782 z m 8.69922,11.257813 c 0.34765,-1.101563 0.875,-2.078125 1.5625,-2.902344 0.69922,-0.835937 1.57422,-1.503906 2.60156,-1.988281 1.03125,-0.488281 2.23437,-0.734375 3.58203,-0.734375 1.30469,0 2.42188,0.207031 3.31641,0.613281 0.90625,0.40625 1.65625,0.960938 2.23047,1.640625 0.5625,0.664063 0.99609,1.4375 1.28906,2.292969 0.27734,0.816406 0.47265,1.660156 0.58203,2.507812 0.0547,0.414063 0.0898,0.832032 0.10547,1.253907 0.0156,0.414062 0.0234,0.816406 0.0234,1.207031 v 0.691406 H 150.3398 c 0.0156,0.152344 0.0352,0.300782 0.0586,0.4375 0.0625,0.335938 0.14843,0.660156 0.25781,0.960938 0.32812,0.890625 0.83594,1.542968 1.55078,1.984375 1.33984,0.828125 3.12891,0.835937 4.74609,0.359375 0.73829,-0.21875 1.52735,-0.5625 2.34375,-1.03125 l 0.58985,-0.335938 1.83984,3.109375 -0.53515,0.367188 c -1.10547,0.757812 -2.23047,1.328125 -3.35157,1.699219 -1.13281,0.371093 -2.32031,0.5625 -3.53515,0.5625 -1.16797,0 -2.26953,-0.199219 -3.27344,-0.589844 -1.01563,-0.402344 -1.90234,-1 -2.63672,-1.785156 -0.73047,-0.78125 -1.30469,-1.757813 -1.71484,-2.910157 -0.40235,-1.136719 -0.60547,-2.464843 -0.60547,-3.953125 0,-1.210937 0.17187,-2.375 0.51172,-3.457031 z M 0.378906,43.734375 V 290.17969 H 214.78906 c 0.27344,-0.71094 0.55469,-1.23047 0.79297,-1.91407 0.62109,-1.39062 1.08594,-2.66406 1.62109,-3.41406 0.47266,-0.66406 1.42969,-2.44922 1.52344,-2.83984 0.0156,-0.11719 0.0312,-0.2461 0.043,-0.39453 0.0742,-0.59375 0.16016,-1.33594 0.59766,-1.91797 0.17187,-0.20703 0.33593,-0.38672 0.47265,-0.52735 0.082,-0.0898 0.19922,-0.22265 0.22266,-0.25 0.043,-0.0937 0.10547,-0.24609 0.19531,-0.4414 0.20703,-0.45703 0.63281,-1.39453 0.72266,-1.76953 0.0352,-0.16407 0.0781,-0.42969 0.11719,-0.71094 0.14843,-1 0.27343,-1.75 0.60546,-2.26172 l 0.23047,-0.35937 c 0.48828,-0.75782 1.50391,-2.35938 1.9375,-3.14063 0.625,-1.14453 1.60547,-3.26953 1.69532,-3.67578 0.0234,-0.0937 0.5625,-2.45313 1.40625,-3.19141 0.14062,-0.1289 0.28906,-0.25781 0.45703,-0.3789 0.18359,-0.15235 0.51562,-0.42188 0.61718,-0.54297 0.15235,-0.50781 0.48047,-1.3711 0.69922,-1.875 0.50391,-1.1875 0.65625,-1.82031 0.69922,-2.15235 0.11719,-0.88281 0.625,-2.51953 1,-3.43359 0.25391,-0.625 0.78906,-1.73828 1.26172,-2.73047 l 0.46875,-0.97265 c 0.42188,-0.91016 1.41406,-3.69141 1.6875,-4.73438 l 0.20703,-0.83984 c 0.42188,-1.64063 0.73438,-2.84766 0.99219,-3.37891 0.21875,-0.42969 0.69141,-2.21094 0.78125,-2.91406 l 0.0703,-0.58594 c 0.0977,-0.77734 0.25781,-1.95703 0.25781,-2.73437 0,-1.7461 -0.16796,-5.45704 -0.48046,-6.32032 -0.17188,-0.49218 -0.50782,-1.07812 -0.79297,-1.59375 -0.42969,-0.76953 -0.78125,-1.38281 -0.82813,-1.95703 -0.0234,-0.22656 -0.3789,-0.92969 -0.54297,-1.26562 -0.17578,-0.33985 -0.32812,-0.64844 -0.42187,-0.89844 -0.0664,-0.21094 -0.11719,-0.41016 -0.16797,-0.57813 -0.0781,-0.30859 -0.12891,-0.53515 -0.33594,-0.84375 -0.19531,-0.29687 -0.67578,-1.08984 -1.23437,-2.00781 -0.73438,-1.20312 -1.64844,-2.70703 -1.91407,-3.07031 -0.40625,-0.5625 -1.08203,-1.85156 -1.73828,-3.15625 0,0 -0.14843,-0.29688 -0.12109,-0.25391 -0.0586,-0.0742 -0.25,-0.28906 -0.40234,-0.45312 -0.78907,-0.8711 -1.40235,-1.60156 -1.5,-2.39844 -0.0742,-0.61328 -0.41016,-1.46484 -0.78125,-1.99219 -0.35938,-0.5 -2.1836,-3.15625 -2.63672,-6.125 -0.0977,-0.67187 -0.28907,-1.64453 -0.50391,-2.76562 -0.61328,-3.10938 -1.44531,-7.36719 -1.44531,-10.70313 0,-4.35547 0.65625,-10.92187 1.02344,-12.11328 0.15234,-0.52734 0.33593,-0.92578 0.48828,-1.24609 0.0742,-0.16016 0.17187,-0.38672 0.1914,-0.46485 0.004,-0.61328 0.16407,-2.26953 0.64844,-3.60937 0.10938,-0.30078 0.29297,-0.86719 0.5,-1.51953 0.82813,-2.57031 1.62109,-4.95313 2.17969,-5.89063 l 0.14844,-0.26953 c 0.98046,-1.6875 3.58203,-6.16797 7.84765,-6.16797 1.39844,0 6.0625,2.17969 6.0625,4.60938 0,1.28906 -1.0625,2.94922 -2.45703,4.98828 -0.38281,0.55078 -0.73828,1.08203 -0.88281,1.36328 -0.12891,0.23828 -0.28516,0.57422 -0.44922,0.92578 -0.78906,1.65625 -1.44531,2.96875 -2.21094,3.58985 -0.375,0.32421 -0.73828,0.55859 -1.03125,0.74218 -0.16015,0.10938 -0.3789,0.25 -0.4375,0.3086 -0.35547,0.8164 -1.5,2.10547 -2.45312,2.53125 -0.16016,0.0664 -0.32422,0.13281 -0.5,0.19922 -0.57422,0.22656 -1.29297,0.5039 -1.50782,0.91015 l -0.11718,0.23438 c -0.51172,0.95703 -1.5586,2.95312 -1.5586,5.84765 0,3.20313 0.91407,6.32032 1.23047,7.03516 0.36719,0.82422 0.48828,2.13281 0.57031,3.42969 0.0352,0.58984 0.19532,1.23828 0.63672,2.68359 0.48047,1.52734 1.79297,5.32422 2.07032,5.875 0.375,0.72656 0.98828,2.20703 1.23828,2.96875 0.55468,1.64453 0.89062,2.10156 1,2.21094 0.375,0.375 2.28125,2.30859 2.70312,3.41406 0.0742,0.19922 0.14063,0.41016 0.21485,0.63672 0.21875,0.66797 0.49218,1.51172 0.95312,2.07031 0.94141,1.09766 5.52344,8.10156 5.52344,12.40625 l 0.004,1.4375 c 0.0195,6.52344 -0.0859,9.41406 -0.76953,10.42969 -0.51172,0.75781 -0.9375,1.96484 -1.19922,3.39453 -0.14843,0.80078 -0.47656,1.71484 -0.7539,2.52734 -0.17188,0.48047 -0.38281,1.07422 -0.41016,1.28125 -0.12109,0.84766 -2.0664,6.06641 -2.625,6.85547 -0.34375,0.4961 -0.91015,2.37891 -1.21484,3.39453 -0.42188,1.39844 -1.60547,4.47657 -2.38281,5.8711 -0.39454,0.70312 -0.77735,1.78515 -1.11719,2.74219 -0.25391,0.73828 -0.47656,1.36328 -0.69922,1.84375 -0.27344,0.57421 -0.61328,1 -0.87891,1.34375 -0.11718,0.14453 -0.26172,0.33593 -0.30078,0.41406 -0.0469,0.6875 -0.41797,1.40625 -0.80469,2.08203 -0.13671,0.24219 -0.33593,0.75781 -0.55468,1.38672 -0.1211,0.34765 -0.3125,0.70703 -0.51953,1.04297 -0.14063,0.25 -0.37891,0.66406 -0.40235,0.80078 -0.0664,0.78125 -0.47265,2.02734 -0.8125,2.85937 -0.16797,0.39844 -0.57422,1.48828 -0.96094,2.54688 -0.41406,1.125 -0.80078,2.19531 -0.98437,2.62109 -0.34766,0.84375 -1.17969,3.48828 -1.42969,4.1211 -0.36719,0.94531 -1.03515,2.53125 -1.57422,3.76953 h 29.17188 V 43.734375 H 0.378906"
       id="path52" />
  </g>
  <path
     fill-rule="nonzero"
     fill="#ffffff"
     fill-opacity="1"
     d="m 50.777344,58.558594 c 0.164062,-0.375 0.246094,-0.824219 0.246094,-1.335938 0,-0.964843 -0.269532,-1.683593 -0.832032,-2.199218 C 49.625,54.503906 48.648438,54.238282 47.292969,54.238282 h -3.15625 v 6.015624 h 3.542969 c 0.515624,0 0.988281,-0.07031 1.410156,-0.207031 0.398437,-0.128906 0.746094,-0.320312 1.03125,-0.570312 0.28125,-0.242188 0.496094,-0.542969 0.65625,-0.917969"
     id="path56" />
  <metadata
     id="metadata384">
    <rdf:RDF>
      <cc:Work
         rdf:about="">
        <dc:rights>
          <cc:Agent>
            <dc:title>https://personnels.u-picardie.fr/mentions-legales/</dc:title>
          </cc:Agent>
        </dc:rights>
        <dc:creator>
          <cc:Agent>
            <dc:title> UPJV</dc:title>
          </cc:Agent>
        </dc:creator>
        <dc:source>https://personnels.u-picardie.fr/communication/le-logo-de-l-upjv-422478.kjsp</dc:source>
      </cc:Work>
    </rdf:RDF>
  </metadata>
</svg>
