<?xml version="1.0" encoding="UTF-8" standalone="no"?>
<svg
   width="104.6836"
   height="124.73828"
   viewBox="0 0 104.6836 124.73828"
   version="1.1"
   id="svg187"
   sodipodi:docname="USPN_2021_logo.svg"
   inkscape:version="1.2.1 (9c6d41e410, 2022-07-14)"
   xmlns:inkscape="http://www.inkscape.org/namespaces/inkscape"
   xmlns:sodipodi="http://sodipodi.sourceforge.net/DTD/sodipodi-0.dtd"
   xmlns="http://www.w3.org/2000/svg"
   xmlns:svg="http://www.w3.org/2000/svg"
   xmlns:rdf="http://www.w3.org/1999/02/22-rdf-syntax-ns#"
   xmlns:cc="http://creativecommons.org/ns#"
   xmlns:dc="http://purl.org/dc/elements/1.1/">
  <defs
     id="defs36" />
  <sodipodi:namedview
     id="namedview189"
     pagecolor="#505050"
     bordercolor="#ffffff"
     borderopacity="1"
     inkscape:showpageshadow="0"
     inkscape:pageopacity="0"
     inkscape:pagecheckerboard="1"
     inkscape:deskcolor="#505050"
     showgrid="false"
     inkscape:zoom="2.296783"
     inkscape:cx="27.865062"
     inkscape:cy="52.246991"
     inkscape:window-width="1366"
     inkscape:window-height="739"
     inkscape:window-x="0"
     inkscape:window-y="0"
     inkscape:window-maximized="1"
     inkscape:current-layer="svg187" />
  <path
     d="m 1.499955,14.7003 v 77.37139 l 43.629,29.00925 V 47.072091 Z"
     id="path183-3"
     inkscape:label="bg"
     style="fill:#ffffff" />
  <path
     style="fill:#00a7e1"
     d="M 104.6836,0 H 19.07813 V 0.0469 L 91.875,11.69143 v 74.72656 h 12.8086 z m 0,0"
     id="path175" />
  <path
     style="fill:#001f60"
     d="m 72.714852,98.61718 12.44921,1.91797 c -0.0234,-27.91406 -0.0508,-55.83203 -0.0742,-83.75 l -67.59766,-10.62109 1.34375,0.53515 53.87891,19.79688 z m 0,0"
     id="path179" />
  <path
     style="fill:#00a7e1"
     d="M 65.449222,30.77343 10.453132,10.625 52.734382,41.04296 v 67.07422 l 12.71484,4.65625 z m 0,0"
     id="path181" />
  <path
     style="fill:#001f60"
     d="m 24.85547,68.96875 -2.66406,2.84375 -0.0508,0.0547 -0.21875,-0.28515 -2.33594,-3.05078 -6.76953,-8.84375 5.59765,0.33203 4.08204,5.10937 22.28127,-17.44533 z m 16.38281,40.05468 -2.02734,-1.5 -2.03125,1.5 0.76562,-2.4414 -2.08984,-1.44141 h 2.55859 l 0.79688,-2.53125 0.79297,2.53125 h 2.55859 l -2.08594,1.44141 z M 33.85547,90.625 34.52735,88.49218 32.69922,87.23046 h 2.23828 l 0.69531,-2.21484 0.69532,2.21484 h 2.23828 l -1.82813,1.26172 0.67188,2.13282 -1.77735,-1.3086 z m -2.71875,-19.92579 -1.52344,1.125 0.57422,-1.83203 -1.5664,-1.08203 h 1.91796 l 0.59766,-1.89844 0.59375,1.89844 h 1.91797 l -1.56641,1.08203 0.57422,1.83203 z M 25.9375,76.875 22.45703,72.82812 25.1211,69.98437 30.85156,76.93359 Z M 2.61719,88.94531 19.31641,69.73046 21.65235,72.78125 Z M 3.67578,19.76953 3.97266,18.82031 4.26953,19.76953 H 5.23047 L 4.44531,20.3125 4.73438,21.22656 3.97266,20.66406 3.21094,21.22656 3.4961,20.3125 2.71485,19.76953 Z m 6.11719,9.59765 0.39453,-1.26562 0.39844,1.26562 h 1.28125 l -1.04688,0.72266 0.38282,1.21875 -1.01563,-0.75 -1.01172,0.75 0.38282,-1.21875 -1.04688,-0.72266 z m 6.35156,9.59375 0.44922,-1.42187 0.44531,1.42187 h 1.4375 l -1.17187,0.8125 0.42969,1.3711 -1.14063,-0.84375 -1.14453,0.84375 0.42969,-1.3711 -1.17188,-0.8125 z m 7.95313,11.92188 0.49609,-1.58203 0.4961,1.58203 h 1.60156 l -1.30469,0.90234 0.47656,1.52344 -1.26953,-0.9375 -1.26953,0.9375 0.48047,-1.52344 -1.30859,-0.90234 z M 0,11.04296 v 82.69141 l 46.62891,31.00391 V 45.64062 Z m 0,0"
     id="path183" />
  <metadata
     id="metadata237">
    <rdf:RDF>
      <cc:Work
         rdf:about="">
        <dc:source>https://www.univ-paris13.fr/presse/</dc:source>
        <dc:creator>
          <cc:Agent>
            <dc:title>Université Sorbonne Paris Nord </dc:title>
          </cc:Agent>
        </dc:creator>
      </cc:Work>
    </rdf:RDF>
  </metadata>
</svg>
