<?xml version="1.0" encoding="UTF-8" standalone="no"?>
<!-- Created with Inkscape (http://www.inkscape.org/) -->

<svg
   width="512"
   height="512"
   viewBox="0 0 512 512"
   version="1.1"
   id="svg5"
   sodipodi:docname="progress.svg"
   inkscape:version="1.2.1 (9c6d41e410, 2022-07-14, custom)"
   inkscape:export-filename="icons/progress.png"
   inkscape:export-xdpi="3"
   inkscape:export-ydpi="3"
   xmlns:inkscape="http://www.inkscape.org/namespaces/inkscape"
   xmlns:sodipodi="http://sodipodi.sourceforge.net/DTD/sodipodi-0.dtd"
   xmlns="http://www.w3.org/2000/svg"
   xmlns:svg="http://www.w3.org/2000/svg"
   xmlns:rdf="http://www.w3.org/1999/02/22-rdf-syntax-ns#"
   xmlns:cc="http://creativecommons.org/ns#"
   xmlns:dc="http://purl.org/dc/elements/1.1/">
  <title
     id="title134">In progress</title>
  <sodipodi:namedview
     id="namedview7"
     pagecolor="#505050"
     bordercolor="#ffffff"
     borderopacity="1"
     inkscape:showpageshadow="0"
     inkscape:pageopacity="0"
     inkscape:pagecheckerboard="1"
     inkscape:deskcolor="#505050"
     inkscape:document-units="px"
     showgrid="false"
     inkscape:zoom="0.8042881"
     inkscape:cx="299.64387"
     inkscape:cy="273.53382"
     inkscape:window-width="1366"
     inkscape:window-height="739"
     inkscape:window-x="0"
     inkscape:window-y="0"
     inkscape:window-maximized="1"
     inkscape:current-layer="svg5" />
  <defs
     id="defs2" />
  <g
     id="g3850"
     transform="rotate(-30,256,256)"
     inkscape:label="arrows">
    <path
       id="path238-5"
       style="fill:#ee6002;fill-opacity:0.996078;stroke-width:4.47712"
       d="m 432.88741,176.88754 c -8.37328,0 -16.74732,3.2079 -23.16337,9.62394 l -46.32515,46.32515 c -12.83209,12.83209 -12.83209,33.49465 0,46.32675 8.92111,8.92109 21.62524,11.63236 32.8529,8.14924 A 144.13049,144.13049 0 0 1 256,400.13049 144.13049,144.13049 0 0 1 154.12723,357.87277 l -46.32674,46.32674 A 209.64434,209.64434 0 0 0 256,465.64434 209.64434,209.64434 0 0 0 463.56824,284.79027 c 12.43018,6.78856 28.2616,4.91919 38.80769,-5.62689 12.83209,-12.8321 12.83209,-33.49466 0,-46.32675 l -46.32514,-46.32515 c -6.41606,-6.41604 -14.79009,-9.62394 -23.16338,-9.62394 z M 46.355659,256 a 209.64434,209.64434 0 0 0 0.03519,1.4891 209.64434,209.64434 0 0 1 -0.016,-1.4891 z m 0.201531,8.48993 a 209.64434,209.64434 0 0 0 0.118361,2.65031 209.64434,209.64434 0 0 1 -0.118361,-2.65031 z m 0.718158,11.02028 a 209.64434,209.64434 0 0 0 0.03999,0.49743 209.64434,209.64434 0 0 1 -0.03999,-0.49743 z m 1.100428,9.37443 a 209.64434,209.64434 0 0 0 0.366276,2.45517 209.64434,209.64434 0 0 1 -0.366276,-2.45517 z m 1.517887,9.29766 a 209.64434,209.64434 0 0 0 0.411061,2.22644 209.64434,209.64434 0 0 1 -0.411061,-2.22644 z m 2.311219,10.96429 a 209.64434,209.64434 0 0 0 0.335886,1.30356 209.64434,209.64434 0 0 1 -0.335886,-1.30356 z m 2.304821,8.65627 a 209.64434,209.64434 0 0 0 0.742149,2.52715 209.64434,209.64434 0 0 1 -0.742149,-2.52715 z m 3.003784,9.59996 a 209.64434,209.64434 0 0 0 0.500631,1.50669 209.64434,209.64434 0 0 1 -0.500631,-1.50669 z m 3.60998,9.84627 a 209.64434,209.64434 0 0 0 0.846114,2.06171 209.64434,209.64434 0 0 1 -0.846114,-2.06171 z m 3.592386,8.47234 a 209.64434,209.64434 0 0 0 1.020455,2.26163 209.64434,209.64434 0 0 1 -1.020455,-2.26163 z m 4.927934,10.30692 a 209.64434,209.64434 0 0 0 0.129557,0.24151 209.64434,209.64434 0 0 1 -0.129557,-0.24151 z m 4.272157,7.82935 a 209.64434,209.64434 0 0 0 1.297161,2.22805 209.64434,209.64434 0 0 1 -1.297161,-2.22805 z m 4.926334,8.18444 a 209.64434,209.64434 0 0 0 1.150012,1.82818 209.64434,209.64434 0 0 1 -1.150012,-1.82818 z m 6.119532,9.16969 a 209.64434,209.64434 0 0 0 1.090831,1.4939 209.64434,209.64434 0 0 1 -1.090831,-1.4939 z m 5.41417,7.26954 a 209.64434,209.64434 0 0 0 1.610656,2.05531 209.64434,209.64434 0 0 1 -1.610656,-2.05531 z m 6.552985,8.04209 a 209.64434,209.64434 0 0 0 0.790133,0.93888 209.64434,209.64434 0 0 1 -0.790133,-0.93888 z m 6.767315,7.51266 a 209.64434,209.64434 0 0 0 1.64584,1.70342 209.64434,209.64434 0 0 1 -1.64584,-1.70342 z"
       inkscape:label="down" />
    <path
       id="path238-5-7"
       style="fill:#ee6002;fill-opacity:0.996078;stroke-width:4.47712"
       d="m 79.112587,335.11246 c 8.373285,0 16.747324,-3.2079 23.163373,-9.62394 l 46.32514,-46.32514 c 12.83209,-12.8321 12.83209,-33.49466 0,-46.32675 -8.9211,-8.9211 -21.62523,-11.63236 -32.85289,-8.14925 A 144.13049,144.13049 0 0 1 256,111.86952 144.13049,144.13049 0 0 1 357.87277,154.12723 l 46.32674,-46.32674 A 209.64434,209.64434 0 0 0 256,46.35566 209.64434,209.64434 0 0 0 48.43176,227.20973 c -12.430182,-6.78856 -28.261605,-4.91919 -38.80769,5.6269 -12.832093,12.83209 -12.832093,33.49465 0,46.32675 l 46.325143,46.32514 c 6.41605,6.41604 14.790089,9.62394 23.163374,9.62394 z M 465.64434,256 a 209.64434,209.64434 0 0 0 -0.0352,-1.4891 209.64434,209.64434 0 0 1 0.016,1.4891 z m -0.20153,-8.48993 a 209.64434,209.64434 0 0 0 -0.11836,-2.65031 209.64434,209.64434 0 0 1 0.11836,2.65031 z m -0.71816,-11.02027 a 209.64434,209.64434 0 0 0 -0.04,-0.49744 209.64434,209.64434 0 0 1 0.04,0.49744 z m -1.10043,-9.37443 a 209.64434,209.64434 0 0 0 -0.36627,-2.45517 209.64434,209.64434 0 0 1 0.36627,2.45517 z m -1.51788,-9.29766 a 209.64434,209.64434 0 0 0 -0.41107,-2.22645 209.64434,209.64434 0 0 1 0.41107,2.22645 z m -2.31123,-10.9643 a 209.64434,209.64434 0 0 0 -0.33588,-1.30356 209.64434,209.64434 0 0 1 0.33588,1.30356 z m -2.30481,-8.65627 a 209.64434,209.64434 0 0 0 -0.74215,-2.52715 209.64434,209.64434 0 0 1 0.74215,2.52715 z m -3.00379,-9.59996 a 209.64434,209.64434 0 0 0 -0.50063,-1.50668 209.64434,209.64434 0 0 1 0.50063,1.50668 z m -3.60998,-9.84627 a 209.64434,209.64434 0 0 0 -0.84612,-2.0617 209.64434,209.64434 0 0 1 0.84612,2.0617 z m -3.59238,-8.47233 a 209.64434,209.64434 0 0 0 -1.02046,-2.26164 209.64434,209.64434 0 0 1 1.02046,2.26164 z m -4.92794,-10.30692 a 209.64434,209.64434 0 0 0 -0.12955,-0.24152 209.64434,209.64434 0 0 1 0.12955,0.24152 z m -4.27216,-7.82936 a 209.64434,209.64434 0 0 0 -1.29716,-2.22804 209.64434,209.64434 0 0 1 1.29716,2.22804 z m -4.92633,-8.18443 a 209.64434,209.64434 0 0 0 -1.15001,-1.82818 209.64434,209.64434 0 0 1 1.15001,1.82818 z m -6.11953,-9.1697 a 209.64434,209.64434 0 0 0 -1.09083,-1.49389 209.64434,209.64434 0 0 1 1.09083,1.49389 z m -5.41418,-7.26954 a 209.64434,209.64434 0 0 0 -1.61065,-2.05531 209.64434,209.64434 0 0 1 1.61065,2.05531 z m -6.55298,-8.04209 a 209.64434,209.64434 0 0 0 -0.79013,-0.93888 209.64434,209.64434 0 0 1 0.79013,0.93888 z m -6.76731,-7.51266 a 209.64434,209.64434 0 0 0 -1.64585,-1.70342 209.64434,209.64434 0 0 1 1.64585,1.70342 z"
       inkscape:label="up" />
  </g>
  <metadata
     id="metadata132">
    <rdf:RDF>
      <cc:Work
         rdf:about="">
        <dc:title>In progress</dc:title>
        <dc:date>2022</dc:date>
        <dc:creator>
          <cc:Agent>
            <dc:title>Aurore Leclerc</dc:title>
          </cc:Agent>
        </dc:creator>
        <dc:rights>
          <cc:Agent>
            <dc:title>GNU GPLv3</dc:title>
          </cc:Agent>
        </dc:rights>
        <cc:license
           rdf:resource="https://www.gnu.org/licenses/gpl-3.0.html" />
      </cc:Work>
    </rdf:RDF>
  </metadata>
</svg>
