<?xml version="1.0" encoding="UTF-8" standalone="no"?>
<!-- Created with Inkscape (http://www.inkscape.org/) -->

<svg
   width="512"
   height="512"
   viewBox="0 0 512 512.00002"
   version="1.1"
   id="svg5"
   xml:space="preserve"
   inkscape:version="1.2.2 (b0a8486541, 2022-12-01)"
   sodipodi:docname="settings.svg"
   xmlns:inkscape="http://www.inkscape.org/namespaces/inkscape"
   xmlns:sodipodi="http://sodipodi.sourceforge.net/DTD/sodipodi-0.dtd"
   xmlns="http://www.w3.org/2000/svg"
   xmlns:svg="http://www.w3.org/2000/svg"
   xmlns:rdf="http://www.w3.org/1999/02/22-rdf-syntax-ns#"
   xmlns:cc="http://creativecommons.org/ns#"
   xmlns:dc="http://purl.org/dc/elements/1.1/"><title
   id="title132">Stick settings</title><sodipodi:namedview
   id="namedview7"
   pagecolor="#505050"
   bordercolor="#ffffff"
   borderopacity="1"
   inkscape:showpageshadow="0"
   inkscape:pageopacity="0"
   inkscape:pagecheckerboard="1"
   inkscape:deskcolor="#505050"
   inkscape:document-units="px"
   showgrid="false"
   inkscape:zoom="0.93943642"
   inkscape:cx="252.81115"
   inkscape:cy="278.89061"
   inkscape:window-width="1366"
   inkscape:window-height="739"
   inkscape:window-x="0"
   inkscape:window-y="0"
   inkscape:window-maximized="1"
   inkscape:current-layer="svg5" /><defs
   id="defs2" /><path
   id="rect1060"
   style="fill:none;fill-opacity:1;stroke:#e4e6e7;stroke-width:15.0151;stroke-dasharray:none;stroke-opacity:1"
   d="m 214.58458,7.5075561 1e-5,88.4374809 A 165.66163,165.66163 0 0 0 172.08222,113.51067 L 109.57489,51.003333 51.003334,109.57489 113.51066,172.08223 A 165.66163,165.66163 0 0 0 95.945017,214.58459 H 7.507555 v 82.83082 h 88.437463 a 165.66163,165.66163 0 0 0 17.565652,42.50236 l -62.507335,62.50734 58.571555,58.57155 62.50734,-62.50734 a 165.66163,165.66163 0 0 0 42.50235,17.56565 l 1e-5,88.43747 h 82.83082 v -88.43747 a 165.66163,165.66163 0 0 0 42.50235,-17.56565 l 62.50735,62.50734 58.57156,-58.57155 -62.31019,-62.31018 A 165.66163,165.66163 0 0 0 416.376,297.41541 h 88.11643 l 10e-6,-82.83082 H 416.376 A 165.66163,165.66163 0 0 0 398.68649,171.88506 L 460.99667,109.57489 402.42511,51.003343 339.91776,113.51067 A 165.66163,165.66163 0 0 0 297.41541,95.945017 V 7.5075561 Z M 256,173.16919 A 82.830815,82.830815 0 0 1 338.83081,256 82.830815,82.830815 0 0 1 256,338.83081 82.830815,82.830815 0 0 1 173.16919,256 82.830815,82.830815 0 0 1 256,173.16919 Z"
   inkscape:label="gear" />
     <metadata
   id="metadata130">
      <rdf:RDF>
        <cc:Work
   rdf:about="">
          <dc:title>Stick settings</dc:title>
          <dc:date>2022-2023</dc:date>
          <dc:creator>
          <cc:Agent>
            <dc:title>Aurore Leclerc</dc:title>
          </cc:Agent>
        </dc:creator>
        <cc:license
   rdf:resource="http://creativecommons.org/licenses/by-sa/4.0/" />
      </cc:Work>
      <cc:License
   rdf:about="http://creativecommons.org/licenses/by-sa/4.0/">
        <cc:permits
   rdf:resource="http://creativecommons.org/ns#Reproduction" />
        <cc:permits
   rdf:resource="http://creativecommons.org/ns#Distribution" />
        <cc:requires
   rdf:resource="http://creativecommons.org/ns#Notice" />
        <cc:requires
   rdf:resource="http://creativecommons.org/ns#Attribution" />
        <cc:permits
   rdf:resource="http://creativecommons.org/ns#DerivativeWorks" />
        <cc:requires
   rdf:resource="http://creativecommons.org/ns#ShareAlike" />
      </cc:License>
    </rdf:RDF>
  </metadata>
</svg>
