<?xml version="1.0" encoding="UTF-8" standalone="no"?>
<svg
   class="_4b98 iOSPWA-step2-icon"
   viewBox="55.994255 31.99 160 160"
   version="1.1"
   id="svg6"
   sodipodi:docname="IOS_add.svg"
   inkscape:version="1.2.1 (9c6d41e410, 2022-07-14, custom)"
   width="160"
   height="160"
   xmlns:inkscape="http://www.inkscape.org/namespaces/inkscape"
   xmlns:sodipodi="http://sodipodi.sourceforge.net/DTD/sodipodi-0.dtd"
   xmlns="http://www.w3.org/2000/svg"
   xmlns:svg="http://www.w3.org/2000/svg"
   xmlns:rdf="http://www.w3.org/1999/02/22-rdf-syntax-ns#"
   xmlns:cc="http://creativecommons.org/ns#"
   xmlns:dc="http://purl.org/dc/elements/1.1/">
  <defs
     id="defs10" />
  <sodipodi:namedview
     id="namedview8"
     pagecolor="#505050"
     bordercolor="#ffffff"
     borderopacity="1"
     inkscape:showpageshadow="0"
     inkscape:pageopacity="0"
     inkscape:pagecheckerboard="1"
     inkscape:deskcolor="#505050"
     showgrid="false"
     inkscape:zoom="2.1229809"
     inkscape:cx="70.65537"
     inkscape:cy="66.416047"
     inkscape:window-width="1366"
     inkscape:window-height="739"
     inkscape:window-x="0"
     inkscape:window-y="0"
     inkscape:window-maximized="1"
     inkscape:current-layer="svg6" />
  <path
     fill="#58595b"
     d="m 90.978571,32.841908 a 55.373229,55.373947 0 0 1 9.685239,-0.851907 c 24.3196,0.03043 48.6392,0 72.9588,0.01014 8.62036,0.07099 17.54499,1.764664 24.74554,6.744262 11.09492,7.383194 16.75395,20.831152 17.5957,33.772023 0.0609,26.398971 0,52.797944 0.0304,79.186774 0,10.30401 -3.64084,20.85144 -11.10507,28.12307 -8.04231,7.71787 -19.20823,11.59201 -30.21187,12.14981 -26.0741,0.0304 -52.1482,0 -78.212155,0.0101 -10.516856,-0.11155 -21.307537,-3.82343 -28.568934,-11.64272 -8.33641,-9.02616 -11.885976,-21.59179 -11.896117,-33.68075 0.01014,-23.35645 -0.03043,-46.702753 0.02028,-70.049058 -0.01014,-9.269558 1.348835,-18.975211 6.744175,-26.774216 6.297944,-9.533244 17.210324,-14.999646 28.213979,-16.99757 M 129.69923,74.51431 c -0.0507,10.395292 0.0102,20.790584 0,31.18587 -9.71566,-0.0304 -19.43133,0.0203 -29.15715,-0.0406 -2.302145,0.0811 -5.050524,-0.25354 -6.774598,1.63282 -2.880219,2.37317 -2.788944,7.22093 0.01014,9.61438 1.825491,1.71396 4.523161,1.59226 6.845598,1.66325 9.69538,-0.0406 19.39077,-0.0101 29.07601,-0.0304 0.0203,10.38515 -0.0608,20.7703 0.0102,31.15545 -0.14199,2.69771 1.37926,5.47654 4.00594,6.3893 3.71183,1.68354 8.64065,-1.14601 8.73193,-5.30413 0.26368,-10.74011 0.0203,-21.50051 0.0913,-32.24062 10.01992,0 20.03984,0.0203 30.05976,0.0101 2.7788,0.1217 5.93283,-0.67949 7.2411,-3.38734 2.26158,-3.80315 -0.61864,-9.4724 -5.15193,-9.42169 -10.71969,-0.14198 -21.43938,-0.0101 -32.14893,-0.0406 -0.0101,-10.395286 0.0406,-20.780436 0,-31.175728 0.30425,-3.549612 -2.69767,-7.1905 -6.38922,-6.886247 -3.70169,-0.334678 -6.75431,3.30621 -6.45007,6.876105 z"
     id="path2"
     style="stroke-width:1.01417" />
  <metadata
     id="metadata293">
    <rdf:RDF>
      <cc:Work
         rdf:about="">
        <dc:creator>
          <cc:Agent>
            <dc:title>Apple</dc:title>
          </cc:Agent>
        </dc:creator>
      </cc:Work>
    </rdf:RDF>
  </metadata>
</svg>
