<?xml version="1.0" encoding="UTF-8" standalone="no"?>
<svg
   width="289.67578"
   height="124.99219"
   viewBox="0 0 289.67578 124.99219"
   version="1.1"
   id="svg187"
   sodipodi:docname="USPN_2022.svg"
   inkscape:version="1.2.1 (9c6d41e410, 2022-07-14)"
   xmlns:inkscape="http://www.inkscape.org/namespaces/inkscape"
   xmlns:sodipodi="http://sodipodi.sourceforge.net/DTD/sodipodi-0.dtd"
   xmlns="http://www.w3.org/2000/svg"
   xmlns:svg="http://www.w3.org/2000/svg"
   xmlns:rdf="http://www.w3.org/1999/02/22-rdf-syntax-ns#"
   xmlns:cc="http://creativecommons.org/ns#"
   xmlns:dc="http://purl.org/dc/elements/1.1/">
  <defs
     id="defs36" />
  <sodipodi:namedview
     id="namedview189"
     pagecolor="#505050"
     bordercolor="#ffffff"
     borderopacity="1"
     inkscape:showpageshadow="0"
     inkscape:pageopacity="0"
     inkscape:pagecheckerboard="1"
     inkscape:deskcolor="#505050"
     showgrid="false"
     inkscape:zoom="2.1692377"
     inkscape:cx="44.716169"
     inkscape:cy="57.162938"
     inkscape:window-width="1366"
     inkscape:window-height="739"
     inkscape:window-x="0"
     inkscape:window-y="0"
     inkscape:window-maximized="1"
     inkscape:current-layer="svg187" />
  <path
     d="M 1.484325,14.95421 V 92.3256 l 43.629,29.00925 V 47.326001 Z"
     id="path183-3"
     inkscape:label="bg"
     style="fill:#ffffff" />
  <path
     style="fill:#001f60;fill-opacity:1"
     d="m 133.79687,0 h 3.61719 v 19.59375 c -0.3125,2.23828 -1.23438,4.12891 -2.76563,5.66797 -1.85156,1.85547 -4.08593,2.78125 -6.6914,2.78125 -2.60938,0 -4.83594,-0.92188 -6.6836,-2.77344 C 119.42187,23.42187 118.5,21.19531 118.5,18.58594 V 0 h 3.61718 v 18.58594 c 0,1.60156 0.57032,2.97265 1.71094,4.11328 1.14063,1.14062 2.51563,1.71094 4.12891,1.71094 1.62109,0 3,-0.56641 4.13672,-1.70313 1.13672,-1.13672 1.70312,-2.50781 1.70312,-4.12109 z m 0,0"
     id="path117" />
  <path
     style="fill:#001f60;fill-opacity:1"
     d="m 148.0625,14.72656 v 13.08985 h -3.61719 V 9.92578 h 3.61719 v 2.08984 c 0.7539,-2.04296 2.26562,-3.0625 4.53906,-3.0625 1.93359,0 3.47266,0.6875 4.61328,2.0625 1.14453,1.3711 1.73047,3.09766 1.76563,5.17188 v 11.62891 h -3.59766 V 16.32422 c 0,-1.03125 -0.37891,-1.91406 -1.13281,-2.64844 -0.75,-0.73828 -1.64844,-1.10547 -2.69532,-1.10547 -1.03125,0 -1.92187,0.35938 -2.67578,1.07813 -0.41797,0.42968 -0.6875,0.78906 -0.8164,1.07812"
     id="path121" />
  <path
     style="fill:#001f60;fill-opacity:1"
     d="m 169.99609,27.81641 h -3.60156 V 9.92578 h 3.60156 z m -0.0195,-24.51172 c 0.5,0.48828 0.75,1.08203 0.75,1.78906 0,0.70703 -0.25,1.30469 -0.75,1.79297 -0.5,0.48437 -1.09375,0.73047 -1.78906,0.73047 -0.6836,0 -1.27735,-0.2461 -1.77344,-0.73047 -0.5,-0.48828 -0.75,-1.08594 -0.75,-1.79297 0,-0.70703 0.25,-1.30078 0.75,-1.78906 0.49609,-0.48828 1.08984,-0.73047 1.77344,-0.73047 0.69531,0 1.28906,0.24219 1.78906,0.73047"
     id="path123" />
  <path
     style="fill:#001f60;fill-opacity:1"
     d="M 184.15625,27.81641 175.61718,9.92969 h 4.07032 l 5.37109,11.61328 5.39063,-11.61328 h 4.0664 l -8.55469,17.88672 z m 0,0"
     id="path125" />
  <path
     style="fill:#001f60;fill-opacity:1"
     d="m 213.1289,12.42969 c -1.35547,-1.04297 -2.93359,-1.5625 -4.72656,-1.5625 -2.16797,0 -4.02344,0.76562 -5.5625,2.30468 -1.54297,1.53516 -2.31641,3.39063 -2.31641,5.57032 0,1.79687 0.52344,3.375 1.56641,4.73047 z m -9.97656,12.1875 c 1.46875,1.34765 3.21875,2.01953 5.25,2.01953 2.17578,0 4.03906,-0.76953 5.57813,-2.3125 0.19921,-0.19922 0.38281,-0.40235 0.55859,-0.60938 l 1.65234,0.58985 c -0.30468,0.41797 -0.64453,0.82031 -1.02734,1.19922 -1.86719,1.86718 -4.12109,2.80078 -6.76172,2.80078 -2.63281,0 -4.88281,-0.9336 -6.74609,-2.80078 -1.86719,-1.86329 -2.80078,-4.11719 -2.80078,-6.76172 0,-2.62891 0.93359,-4.87891 2.80078,-6.7461 1.86328,-1.86328 4.11328,-2.79687 6.74609,-2.79687 2.25781,0 4.23438,0.67578 5.92578,2.03515 0.28125,0.23047 0.5586,0.48438 0.83594,0.76172 0.10547,0.10547 0.20312,0.21094 0.29687,0.3125 z m 0,0"
     id="path127" />
  <path
     style="fill:#001f60;fill-opacity:1"
     d="m 222.17968,10.74609 h 1.5625 v 3.10938 c 0.32422,-0.46094 0.70313,-0.90625 1.13282,-1.33594 1.3789,-1.37891 2.79297,-2.10547 4.24218,-2.17578 v 1.70703 c -0.98828,0.043 -2.00781,0.59375 -3.0625,1.64844 -1.48437,1.47265 -2.2539,3.24219 -2.3125,5.30469 v 8.8125 h -1.5625 z m 0,0"
     id="path129" />
  <path
     style="fill:#001f60;fill-opacity:1"
     d="m 239.49218,19.03906 c -1.33203,-0.71875 -2.2539,-1.33203 -2.76171,-1.84375 -0.80079,-0.80078 -1.19922,-1.76172 -1.19922,-2.88672 0,-1.13672 0.39843,-2.10547 1.19922,-2.91015 0.80078,-0.8086 1.76171,-1.21094 2.88671,-1.21094 1.13672,0 2.07422,0.37109 2.81641,1.11328 0.71875,0.73047 1.07813,1.55859 1.07813,2.48828 v 0.0859 l -1.35938,0.53906 c -0.11328,-0.8789 -0.39062,-1.54297 -0.82422,-1.98437 -0.43359,-0.4375 -1.00781,-0.66016 -1.71094,-0.66016 -0.69531,0 -1.29296,0.24609 -1.79296,0.73828 -0.4961,0.4961 -0.7461,1.09375 -0.7461,1.80078 0,0.69532 0.25,1.29297 0.7461,1.79297 0.28906,0.28906 0.90625,0.73047 1.84375,1.32031 1.48437,0.8086 2.53906,1.53125 3.16406,2.15625 0.98437,0.9961 1.47656,2.1836 1.47656,3.5625 0,1.41407 -0.49219,2.61719 -1.47656,3.60938 -0.98438,0.98828 -2.17969,1.48437 -3.58203,1.48437 -1.40235,0 -2.59766,-0.49609 -3.58203,-1.48437 -0.98438,-0.99219 -1.47657,-2.07813 -1.47657,-3.26172 l 1.54688,-0.39844 c 0,1.01953 0.34375,1.8711 1.03515,2.55469 0.69141,0.68359 1.51563,1.02734 2.47657,1.02734 0.96484,0 1.78906,-0.34375 2.47656,-1.02734 0.69141,-0.68359 1.03516,-1.51953 1.03516,-2.50391 0,-0.96093 -0.33985,-1.78515 -1.02344,-2.46875 -0.3711,-0.37109 -1.1211,-0.91406 -2.2461,-1.63281"
     id="path131" />
  <path
     style="fill:#001f60;fill-opacity:1"
     d="M 252.50781,27.81641 H 250.9414 V 10.74609 h 1.56641 z m 0.32031,-22.66797 c 0.3086,0.30078 0.46094,0.66406 0.46094,1.09375 0,0.4414 -0.15234,0.8125 -0.46094,1.11328 -0.30859,0.30078 -0.67578,0.45312 -1.10547,0.45312 -0.42578,0 -0.79687,-0.15234 -1.10156,-0.45312 -0.30859,-0.30078 -0.46094,-0.67188 -0.46094,-1.11328 0,-0.42969 0.15235,-0.79297 0.46094,-1.09375 0.30469,-0.30469 0.67578,-0.45313 1.10156,-0.45313 0.42969,0 0.79688,0.14844 1.10547,0.45313"
     id="path133" />
  <path
     style="fill:#001f60;fill-opacity:1"
     d="M 262.32031,10.74609 V 3.47656 h 1.56641 v 7.26953 h 3.47656 v 1.5625 h -3.47656 v 15.50782 h -1.56641 V 12.30859 h -3.47656 v -1.5625 z m 0,0"
     id="path135" />
  <path
     style="fill:#001f60;fill-opacity:1"
     d="m 284.82812,3.70312 -4.26172,3.25 h -1.46093 l 2.83593,-3.25 z m 1.78906,8.73047 c -1.35546,-1.04687 -2.93359,-1.5664 -4.73046,-1.5664 -2.16797,0 -4.01954,0.76953 -5.5625,2.30468 -1.53907,1.53516 -2.3125,3.39063 -2.3125,5.57032 0,1.79687 0.52343,3.37109 1.5664,4.73047 z m -9.98046,12.1836 c 1.47265,1.34765 3.22265,2.01953 5.25,2.01953 2.17968,0 4.03906,-0.77344 5.58203,-2.3125 0.19922,-0.19531 0.38281,-0.40235 0.55468,-0.60938 l 1.65235,0.58985 c -0.30078,0.41797 -0.64063,0.8164 -1.02344,1.20312 -1.86719,1.86328 -4.12109,2.79688 -6.76562,2.79688 -2.62891,0 -4.87891,-0.9336 -6.7461,-2.79688 -1.86328,-1.86719 -2.79687,-4.12109 -2.79687,-6.76562 0,-2.62891 0.93359,-4.87891 2.79687,-6.7461 1.86719,-1.86328 4.11719,-2.79687 6.7461,-2.79687 2.26171,0 4.23828,0.67578 5.92968,2.03125 0.27735,0.23437 0.55469,0.48828 0.83594,0.76562 0.10156,0.10547 0.20313,0.21094 0.29297,0.3125 l -1.17969,1.1836 z m 0,0"
     id="path137" />
  <path
     style="fill:#001f60"
     d="m 125.57422,56.17578 c -1.96875,-0.66016 -3.56641,-1.60156 -4.78907,-2.82422 -1.22265,-1.22265 -1.83593,-2.73828 -1.83593,-4.54687 0,-1.77344 0.63671,-3.29688 1.90625,-4.57422 1.26953,-1.27344 2.80859,-1.91016 4.61718,-1.91016 1.78125,0 3.3125,0.62891 4.58985,1.89453 0.71484,0.69532 1.32031,1.80078 1.80468,3.32032 l -3.26562,1.28515 c -0.39453,-1.0664 -0.75391,-1.76172 -1.07813,-2.08594 -0.57031,-0.55468 -1.2539,-0.83203 -2.05078,-0.83203 -0.8125,0 -1.5039,0.28125 -2.07031,0.83985 -0.57031,0.5664 -0.85156,1.25 -0.85156,2.0625 0,0.8125 0.28125,1.5 0.85156,2.07031 0.63672,0.625 1.51563,1.19922 2.64063,1.71875 2.17968,0.70703 4.02734,1.82031 5.54687,3.33984 1.70313,1.67969 2.55469,3.71875 2.55469,6.11719 0,2.40234 -0.84766,4.44922 -2.54688,6.14844 -1.69531,1.69531 -3.73828,2.54687 -6.125,2.54687 -2.40234,0 -4.44531,-0.85156 -6.14062,-2.55468 -1.35547,-1.35938 -2.21094,-3.23047 -2.57031,-5.61719 l 3.49218,-1.26953 c 0.22266,2.05078 0.76172,3.50781 1.61719,4.36328 0.99609,0.99609 2.19531,1.49609 3.60156,1.49609 1.39844,0 2.60157,-0.5 3.59766,-1.49609 0.99609,-0.9961 1.49609,-2.19922 1.49609,-3.61719 0,-1.40234 -0.5,-2.60156 -1.49609,-3.59766 -0.95313,-0.94921 -2.11719,-1.71093 -3.49609,-2.27734"
     id="path141" />
  <path
     style="fill:#001f60"
     d="m 143.73828,56.62891 c -1.21094,1.21484 -1.81641,2.67578 -1.81641,4.3789 0,1.71875 0.60547,3.17578 1.81641,4.38281 1.21094,1.20704 2.67578,1.8086 4.39062,1.8086 1.71485,0 3.17578,-0.60156 4.39063,-1.8086 1.21094,-1.20703 1.8164,-2.66406 1.8164,-4.38281 0,-1.70312 -0.60546,-3.16406 -1.8164,-4.3789 -1.21485,-1.21875 -2.67578,-1.82813 -4.39063,-1.82813 -1.71484,0 -3.17968,0.60938 -4.39062,1.82813 m 4.39062,-5.53125 c 2.73438,0 5.06641,0.96875 6.9961,2.90625 1.92968,1.93359 2.89453,4.26953 2.89453,7.0039 0,2.73828 -0.96485,5.07031 -2.89453,7.00781 -1.92969,1.9336 -4.26172,2.90235 -6.9961,2.90235 -2.72656,0 -5.05468,-0.96875 -6.99218,-2.90235 -1.9336,-1.9375 -2.90235,-4.26953 -2.90235,-7.00781 0,-2.73437 0.96875,-5.07031 2.90235,-7.0039 1.9375,-1.9375 4.26562,-2.90625 6.99218,-2.90625"
     id="path143" />
  <path
     style="fill:#001f60"
     d="m 167.46484,54.97656 c 1.34375,-1.82031 2.99609,-2.77734 4.95703,-2.87109 v 3.73828 c -1.3125,0.0703 -2.35547,0.49609 -3.13281,1.26953 -1.16797,1.16016 -1.77734,2.53906 -1.82422,4.14063 v 9.19531 h -3.59766 V 52.55859 h 3.59766 z m 0,0"
     id="path145" />
  <path
     style="fill:#001f60"
     d="m 181.1875,59.61719 v 2.80078 c 0.21875,1.08984 0.77343,2.08203 1.66797,2.97265 1.21875,1.20704 2.68359,1.8086 4.39843,1.8086 1.71485,0 3.17969,-0.60156 4.39063,-1.8086 1.21094,-1.20703 1.8164,-2.66406 1.8164,-4.38281 0,-1.70312 -0.60546,-3.16406 -1.8164,-4.3789 -1.21094,-1.21875 -2.67578,-1.82813 -4.39063,-1.82813 -1.71484,0 -3.17968,0.60938 -4.39843,1.82813 -0.89454,0.89062 -1.44922,1.88671 -1.66797,2.98828 m 0,8.60547 v 2.22656 h -3.60157 V 42.63281 h 3.60157 v 11.16016 c 1.73828,-1.79297 3.76172,-2.69531 6.0664,-2.69531 2.73438,0 5.06641,0.96875 6.9961,2.90625 1.92968,1.93359 2.89843,4.26953 2.89843,7.0039 0,2.73828 -0.96875,5.07422 -2.89843,7.00781 -1.92969,1.9375 -4.26172,2.90235 -6.9961,2.90235 -2.30468,0 -4.32812,-0.89844 -6.0664,-2.69531"
     id="path147" />
  <path
     style="fill:#001f60"
     d="m 208.0625,56.62891 c -1.21094,1.21484 -1.82032,2.67578 -1.82032,4.3789 0,1.71875 0.60938,3.17578 1.82032,4.38281 1.21093,1.20704 2.67187,1.8086 4.38672,1.8086 1.71484,0 3.17968,-0.60156 4.39062,-1.8086 1.21094,-1.20703 1.81641,-2.66406 1.81641,-4.38281 0,-1.70312 -0.60547,-3.16406 -1.81641,-4.3789 -1.21094,-1.21875 -2.67578,-1.82813 -4.39062,-1.82813 -1.71485,0 -3.17579,0.60938 -4.38672,1.82813 m 4.38672,-5.53125 c 2.73828,0 5.07031,0.96875 7,2.90625 1.92968,1.93359 2.89453,4.26953 2.89453,7.0039 0,2.73828 -0.96485,5.07031 -2.89453,7.00781 -1.92969,1.9336 -4.26172,2.90235 -7,2.90235 -2.72266,0 -5.05079,-0.96875 -6.98829,-2.90235 -1.93359,-1.9375 -2.90234,-4.26953 -2.90234,-7.00781 0,-2.73437 0.96875,-5.07031 2.90234,-7.0039 1.9375,-1.9375 4.26563,-2.90625 6.98829,-2.90625"
     id="path149" />
  <path
     style="fill:#001f60"
     d="M 231.80468,57.35937 V 70.44922 H 228.1875 V 52.55859 h 3.61718 v 2.08594 c 0.75391,-2.03906 2.26563,-3.05859 4.53907,-3.05859 1.93359,0 3.47265,0.6875 4.61718,2.05859 1.14063,1.375 1.72657,3.09766 1.76172,5.17578 V 70.44922 H 239.125 V 58.95703 c 0,-1.03125 -0.375,-1.91406 -1.12891,-2.65234 -0.75391,-0.73438 -1.65234,-1.10157 -2.69531,-1.10157 -1.03125,0 -1.92578,0.35938 -2.67969,1.07813 -0.41406,0.42969 -0.6875,0.78516 -0.81641,1.07812"
     id="path151" />
  <path
     style="fill:#001f60"
     d="m 253.28125,57.35937 v 13.08985 h -3.61719 V 52.55859 h 3.61719 v 2.08594 c 0.7539,-2.03906 2.26562,-3.05859 4.53906,-3.05859 1.93359,0 3.47266,0.6875 4.61328,2.05859 1.14453,1.375 1.73047,3.09766 1.76563,5.17578 v 11.62891 h -3.59766 V 58.95703 c 0,-1.03125 -0.37891,-1.91406 -1.13281,-2.65234 -0.75,-0.73438 -1.64844,-1.10157 -2.69141,-1.10157 -1.03125,0 -1.92578,0.35938 -2.67969,1.07813 -0.41797,0.42969 -0.6875,0.78516 -0.8164,1.07812"
     id="path153" />
  <path
     style="fill:#001f60"
     d="m 282.71875,55.27344 c -0.40625,-0.31641 -1.31641,-0.47266 -2.73047,-0.47266 -1.70313,0 -3.16016,0.60547 -4.3711,1.82031 -1.21093,1.21094 -1.8164,2.67188 -1.8164,4.38672 0,1.40235 0.15625,2.3125 0.46875,2.73047 z m -6.01563,11.125 c 0.60156,0.53515 1.69922,0.80078 3.28516,0.80078 1.71875,0 3.18359,-0.60156 4.39844,-1.8086 0.15234,-0.16406 0.46093,-0.52343 0.92187,-1.07812 l 3.60156,1.28516 c -0.88281,1.21875 -1.51953,2.02343 -1.91406,2.41796 -1.93359,1.9336 -4.26953,2.90235 -7.00781,2.90235 -2.72266,0 -5.05078,-0.96875 -6.98828,-2.90235 -1.9336,-1.9375 -2.90235,-4.26953 -2.90235,-7.00781 0,-2.73437 0.96875,-5.07031 2.90235,-7.0039 1.9375,-1.9375 4.26562,-2.90625 6.98828,-2.90625 2.34375,0 4.39453,0.71093 6.15625,2.12109 0.28906,0.24609 0.57422,0.50781 0.85156,0.78516 0.11719,0.11328 0.44531,0.48046 0.99219,1.09375 l -1.8086,1.82812 z m 0,0"
     id="path155" />
  <path
     style="fill:#001f60"
     d="m 122.09765,88.98047 v 11.68359 h 3.28516 c 1.60156,0 2.97266,-0.57031 4.11328,-1.71094 1.14063,-1.14062 1.71094,-2.52343 1.71094,-4.14843 0,-1.60938 -0.57031,-2.98438 -1.71094,-4.11719 -1.14062,-1.13672 -2.51172,-1.70703 -4.11328,-1.70703 z m 0,15.30078 v 8.90234 H 118.5 v -27.8164 h 7.89062 c 2.23828,0.30078 4.12891,1.22265 5.66797,2.76172 1.84375,1.85546 2.76563,4.08203 2.76563,6.67578 0,2.62109 -0.92188,4.85547 -2.76563,6.70312 -1.83984,1.84766 -4.06641,2.77344 -6.67578,2.77344 z m 0,0"
     id="path157" />
  <path
     style="fill:#001f60"
     d="m 152.34765,105.08203 v -2.64453 c -0.21093,-1.125 -0.76562,-2.14453 -1.66797,-3.05859 -1.21875,-1.20704 -2.67968,-1.8086 -4.38281,-1.8086 -1.71484,0 -3.17969,0.60156 -4.39062,1.8086 -1.21094,1.20703 -1.81641,2.66796 -1.81641,4.38281 0,1.70312 0.60547,3.16015 1.81641,4.37109 1.21093,1.21094 2.67578,1.81641 4.39062,1.81641 1.70313,0 3.16406,-0.60156 4.38281,-1.8086 0.90235,-0.91406 1.45704,-1.93359 1.66797,-3.05859 m 0,-8.53516 v -1.2539 h 3.61719 v 17.90625 h -3.61719 v -2.24219 c -1.73828,1.79688 -3.7539,2.69531 -6.05078,2.69531 -2.73437,0 -5.0664,-0.96484 -6.99609,-2.89453 -1.9336,-1.92969 -2.89844,-4.26172 -2.89844,-6.99609 0,-2.73828 0.96484,-5.07031 2.89844,-7 1.92969,-1.92969 4.26172,-2.89453 6.99609,-2.89453 2.29688,0 4.3125,0.89453 6.05078,2.67968"
     id="path159" />
  <path
     style="fill:#001f60"
     d="m 164.79297,97.71094 c 1.34765,-1.82032 2.99609,-2.77735 4.95703,-2.8711 v 3.73828 c -1.3086,0.0703 -2.35157,0.49219 -3.12891,1.26954 -1.17187,1.16015 -1.77734,2.53906 -1.82812,4.13671 v 9.19922 h -3.59766 V 95.29297 h 3.59766 z m 0,0"
     id="path161" />
  <path
     style="fill:#001f60"
     d="m 177.46093,113.18359 h -3.60156 V 95.29297 h 3.60156 z m -0.0195,-24.51562 c 0.5,0.48828 0.7461,1.08594 0.7461,1.79297 0,0.70703 -0.2461,1.30078 -0.7461,1.78906 -0.5,0.48828 -1.09375,0.73047 -1.78906,0.73047 -0.68359,0 -1.27734,-0.24219 -1.77344,-0.73047 -0.5,-0.48828 -0.75,-1.08203 -0.75,-1.78906 0,-0.70703 0.25,-1.30469 0.75,-1.79297 0.4961,-0.48438 1.08985,-0.73047 1.77344,-0.73047 0.69531,0 1.28906,0.24609 1.78906,0.73047"
     id="path163" />
  <path
     style="fill:#001f60"
     d="m 186.58593,109.33984 c 0.42969,0.41797 0.94141,0.625 1.53125,0.625 0.58985,0 1.09766,-0.20703 1.51954,-0.625 0.42578,-0.41797 0.63671,-0.93359 0.63671,-1.54687 0,-0.58985 -0.21093,-1.09375 -0.625,-1.51172 -0.29296,-0.28906 -0.91015,-0.73828 -1.86328,-1.33984 -1.29687,-0.70704 -2.21875,-1.33204 -2.76172,-1.875 -0.95312,-0.95313 -1.42578,-2.09375 -1.42578,-3.42579 0,-1.34765 0.47266,-2.49609 1.42578,-3.45312 0.94922,-0.95703 2.09766,-1.43359 3.44141,-1.43359 1.34375,0 2.46094,0.45312 3.35547,1.35546 0.63672,0.63672 1.04297,1.35157 1.21484,2.14063 l -3.49218,1.00781 c -0.082,-0.28906 -0.16407,-0.48047 -0.2461,-0.57422 -0.20703,-0.21093 -0.48437,-0.3125 -0.83203,-0.3125 -0.34766,0 -0.64844,0.125 -0.89453,0.3711 -0.25,0.25 -0.375,0.55078 -0.375,0.89843 0,0.34766 0.12109,0.64063 0.36328,0.88672 0.22266,0.20703 0.71875,0.5586 1.49609,1.0586 1.4375,0.78906 2.48047,1.50781 3.12891,2.15625 1.125,1.13672 1.6875,2.48828 1.6875,4.05078 0,1.60156 -0.55859,2.96484 -1.67578,4.09375 -1.12109,1.13281 -2.48047,1.69531 -4.07813,1.69531 -1.58984,0 -2.94531,-0.56641 -4.07031,-1.70312 -0.77344,-0.77735 -1.28515,-1.74219 -1.52734,-2.90235 l 3.58203,-0.76562 c 0.10156,0.53125 0.26562,0.91015 0.48437,1.1289"
     id="path165" />
  <path
     style="fill:#001f60"
     d="m 210.61328,85.36719 h 3.28515 L 225.375,105.21875 V 85.36719 h 3.61718 v 27.8164 h -3.14843 L 214.21484,93.08594 v 20.09765 h -3.60156 z m 0,0"
     id="path167" />
  <path
     style="fill:#001f60"
     d="m 238.66406,99.35937 c -1.21094,1.21875 -1.81641,2.67969 -1.81641,4.38282 0,1.71484 0.60547,3.17578 1.81641,4.38281 1.21094,1.20312 2.67578,1.80859 4.39062,1.80859 1.71485,0 3.17969,-0.60547 4.39063,-1.80859 1.21094,-1.20703 1.81641,-2.66797 1.81641,-4.38281 0,-1.70313 -0.60547,-3.16407 -1.81641,-4.38282 -1.21094,-1.21484 -2.67578,-1.82421 -4.39063,-1.82421 -1.71484,0 -3.17968,0.60937 -4.39062,1.82421 m 4.39062,-5.52734 c 2.73438,0 5.07032,0.96875 7,2.90234 1.92969,1.9375 2.89454,4.27344 2.89454,7.00782 0,2.73437 -0.96485,5.07031 -2.89454,7.00781 -1.92968,1.93359 -4.26562,2.90234 -7,2.90234 -2.72265,0 -5.05078,-0.96875 -6.98828,-2.90234 -1.9375,-1.9375 -2.90234,-4.27344 -2.90234,-7.00781 0,-2.73438 0.96484,-5.07032 2.90234,-7.00782 1.9375,-1.93359 4.26563,-2.90234 6.98828,-2.90234"
     id="path169" />
  <path
     style="fill:#001f60"
     d="m 260.71875,97.71094 c 1.34375,-1.82032 2.99609,-2.77735 4.95703,-2.8711 v 3.73828 c -1.3125,0.0703 -2.35547,0.49219 -3.13281,1.26954 -1.16797,1.16015 -1.77735,2.53906 -1.82422,4.13671 v 9.19922 h -3.59766 V 95.29297 h 3.59766 z m 0,0"
     id="path171" />
  <path
     style="fill:#001f60"
     d="m 284.58593,105.08203 v -2.66016 c -0.20703,-1.125 -0.76953,-2.14453 -1.68359,-3.0625 -1.20703,-1.21484 -2.66797,-1.82421 -4.38281,-1.82421 -1.71485,0 -3.17969,0.60937 -4.39063,1.82421 -1.21093,1.21875 -1.8164,2.67969 -1.8164,4.38282 0,1.71484 0.60547,3.17578 1.8164,4.38281 1.21094,1.20312 2.67578,1.80859 4.39063,1.80859 1.71484,0 3.17578,-0.60547 4.38281,-1.80859 0.91406,-0.91797 1.47656,-1.93359 1.68359,-3.04297 m 0,-8.55469 V 85.36719 h 3.61719 v 27.8164 h -3.61719 v -2.22656 c -1.73828,1.79688 -3.76171,2.69531 -6.0664,2.69531 -2.73438,0 -5.06641,-0.96875 -6.9961,-2.90234 -1.92968,-1.9375 -2.89843,-4.27344 -2.89843,-7.00781 0,-2.73438 0.96875,-5.07032 2.89843,-7.00782 1.92969,-1.93359 4.26172,-2.90234 6.9961,-2.90234 2.30469,0 4.32812,0.89844 6.0664,2.69531"
     id="path173" />
  <path
     style="fill:#001f60;fill-opacity:1"
     d="M 104.66797,0.25391 H 19.0625 v 0.0469 L 91.85937,11.94534 V 86.6719 h 12.8086 z m 0,0"
     id="path175" />
  <path
     style="fill:#001f60"
     d="m 72.699222,98.87109 12.44921,1.91797 c -0.0234,-27.91406 -0.0508,-55.83203 -0.0742,-83.75 L 17.476572,6.41797 18.820322,6.95312 72.699232,26.75 Z m 0,0"
     id="path179" />
  <path
     style="fill:#001f60;fill-opacity:1"
     d="m 65.433592,31.02734 -54.99609,-20.14843 42.28125,30.41796 v 67.07422 l 12.71484,4.65625 z m 0,0"
     id="path181" />
  <path
     style="fill:#001f60"
     d="m 24.83984,69.22266 -2.66406,2.84375 -0.0508,0.0547 -0.21875,-0.28515 -2.33594,-3.05078 -6.76953,-8.84375 5.59765,0.33203 4.08204,5.10937 22.28127,-17.44533 z m 16.38281,40.05468 -2.02734,-1.5 -2.03125,1.5 0.76562,-2.4414 -2.08984,-1.44141 h 2.55859 l 0.79688,-2.53125 0.79297,2.53125 h 2.55859 l -2.08594,1.44141 z m -7.38281,-18.39843 0.67188,-2.13282 -1.82813,-1.26172 h 2.23828 l 0.69531,-2.21484 0.69532,2.21484 h 2.23828 l -1.82813,1.26172 0.67188,2.13282 -1.77735,-1.3086 z m -2.71875,-19.92579 -1.52344,1.125 0.57422,-1.83203 -1.5664,-1.08203 h 1.91796 l 0.59766,-1.89844 0.59375,1.89844 h 1.91797 l -1.56641,1.08203 0.57422,1.83203 z m -5.19922,6.17579 -3.48047,-4.04688 2.66407,-2.84375 5.73046,6.94922 z M 2.60156,89.19922 19.30078,69.98437 21.63672,73.03516 Z M 3.66015,20.02344 3.95703,19.07422 4.2539,20.02344 h 0.96094 l -0.78516,0.54297 0.28907,0.91406 -0.76172,-0.5625 -0.76172,0.5625 0.28516,-0.91406 -0.78125,-0.54297 z m 6.11719,9.59765 0.39453,-1.26562 0.39844,1.26562 h 1.28125 l -1.04688,0.72266 0.38282,1.21875 -1.01563,-0.75 -1.01172,0.75 0.38282,-1.21875 -1.04688,-0.72266 z m 6.35156,9.59375 0.44922,-1.42187 0.44531,1.42187 h 1.4375 l -1.17187,0.8125 0.42969,1.3711 -1.14063,-0.84375 -1.14453,0.84375 0.42969,-1.3711 -1.17188,-0.8125 z m 7.95313,11.92188 0.49609,-1.58203 0.4961,1.58203 h 1.60156 l -1.30469,0.90234 0.47656,1.52344 -1.26953,-0.9375 -1.26953,0.9375 0.48047,-1.52344 -1.30859,-0.90234 z M -0.01563,11.29687 v 82.69141 l 46.62891,31.00391 V 45.89453 Z m 0,0"
     id="path183" />
  <metadata
     id="metadata264">
    <rdf:RDF>
      <cc:Work
         rdf:about="">
        <dc:source>https://www.univ-paris13.fr/presse/</dc:source>
        <dc:creator>
          <cc:Agent>
            <dc:title>Université Sorbonne Paris Nord</dc:title>
          </cc:Agent>
        </dc:creator>
      </cc:Work>
    </rdf:RDF>
  </metadata>
</svg>
