<?xml version="1.0" encoding="UTF-8" standalone="no"?>
<!-- Created with Inkscape (http://www.inkscape.org/) -->

<svg
   version="1.1"
   id="svg1"
   width="297.48062"
   height="107.55503"
   viewBox="0 0 297.48064 107.55503"
   sodipodi:docname="UTT_Logo_Blanc.svg"
   inkscape:version="1.3.2 (091e20ef0f, 2023-11-25, custom)"
   xmlns:inkscape="http://www.inkscape.org/namespaces/inkscape"
   xmlns:sodipodi="http://sodipodi.sourceforge.net/DTD/sodipodi-0.dtd"
   xmlns="http://www.w3.org/2000/svg"
   xmlns:svg="http://www.w3.org/2000/svg"
   xmlns:rdf="http://www.w3.org/1999/02/22-rdf-syntax-ns#"
   xmlns:cc="http://creativecommons.org/ns#"
   xmlns:dc="http://purl.org/dc/elements/1.1/">
  <style
     id="style1">
      @import url(&quot;https://fonts.googleapis.com/css?family=Roboto:300,500,bold&amp;text=uttUNIVERSIT%C3%89DETECHNOLOGIETROYES&quot;)
   </style>
  <defs
     id="defs1">
    <clipPath
       clipPathUnits="userSpaceOnUse"
       id="clipPath4">
      <path
         d="M 0,155.906 H 240.945 V 0 H 0 Z"
         transform="translate(-41.001501,-89.442602)"
         id="path4" />
    </clipPath>
    <clipPath
       clipPathUnits="userSpaceOnUse"
       id="clipPath6">
      <path
         d="M 0,155.906 H 240.945 V 0 H 0 Z"
         transform="translate(-52.163101,-62.664299)"
         id="path6" />
    </clipPath>
    <clipPath
       clipPathUnits="userSpaceOnUse"
       id="clipPath8">
      <path
         d="M 0,155.906 H 240.945 V 0 H 0 Z"
         transform="translate(-27.998001,-67.702402)"
         id="path8" />
    </clipPath>
  </defs>
  <sodipodi:namedview
     id="namedview1"
     pagecolor="#505050"
     bordercolor="#ffffff"
     borderopacity="1"
     inkscape:showpageshadow="0"
     inkscape:pageopacity="0"
     inkscape:pagecheckerboard="1"
     inkscape:deskcolor="#505050"
     borderlayer="true"
     inkscape:zoom="2.1135528"
     inkscape:cx="168.2002"
     inkscape:cy="91.07887"
     inkscape:window-width="1504"
     inkscape:window-height="975"
     inkscape:window-x="0"
     inkscape:window-y="0"
     inkscape:window-maximized="1"
     inkscape:current-layer="layer-MC0" />
  <g
     id="layer-MC0"
     inkscape:groupmode="layer"
     inkscape:label="Calque 1"
     transform="translate(-8.3980015,-50.920535)"
     style="display:inline">
    <text
       id="text1"
       xml:space="preserve"
       transform="matrix(1.3333333,0,0,1.3333333,128.5716,117.71587)"><tspan
         style="font-style:normal;font-variant:normal;font-weight:300;font-stretch:normal;font-size:65.6029px;font-family:Roboto;-inkscape-font-specification:'Roboto Light';writing-mode:lr-tb;fill:#ffffff;fill-opacity:1;fill-rule:nonzero;stroke:none"
         x="0 38.180889 60.551476"
         y="0"
         sodipodi:role="line"
         id="tspan1">utt</tspan></text>
    <text
       id="text2"
       xml:space="preserve"
       transform="matrix(1.3333333,0,0,1.3333333,133.72587,134.44493)"><tspan
         style="font-style:normal;font-variant:normal;font-weight:bold;font-stretch:normal;font-size:6.4483px;font-family:Roboto;-inkscape-font-specification:'Roboto Bold';writing-mode:lr-tb;fill:#ffffff;fill-opacity:1;fill-rule:nonzero;stroke:none"
         x="0 5.8421597 11.684319 14.779504 20.021971 25.503027 31.222668 36.587654 39.682838 44.925304 55.068481 61.026711 70.92485 76.16732 81.648376 87.606606 93.448761 99.290924 105.37167 110.37555 116.4563 122.53705 125.63223"
         y="0"
         sodipodi:role="line"
         id="tspan2">UNIVERSITÉDETECHNOLOGIE</tspan></text>
    <text
       id="text3"
       xml:space="preserve"
       transform="matrix(1.3333333,0,0,1.3333333,133.63347,158.2796)"
       style="font-style:normal;font-variant:normal;font-weight:500;font-stretch:normal;font-family:Roboto;-inkscape-font-specification:'Roboto Medium'"><tspan
         style="font-style:normal;font-variant:normal;font-weight:500;font-stretch:normal;font-size:15.0504px;font-family:Roboto;-inkscape-font-specification:'Roboto Medium';writing-mode:lr-tb;fill:#ffffff;fill-opacity:1;fill-rule:nonzero;stroke:none"
         x="0 12.883142 26.067293 40.124367 52.375393 64.551163"
         y="0"
         sodipodi:role="line"
         id="tspan3">TROYES</tspan></text>
    <path
       id="path3"
       d="M 0,0 C 18.595,7.751 35.949,11.63 45.928,10.857 V 28.273 H -34.703 V -19.793 C -26.926,-13.284 -14.577,-6.076 0,0"
       style="fill:#ffffff;fill-opacity:1;fill-rule:nonzero;stroke:none"
       transform="matrix(1.3333333,0,0,-1.3333333,54.668667,88.617867)"
       clip-path="url(#clipPath4)" />
    <path
       id="path5"
       d="m 0,0 c -18.555,-7.734 -35.875,-11.614 -45.864,-10.862 v -14.717 h 80.63 V 19.846 C 26.993,13.324 14.617,6.093 0,0"
       style="fill:#ffffff;fill-opacity:1;fill-rule:nonzero;stroke:none"
       transform="matrix(1.3333333,0,0,-1.3333333,69.5508,124.32227)"
       clip-path="url(#clipPath6)" />
    <path
       id="path7"
       d="M 0,0 C -3.409,-1.602 -7.001,-1.136 -8.022,1.039 -9.044,3.214 -7.109,6.275 -3.7,7.877 -0.291,9.478 3.302,9.013 4.323,6.838 5.345,4.662 3.409,1.602 0,0 M 44.781,21.395 C 42.737,26.325 26.542,24.292 8.608,16.856 -9.325,9.42 -22.206,-0.605 -20.161,-5.535 c 2.044,-4.93 18.239,-2.899 36.173,4.538 17.933,7.436 30.814,17.462 28.769,22.392"
       style="fill:#ffffff;fill-opacity:1;fill-rule:nonzero;stroke:none"
       transform="matrix(1.3333333,0,0,-1.3333333,37.330667,117.6048)"
       clip-path="url(#clipPath8)" />
  </g>
  <metadata
     id="metadata8">
    <rdf:RDF>
      <cc:Work
         rdf:about="">
        <dc:source>https://moodle.utt.fr/course/view.php?id=1749</dc:source>
      </cc:Work>
    </rdf:RDF>
  </metadata>
</svg>
