<?xml version="1.0" encoding="UTF-8" standalone="no"?>
<!-- Created with Inkscape (http://www.inkscape.org/) -->

<svg
   version="1.1"
   id="svg1"
   width="297.32382"
   height="107.55596"
   viewBox="0 0 297.32382 107.55596"
   sodipodi:docname="UTT_Logo_Couleur.svg"
   inkscape:version="1.3.2 (091e20ef0f, 2023-11-25, custom)"
   xmlns:inkscape="http://www.inkscape.org/namespaces/inkscape"
   xmlns:sodipodi="http://sodipodi.sourceforge.net/DTD/sodipodi-0.dtd"
   xmlns="http://www.w3.org/2000/svg"
   xmlns:svg="http://www.w3.org/2000/svg"
   xmlns:rdf="http://www.w3.org/1999/02/22-rdf-syntax-ns#"
   xmlns:cc="http://creativecommons.org/ns#"
   xmlns:dc="http://purl.org/dc/elements/1.1/">
  <style
     id="style1">
      @import url(&quot;https://fonts.googleapis.com/css?family=Roboto:300,500,bold&amp;text=uttUNIVERSIT%C3%89DETECHNOLOGIETROYES&quot;)
   </style>
  <sodipodi:namedview
     id="namedview1"
     pagecolor="#505050"
     bordercolor="#ffffff"
     borderopacity="1"
     inkscape:showpageshadow="0"
     inkscape:pageopacity="0"
     inkscape:pagecheckerboard="1"
     inkscape:deskcolor="#505050"
     inkscape:zoom="2.2837053"
     inkscape:cx="148.66191"
     inkscape:cy="53.640896"
     inkscape:window-width="1504"
     inkscape:window-height="975"
     inkscape:window-x="0"
     inkscape:window-y="0"
     inkscape:window-maximized="1"
     inkscape:current-layer="layer-MC0" />
  <defs
     id="defs1">
    <clipPath
       clipPathUnits="userSpaceOnUse"
       id="clipPath4">
      <path
         d="M 0,155.906 H 240.945 V 0 H 0 Z"
         transform="translate(-34.044901,-74.157502)"
         id="path4" />
    </clipPath>
    <radialGradient
       fx="0"
       fy="0"
       cx="0"
       cy="0"
       r="1"
       gradientUnits="userSpaceOnUse"
       gradientTransform="matrix(36.474625,-48.271706,-48.271706,-36.474625,50.149105,69.808136)"
       spreadMethod="pad"
       id="radialGradient5">
      <stop
         style="stop-opacity:1;stop-color:#009cde"
         offset="0"
         id="stop4" />
      <stop
         style="stop-opacity:1;stop-color:#000066"
         offset="1"
         id="stop5" />
    </radialGradient>
    <radialGradient
       fx="0"
       fy="0"
       cx="0"
       cy="0"
       r="1"
       gradientUnits="userSpaceOnUse"
       gradientTransform="matrix(36.474625,-48.271706,-48.271706,-36.474625,50.149105,69.808136)"
       spreadMethod="pad"
       id="radialGradient7">
      <stop
         style="stop-opacity:1;stop-color:#009cde"
         offset="0"
         id="stop6" />
      <stop
         style="stop-opacity:1;stop-color:#000066"
         offset="1"
         id="stop7" />
    </radialGradient>
    <radialGradient
       fx="0"
       fy="0"
       cx="0"
       cy="0"
       r="1"
       gradientUnits="userSpaceOnUse"
       gradientTransform="matrix(36.474625,-48.271706,-48.271706,-36.474625,50.149105,69.808136)"
       spreadMethod="pad"
       id="radialGradient9">
      <stop
         style="stop-opacity:1;stop-color:#009cde"
         offset="0"
         id="stop8" />
      <stop
         style="stop-opacity:1;stop-color:#000066"
         offset="1"
         id="stop9" />
    </radialGradient>
    <clipPath
       clipPathUnits="userSpaceOnUse"
       id="clipPath11">
      <path
         d="M 0,155.906 H 240.945 V 0 H 0 Z"
         transform="translate(-88.624,-99.902102)"
         id="path11" />
    </clipPath>
    <clipPath
       clipPathUnits="userSpaceOnUse"
       id="clipPath13">
      <path
         d="M 0,155.906 H 240.945 V 0 H 0 Z"
         transform="translate(-45.781301,-66.348899)"
         id="path13" />
    </clipPath>
    <clipPath
       clipPathUnits="userSpaceOnUse"
       id="clipPath15">
      <path
         d="M 0,155.906 H 240.945 V 0 H 0 Z"
         transform="translate(-26.026401,-75.195599)"
         id="path15" />
    </clipPath>
  </defs>
  <g
     id="layer-MC0"
     transform="translate(-10.715068,-51.461341)">
    <text
       id="text1"
       xml:space="preserve"
       transform="matrix(1.3333333,0,0,1.3333333,130.73173,116.92413)"><tspan
         style="font-style:normal;font-variant:normal;font-weight:300;font-stretch:normal;font-size:65.6029px;font-family:Roboto;-inkscape-font-specification:'Roboto Light';writing-mode:lr-tb;fill:#9b9b9b;fill-opacity:1;fill-rule:nonzero;stroke:none"
         x="0 38.180889 60.551476"
         y="0"
         id="tspan1">utt</tspan></text>
    <text
       id="text2"
       xml:space="preserve"
       transform="matrix(1.3333333,0,0,1.3333333,135.88613,134.98667)"><tspan
         style="font-style:normal;font-variant:normal;font-weight:bold;font-stretch:normal;font-size:6.4483px;font-family:Roboto;-inkscape-font-specification:'Roboto Bold';writing-mode:lr-tb;fill:#9b9b9b;fill-opacity:1;fill-rule:nonzero;stroke:none"
         x="0 5.8421597 11.684319 14.779504 20.021971 25.503027 31.222668 36.587654 39.682838 44.925304 55.068481 61.026711 70.92485 76.16732 81.648376 87.606606 93.448761 99.290924 105.37167 110.37555 116.4563 122.53705 125.63223"
         y="0"
         id="tspan2">UNIVERSITÉDETECHNOLOGIE</tspan></text>
    <text
       id="text3"
       xml:space="preserve"
       transform="matrix(1.3333333,0,0,1.3333333,135.7936,158.82133)"><tspan
         style="font-style:normal;font-variant:normal;font-weight:500;font-stretch:normal;font-size:15.0504px;font-family:Roboto;-inkscape-font-specification:'Roboto Medium';writing-mode:lr-tb;fill:#9b9b9b;fill-opacity:1;fill-rule:nonzero;stroke:none"
         x="0 12.883142 26.067293 40.124367 52.375393 64.551163"
         y="0"
         id="tspan3">TROYES</tspan></text>
    <path
       id="path3"
       d="m 0,0 c 1.021,-2.175 -0.914,-5.234 -4.321,-6.834 -3.408,-1.601 -6.997,-1.136 -8.018,1.038 -1.021,2.174 0.913,5.234 4.32,6.834 C -4.611,2.639 -1.021,2.174 0,0"
       style="fill:#ffffff;fill-opacity:1;fill-rule:nonzero;stroke:none"
       transform="matrix(1.3333333,0,0,-1.3333333,45.3932,108.998)"
       clip-path="url(#clipPath4)" />
    <path
       id="path5"
       d="M 53.877,62.287 C 35.33,54.558 18.02,50.68 8.037,51.432 v 0 -14.71 H 88.624 V 82.13 C 80.856,75.609 68.49,68.379 53.877,62.287"
       transform="matrix(1.3333333,0,0,-1.3333333,0,207.87467)"
       style="fill:url(#radialGradient5);stroke:none" />
    <path
       id="path7"
       d="M 38.436,83.971 C 20.547,76.514 7.689,66.524 9.717,61.658 v 0 c 2.029,-4.866 18.175,-2.766 36.064,4.691 v 0 c 17.89,7.457 30.748,17.446 28.719,22.313 v 0 c -0.739,1.774 -3.356,2.622 -7.249,2.622 v 0 C 60.466,91.285 49.804,88.709 38.436,83.971 M 21.705,68.361 c -1.02,2.175 0.914,5.234 4.321,6.835 v 0 c 3.408,1.6 6.998,1.136 8.019,-1.039 v 0 c 1.021,-2.173 -0.913,-5.234 -4.321,-6.833 v 0 C 28.357,66.681 26.96,66.371 25.711,66.371 v 0 c -1.862,0 -3.394,0.689 -4.006,1.99"
       transform="matrix(1.3333333,0,0,-1.3333333,0,207.87467)"
       style="fill:url(#radialGradient7);stroke:none" />
    <path
       id="path9"
       d="M 8.037,117.31 V 69.265 c 7.772,6.506 20.11,13.712 34.683,19.787 v 0 c 18.587,7.747 35.931,11.624 45.904,10.85 v 0 17.408 z"
       transform="matrix(1.3333333,0,0,-1.3333333,0,207.87467)"
       style="fill:url(#radialGradient9);stroke:none" />
    <path
       id="path10"
       d="M 0,0 V -17.773"
       style="fill:#ffffff;fill-opacity:1;fill-rule:nonzero;stroke:none"
       transform="matrix(1.3333333,0,0,-1.3333333,118.16533,74.671867)"
       clip-path="url(#clipPath11)" />
    <path
       id="path12"
       d="m 0,0 c -17.889,-7.456 -34.036,-9.557 -36.064,-4.69 -2.028,4.866 10.83,14.855 28.719,22.312 17.889,7.456 34.036,9.557 36.064,4.69 C 30.748,17.447 17.89,7.457 0,0 M -3.061,22.703 C -17.634,16.628 -29.972,9.422 -37.745,2.916 v -17.833 c 9.984,-0.752 27.294,3.126 45.84,10.855 C 22.709,2.03 35.075,9.26 42.843,15.78 V 33.553 C 32.87,34.327 15.526,30.45 -3.061,22.703"
       style="fill:#ffffff;fill-opacity:1;fill-rule:nonzero;stroke:none"
       transform="matrix(1.3333333,0,0,-1.3333333,61.041733,119.40947)"
       clip-path="url(#clipPath13)" />
    <path
       id="path14"
       d="m 0,0 c -3.407,-1.601 -5.342,-4.66 -4.321,-6.834 1.021,-2.174 4.612,-2.639 8.019,-1.038 3.407,1.6 5.342,4.66 4.321,6.834 C 6.998,1.136 3.408,1.601 0,0"
       style="fill:#ffffff;fill-opacity:1;fill-rule:nonzero;stroke:none"
       transform="matrix(1.3333333,0,0,-1.3333333,34.701867,107.61387)"
       clip-path="url(#clipPath15)" />
  </g>
  <metadata
     id="metadata15">
    <rdf:RDF>
      <cc:Work
         rdf:about="">
        <dc:source>https://moodle.utt.fr/course/view.php?id=1749</dc:source>
      </cc:Work>
    </rdf:RDF>
  </metadata>
</svg>
