<?xml version="1.0" encoding="UTF-8" standalone="no"?>
<!-- Created with Inkscape (http://www.inkscape.org/) -->

<svg
   version="1.1"
   id="svg1"
   width="107.508"
   height="107.507"
   viewBox="0 0 107.508 107.50701"
   sodipodi:docname="UTT_Logo_Blanc_logo.svg"
   inkscape:version="1.3.2 (091e20ef0f, 2023-11-25, custom)"
   xmlns:inkscape="http://www.inkscape.org/namespaces/inkscape"
   xmlns:sodipodi="http://sodipodi.sourceforge.net/DTD/sodipodi-0.dtd"
   xmlns="http://www.w3.org/2000/svg"
   xmlns:svg="http://www.w3.org/2000/svg"
   xmlns:rdf="http://www.w3.org/1999/02/22-rdf-syntax-ns#"
   xmlns:cc="http://creativecommons.org/ns#"
   xmlns:dc="http://purl.org/dc/elements/1.1/">
  <defs
     id="defs1">
    <clipPath
       clipPathUnits="userSpaceOnUse"
       id="clipPath4">
      <path
         d="M 0,155.906 H 240.945 V 0 H 0 Z"
         transform="translate(-41.001501,-89.442602)"
         id="path4" />
    </clipPath>
    <clipPath
       clipPathUnits="userSpaceOnUse"
       id="clipPath6">
      <path
         d="M 0,155.906 H 240.945 V 0 H 0 Z"
         transform="translate(-52.163101,-62.664299)"
         id="path6" />
    </clipPath>
    <clipPath
       clipPathUnits="userSpaceOnUse"
       id="clipPath8">
      <path
         d="M 0,155.906 H 240.945 V 0 H 0 Z"
         transform="translate(-27.998001,-67.702402)"
         id="path8" />
    </clipPath>
  </defs>
  <sodipodi:namedview
     id="namedview1"
     pagecolor="#505050"
     bordercolor="#ffffff"
     borderopacity="1"
     inkscape:showpageshadow="0"
     inkscape:pageopacity="0"
     inkscape:pagecheckerboard="1"
     inkscape:deskcolor="#505050"
     borderlayer="true"
     inkscape:zoom="3.547268"
     inkscape:cx="41.017481"
     inkscape:cy="71.745354"
     inkscape:window-width="1504"
     inkscape:window-height="975"
     inkscape:window-x="0"
     inkscape:window-y="0"
     inkscape:window-maximized="1"
     inkscape:current-layer="layer-MC0" />
  <g
     id="layer-MC0"
     inkscape:groupmode="layer"
     inkscape:label="Calque 1"
     transform="translate(-8.3980015,-50.920535)"
     style="display:inline">
    <path
       id="path3"
       d="M 0,0 C 18.595,7.751 35.949,11.63 45.928,10.857 V 28.273 H -34.703 V -19.793 C -26.926,-13.284 -14.577,-6.076 0,0"
       style="fill:#ffffff;fill-opacity:1;fill-rule:nonzero;stroke:none"
       transform="matrix(1.3333333,0,0,-1.3333333,54.668667,88.617867)"
       clip-path="url(#clipPath4)" />
    <path
       id="path5"
       clip-path="url(#clipPath6)"
       style="fill:#ffffff;fill-opacity:1;fill-rule:nonzero;stroke:none"
       d="M 34.766261 19.846712 C 26.993285 13.32473 14.616614 6.0925251 -0.00034106251 -0.00045656251 C -18.555285 -7.7344334 -35.87563 -11.61427 -45.8646 -10.862273 L -45.8646 -25.579559 L 34.766261 -25.579559 L 34.766261 19.846712 z M 25.392726 6.5928053 L 26.943996 6.5928053 L 26.943996 0.052277814 L 31.523097 0.052277814 L 31.523097 -1.2939136 L 26.943996 -1.2939136 L 26.943996 -15.965789 C 26.943996 -19.354863 28.54062 -19.682292 31.480617 -19.600066 L 31.480617 -20.950652 C 28.294754 -21.15354 25.229248 -20.704361 25.392726 -15.965789 L 25.392726 -1.2939136 L 21.512355 -1.2939136 L 21.512355 0.052277814 L 25.392726 0.052277814 L 25.392726 6.5928053 z M 16.360499 4.1992506 L 16.360499 0.052277814 L 20.938136 0.052277814 L 20.938136 -1.2939136 L 16.360499 -1.2939136 L 16.360499 -15.965789 C 16.360499 -19.354866 17.955022 -19.682292 20.90005 -19.600066 L 20.90005 -20.950652 C 17.709157 -21.15354 14.647039 -20.704366 14.8063 -15.965789 L 14.8063 -1.2939136 L 10.927394 -1.2939136 L 10.927394 0.052277814 L 14.8063 0.052277814 L 14.8063 3.3804029 C 15.328195 3.648 15.847038 3.9191656 16.360499 4.1992506 z M 8.6378427 0.052277814 L 8.6378427 -20.950652 L 7.0851083 -20.950652 L 7.0851083 -16.453582 L 7.0030771 -16.453582 C 5.942905 -19.601014 2.752452 -21.441375 -0.51596608 -21.441375 C -7.910249 -21.441375 -7.9925288 -15.517763 -7.9925288 -12.939422 L -7.9925288 -6.6274099 C -7.4792284 -6.4422 -6.9631552 -6.2471586 -6.4412592 -6.0531911 L -6.4412592 -13.227996 C -6.4412592 -15.392453 -6.1948796 -20.092254 -0.47348561 -20.092254 C 4.2263351 -20.092254 7.0851083 -16.453721 7.0851083 -11.306121 L 7.0851083 -0.71676517 L 8.6378427 0.052277814 z "
       transform="matrix(1.3333333,0,0,-1.3333333,69.5508,124.32227)" />
    <path
       id="path7"
       d="M 0,0 C -3.409,-1.602 -7.001,-1.136 -8.022,1.039 -9.044,3.214 -7.109,6.275 -3.7,7.877 -0.291,9.478 3.302,9.013 4.323,6.838 5.345,4.662 3.409,1.602 0,0 M 44.781,21.395 C 42.737,26.325 26.542,24.292 8.608,16.856 -9.325,9.42 -22.206,-0.605 -20.161,-5.535 c 2.044,-4.93 18.239,-2.899 36.173,4.538 17.933,7.436 30.814,17.462 28.769,22.392"
       style="fill:#ffffff;fill-opacity:1;fill-rule:nonzero;stroke:none"
       transform="matrix(1.3333333,0,0,-1.3333333,37.330667,117.6048)"
       clip-path="url(#clipPath8)" />
  </g>
  <metadata
     id="metadata8">
    <rdf:RDF>
      <cc:Work
         rdf:about="">
        <dc:source>https://moodle.utt.fr/course/view.php?id=1749</dc:source>
      </cc:Work>
    </rdf:RDF>
  </metadata>
</svg>
