<?xml version="1.0" encoding="UTF-8" standalone="no"?>
<!-- Created with Inkscape (http://www.inkscape.org/) -->

<svg
   version="1.1"
   id="svg1"
   width="298.36761"
   height="107.70446"
   viewBox="0 0 298.36761 107.70446"
   sodipodi:docname="UTT_Logo_Blanc.ai.svg"
   inkscape:version="1.3.2 (091e20ef0f, 2023-11-25, custom)"
   xmlns:inkscape="http://www.inkscape.org/namespaces/inkscape"
   xmlns:sodipodi="http://sodipodi.sourceforge.net/DTD/sodipodi-0.dtd"
   xmlns="http://www.w3.org/2000/svg"
   xmlns:svg="http://www.w3.org/2000/svg"
   xmlns:rdf="http://www.w3.org/1999/02/22-rdf-syntax-ns#"
   xmlns:cc="http://creativecommons.org/ns#"
   xmlns:dc="http://purl.org/dc/elements/1.1/">
  <title
     id="title1">UTT</title>
  <sodipodi:namedview
     id="namedview1"
     pagecolor="#505050"
     bordercolor="#ffffff"
     borderopacity="1"
     inkscape:showpageshadow="0"
     inkscape:pageopacity="0"
     inkscape:pagecheckerboard="1"
     inkscape:deskcolor="#505050"
     inkscape:zoom="2.7181234"
     inkscape:cx="149.18381"
     inkscape:cy="53.897479"
     inkscape:window-width="1504"
     inkscape:window-height="975"
     inkscape:window-x="0"
     inkscape:window-y="0"
     inkscape:window-maximized="1"
     inkscape:current-layer="svg1" />
  <defs
     id="defs1">
    <clipPath
       clipPathUnits="userSpaceOnUse"
       id="clipPath5">
      <path
         d="M 0,155.906 H 240.945 V 0 H 0 Z"
         transform="translate(-41.001501,-89.442602)"
         id="path5" />
    </clipPath>
    <clipPath
       clipPathUnits="userSpaceOnUse"
       id="clipPath7">
      <path
         d="M 0,155.906 H 240.945 V 0 H 0 Z"
         transform="translate(-52.163101,-62.664299)"
         id="path7" />
    </clipPath>
    <clipPath
       clipPathUnits="userSpaceOnUse"
       id="clipPath9">
      <path
         d="M 0,155.906 H 240.945 V 0 H 0 Z"
         transform="translate(-27.998001,-67.702402)"
         id="path9" />
    </clipPath>
  </defs>
  <g
     id="layer-MC0"
     transform="translate(-8.3980017,-50.920537)">
    <path
       id="path1"
       d="m 31.358409,-33.856236 h -4.136718 v 17.777344 c 0,6.8906248 -3.082032,13.5820311 -10.171875,13.5820311 -6.550782,0 -8.8476566,-3.2109375 -9.0468754,-9.3164061 V -33.856236 H 3.8662219 v 21.984375 c 0,7.8750001 3.3515625,12.85546881 11.8828121,12.85546881 5.050782,0 9.503907,-2.55468751 11.671875,-7.08984371 h 0.128907 v 6.1054687125 h 3.808593 z m 17.323243,-10.160156 h -4.136719 v 10.160156 h -5.90625 v 3.480469 h 5.90625 v 23.1562498 c -0.07031,5.7773438 1.839844,7.61718751 7.347656,7.61718751 1.242188,0 2.425781,-0.140625 3.667969,-0.140625 V -3.2820172 c -1.171875,0.1289063 -2.355469,0.1992188 -3.539063,0.1992188 -2.953125,-0.1992188 -3.339843,-1.7695313 -3.339843,-4.4648438 V -30.375767 h 6.878906 v -3.480469 h -6.878906 z m 22.371093,0 h -4.136718 v 10.160156 h -5.90625 v 3.480469 h 5.90625 v 23.1562498 c -0.07031,5.7773438 1.839843,7.61718751 7.347656,7.61718751 1.242187,0 2.425781,-0.140625 3.667969,-0.140625 V -3.2820172 c -1.171875,0.1289063 -2.355469,0.1992188 -3.539063,0.1992188 -2.953125,-0.1992188 -3.339844,-1.7695313 -3.339844,-4.4648438 V -30.375767 h 6.878907 v -3.480469 h -6.878907 z m 0,0"
       style="fill:#ffffff;fill-opacity:1;fill-rule:nonzero;stroke:none"
       aria-label="utt"
       transform="matrix(1.3333333,0,0,1.3333333,128.5716,117.71587)" />
    <path
       id="path2"
       d="M 4.3950531,-4.6051844 H 3.1880219 v 2.7773438 c 0,0.5859375 -0.2109375,0.89062498 -0.796875,0.89062498 -0.5976563,0 -0.8085938,-0.30468748 -0.8085938,-0.89062498 V -4.6051844 H 0.37552188 v 2.7070313 c 0,1.33593748 0.62109375,1.99218748 2.01562502,1.99218748 1.3828125,0 2.0039062,-0.65625 2.0039062,-1.99218748 z M 6.2407563,2.84375e-4 h 1.125 V -2.8708094 H 7.377475 L 8.9829438,2.84375e-4 H 10.213413 V -4.6051844 H 9.0884125 v 2.8359375 H 9.0766938 L 7.471225,-4.6051844 H 6.2407563 Z m 5.8535157,0 h 1.207031 V -4.6051844 H 12.094272 Z M 19.022983,-4.6051844 h -1.242188 l -0.902343,3.421875 h -0.01172 l -0.902344,-3.421875 h -1.253906 l 1.453125,4.605468775 h 1.371094 z m 1.40918,4.605468775 h 3.738281 V -1.0309656 h -2.53125 v -0.8789063 h 2.25 v -0.9257812 h -2.25 v -0.8085938 h 2.460937 v -0.9609375 h -3.667968 z m 5.481445,0 h 1.207031 V -1.6754969 h 0.902344 c 0.5625,0 0.644531,0.4804688 0.667969,0.93750003 0.01172,0.12890625 0.03516,0.5859375 0.140625,0.738281245 H 30.01517 C 29.851108,-0.16377812 29.839389,-0.84346562 29.82767,-1.0426844 29.7808,-1.4762781 29.64017,-2.0270594 29.147983,-2.1442469 v -0.011719 c 0.492187,-0.1875 0.726562,-0.65625 0.726562,-1.1484375 0,-0.9257813 -0.796875,-1.3007813 -1.617187,-1.3007813 h -2.34375 z M 27.120639,-3.6442469 h 0.949219 c 0.339844,0 0.609375,0.1523438 0.609375,0.5039063 0,0.3398437 -0.199219,0.5390625 -0.5625,0.5390625 h -0.996094 z m 4.253906,2.0976563 c 0,1.18359373 0.9375,1.64062498 1.992188,1.64062498 1.019531,0 2.003906,-0.375 2.003906,-1.53515628 0,-0.8320312 -0.667969,-1.1484375 -1.335937,-1.3359375 -0.667969,-0.1757812 -1.324219,-0.2460937 -1.324219,-0.5976562 0,-0.3046875 0.316406,-0.3984375 0.574219,-0.3984375 0.363281,0 0.761718,0.140625 0.738281,0.5625 h 1.207031 c -0.01172,-1.0429688 -0.9375,-1.4882813 -1.851562,-1.4882813 -0.855469,0 -1.875,0.3984375 -1.875,1.3945313 0,0.84375 0.691406,1.1484375 1.347656,1.3359375 0.667969,0.1875 1.324219,0.2578125 1.324219,0.6679687 0,0.33984378 -0.375,0.46875003 -0.738282,0.46875003 -0.503906,0 -0.84375,-0.17578123 -0.867187,-0.71484373 z m 5.622071,1.546874975 h 1.207031 V -4.6051844 H 36.996616 Z M 43.749545,-4.6051844 h -3.949218 v 1.03125 H 41.17142 V 2.84375e-4 h 1.195313 V -3.5739344 h 1.382812 z m 1.584961,4.605468775 h 3.738281 V -1.0309656 h -2.53125 v -0.8789063 h 2.25 v -0.9257812 h -2.25 v -0.8085938 h 2.460938 v -0.9609375 h -3.667969 z m 1.757813,-5.847656275 -0.621094,0.9609375 h 0.773437 l 1.007813,-0.9609375 z m 8.387695,5.847656275 h 1.980469 c 1.394531,0 2.261719,-0.808593745 2.261719,-2.320312475 0,-1.4296875 -0.84375,-2.2851563 -2.261719,-2.2851563 H 55.480014 Z M 56.687045,-3.5739344 h 0.5625 c 0.820313,0 1.265625,0.4101563 1.265625,1.2421875 0,0.9257813 -0.363281,1.2773438 -1.265625,1.3007813 h -0.5625 z M 61.436069,2.84375e-4 H 65.17435 V -1.0309656 H 62.6431 v -0.8789063 h 2.25 v -0.9257812 h -2.25 v -0.8085938 h 2.460937 V -4.6051844 H 61.436069 Z M 74.991733,-4.6051844 h -3.949219 v 1.03125 h 1.371094 V 2.84375e-4 H 73.60892 V -3.5739344 h 1.382813 z m 1.584961,4.605468775 h 3.738281 V -1.0309656 h -2.53125 v -0.8789063 h 2.25 v -0.9257812 h -2.25 v -0.8085938 h 2.460937 V -4.6051844 H 76.576694 Z M 86.312045,-2.9528406 c -0.03516,-1.1132813 -1.101562,-1.7460938 -2.097656,-1.7460938 -1.394531,0 -2.296875,1.0664063 -2.296875,2.4023438 0,1.32421873 0.902344,2.39062498 2.296875,2.39062498 1.160156,0 2.039063,-0.69140625 2.097656,-1.87499998 h -1.195312 c -0.04687,0.5273437 -0.363281,0.84374998 -0.925781,0.84374998 -0.773438,0 -1.078125,-0.67968748 -1.078125,-1.35937498 0,-0.6914063 0.304687,-1.3710938 1.078125,-1.3710938 0.503906,0 0.855468,0.2460938 0.925781,0.7148438 z m 1.69336,2.953124975 h 1.195312 V -1.8981531 h 1.582031 V 2.84375e-4 h 1.195313 V -4.6051844 h -1.195313 v 1.6757813 h -1.582031 v -1.6757813 h -1.195312 z m 5.841797,0 h 1.125 V -2.8708094 h 0.01172 L 96.589391,2.84375e-4 H 97.81986 V -4.6051844 h -1.125 v 2.8359375 H 96.68314 L 95.07767,-4.6051844 H 93.847202 Z M 99.524936,-2.2965906 c 0,1.32421873 0.820314,2.39062498 2.273434,2.39062498 1.45313,0 2.27344,-1.06640625 2.27344,-2.39062498 0,-1.3359375 -0.82031,-2.4023438 -2.27344,-2.4023438 -1.45312,0 -2.273434,1.0664063 -2.273434,2.4023438 z m 1.207034,0 c 0,-0.6914063 0.29297,-1.3710938 1.0664,-1.3710938 0.77344,0 1.06641,0.6796875 1.06641,1.3710938 0,0.6796875 -0.29297,1.35937498 -1.06641,1.35937498 -0.77343,0 -1.0664,-0.67968748 -1.0664,-1.35937498 z m 5.05078,2.296874975 h 3.35156 V -1.0309656 h -2.14453 v -3.5742188 h -1.20703 z m 4.82812,-2.296874975 c 0,1.32421873 0.82032,2.39062498 2.27344,2.39062498 1.45313,0 2.27344,-1.06640625 2.27344,-2.39062498 0,-1.3359375 -0.82031,-2.4023438 -2.27344,-2.4023438 -1.45312,0 -2.27344,1.0664063 -2.27344,2.4023438 z m 1.20703,0 c 0,-0.6914063 0.29297,-1.3710938 1.06641,-1.3710938 0.77344,0 1.06641,0.6796875 1.06641,1.3710938 0,0.6796875 -0.29297,1.35937498 -1.06641,1.35937498 -0.77344,0 -1.06641,-0.67968748 -1.06641,-1.35937498 z m 9.30176,-0.2226563 h -1.93359 v 0.890625 h 0.83203 c -0.0586,0.421875 -0.45703,0.69140628 -1.05469,0.69140628 -0.77344,0 -1.0664,-0.67968748 -1.0664,-1.35937498 0,-0.6914063 0.29296,-1.3710938 1.0664,-1.3710938 0.48047,0 0.86719,0.234375 0.91406,0.6328125 h 1.19532 c -0.11719,-1.1601562 -1.125,-1.6640625 -2.08594,-1.6640625 -1.39453,0 -2.29688,1.0664063 -2.29688,2.4023438 0,1.32421873 0.90235,2.39062498 2.29688,2.39062498 0.42187,0 0.97266,-0.15234375 1.28906,-0.59765625 l 0.0703,0.503906245 h 0.77344 z m 1.82813,2.519531275 h 1.20703 V -4.6051844 h -1.20703 z m 3.09375,0 h 3.73828 V -1.0309656 h -2.53125 v -0.8789063 h 2.25 v -0.9257812 h -2.25 v -0.8085938 h 2.46094 v -0.9609375 h -3.66797 z m 0,0"
       style="fill:#ffffff;fill-opacity:1;fill-rule:nonzero;stroke:none"
       aria-label="UNIVERSITÉDETECHNOLOGIE"
       transform="matrix(1.3333333,0,0,1.3333333,133.72587,134.44493)" />
    <path
       id="path3"
       d="M 0.11669688,-10.744856 H 8.8120094 V -9.11595 H 5.4018531 V 0.0012375 H 3.5151344 V -9.11595 H 0.11669688 Z m 13.91601612,0 h 5.121093 c 1.186524,0 2.074219,0.257812 2.660157,0.7734373 0.591796,0.5097656 0.890625,1.21875 0.890625,2.1328125 0,0.515625 -0.07617,0.9433593 -0.222657,1.2773437 -0.149414,0.3369141 -0.325195,0.6064453 -0.527343,0.8085938 -0.19629,0.2050781 -0.395508,0.3515625 -0.597657,0.4453125 -0.196289,0.087891 -0.336914,0.1464843 -0.421875,0.1757812 v 0.035156 c 0.155274,0.017578 0.328125,0.067383 0.515625,0.1523437 0.1875,0.079102 0.357422,0.2080078 0.515625,0.3867188 0.164063,0.1728515 0.295899,0.3984375 0.398438,0.6796875 0.108398,0.28125 0.164062,0.6328125 0.164062,1.0546875 0,0.6328125 0.04687,1.2070312 0.140625,1.7226562 0.09375,0.515625 0.240235,0.88476563 0.445313,1.1015625 h -2.015625 c -0.140625,-0.234375 -0.222656,-0.48632812 -0.246094,-0.76171875 -0.02344,-0.28124995 -0.03516,-0.55371095 -0.03516,-0.82031245 0,-0.4921875 -0.03223,-0.9140625 -0.09375,-1.265625 -0.06445,-0.3574219 -0.175781,-0.65625 -0.339844,-0.890625 -0.158203,-0.234375 -0.37207,-0.4042969 -0.644531,-0.515625 -0.275391,-0.1083985 -0.629883,-0.1640625 -1.066406,-0.1640625 h -2.765625 v 4.4179687 h -1.875 z m 1.875,4.8984373 h 3.082031 c 0.600586,0 1.057617,-0.1435547 1.371094,-0.4335938 0.310546,-0.2871094 0.46875,-0.7177734 0.46875,-1.2890625 0,-0.3427734 -0.05274,-0.6210937 -0.152344,-0.8320312 C 20.574705,-8.6179031 20.43408,-8.787825 20.255369,-8.9050125 20.082517,-9.0280594 19.883298,-9.1100906 19.657713,-9.1511062 19.437986,-9.1891922 19.206541,-9.2097 18.966306,-9.2097 h -3.058593 z m 15.878906,-3.6210938 c -0.571289,0 -1.066406,0.1171875 -1.488281,0.3515625 -0.416016,0.2285156 -0.75586,0.5361328 -1.019532,0.9257813 -0.257812,0.383789 -0.451172,0.8203125 -0.574218,1.3125 -0.125977,0.4921875 -0.1875,0.9960937 -0.1875,1.5117187 0,0.5097656 0.06152,1.0078125 0.1875,1.5 0.123046,0.4921875 0.316406,0.9345703 0.574218,1.3242188 0.263672,0.383789 0.603516,0.6914062 1.019532,0.9257812 0.421875,0.2285156 0.916992,0.3398438 1.488281,0.3398438 0.568359,0 1.060547,-0.1113282 1.476562,-0.3398438 0.421875,-0.234375 0.761719,-0.5419922 1.019532,-0.9257812 0.257812,-0.3896485 0.448242,-0.8320313 0.574218,-1.3242188 0.131836,-0.4921875 0.199219,-0.9902344 0.199219,-1.5 0,-0.515625 -0.06738,-1.0195312 -0.199219,-1.5117187 -0.125976,-0.4921875 -0.316406,-0.928711 -0.574218,-1.3125 C 34.0249,-8.5798172 33.685056,-8.8874344 33.263181,-9.11595 32.847166,-9.350325 32.354978,-9.4675125 31.786619,-9.4675125 Z m 0,-1.5351565 c 0.802734,0 1.523437,0.152344 2.15625,0.457032 0.638672,0.298828 1.177734,0.7031245 1.617187,1.2187495 0.445313,0.5097656 0.785157,1.1074219 1.019532,1.7929688 0.234375,0.6796875 0.351562,1.4033203 0.351562,2.1679687 0,0.7675781 -0.117187,1.4941406 -0.351562,2.1796875 -0.234375,0.6796875 -0.574219,1.2773438 -1.019532,1.7929688 -0.439453,0.50976558 -0.978515,0.91113276 -1.617187,1.2070312 -0.632813,0.29589844 -1.353516,0.4453125 -2.15625,0.4453125 -0.805664,0 -1.529297,-0.14941406 -2.167969,-0.4453125 -0.632812,-0.29589844 -1.171875,-0.69726562 -1.617187,-1.2070312 -0.439454,-0.515625 -0.773438,-1.1132813 -1.007813,-1.7929688 -0.234375,-0.6855469 -0.351562,-1.4121094 -0.351562,-2.1796875 0,-0.7646484 0.117187,-1.4882812 0.351562,-2.1679687 0.234375,-0.6855469 0.568359,-1.2832032 1.007813,-1.7929688 0.445312,-0.515625 0.984375,-0.9199215 1.617187,-1.2187495 0.638672,-0.304688 1.362305,-0.457032 2.167969,-0.457032 z m 12.27539,6.7851565 -4.03125,-6.5273435 h 2.179688 l 2.847656,4.816406 2.800781,-4.816406 h 2.109375 l -4.019531,6.5273435 v 4.21875 H 44.062009 Z M 53.5249,-10.744856 h 7.734375 V -9.11595 H 55.3999 v 2.8125 h 5.414063 v 1.5351563 H 55.3999 v 3.140625 h 5.964844 V 0.0012375 H 53.5249 Z M 66.93115,-3.5847 c 0,0.4160156 0.07031,0.7705078 0.210938,1.0664063 0.140625,0.290039 0.333984,0.5273437 0.585937,0.7148437 0.249023,0.1816406 0.533203,0.3134766 0.855469,0.3984375 0.328125,0.087891 0.682617,0.1289063 1.066406,0.1289063 0.413086,0 0.764648,-0.046875 1.054688,-0.140625 0.287109,-0.099609 0.521484,-0.225586 0.703125,-0.375 0.1875,-0.1464844 0.319335,-0.319336 0.398437,-0.515625 0.07617,-0.1933594 0.117188,-0.3925782 0.117188,-0.5976563 0,-0.4042969 -0.09375,-0.7060547 -0.28125,-0.9023437 -0.181641,-0.2021485 -0.38379,-0.3427735 -0.609375,-0.421875 -0.375,-0.140625 -0.817383,-0.272461 -1.324219,-0.3984375 -0.509766,-0.1230469 -1.133789,-0.2871094 -1.875,-0.4921875 -0.462891,-0.1171875 -0.84375,-0.272461 -1.148438,-0.46875 -0.304687,-0.1933594 -0.550781,-0.413086 -0.738281,-0.65625 -0.181641,-0.2402344 -0.310547,-0.4951172 -0.386719,-0.7617188 -0.07031,-0.2724609 -0.105468,-0.5507812 -0.105468,-0.8320312 0,-0.5390625 0.111328,-1.0078125 0.339843,-1.40625 0.225586,-0.3984375 0.521485,-0.7265625 0.890625,-0.9843748 0.375,-0.263672 0.796875,-0.459961 1.265625,-0.585938 0.47461,-0.123047 0.952149,-0.1875 1.429688,-0.1875 0.5625,0 1.089844,0.07617 1.582031,0.222657 0.498047,0.149414 0.9375,0.36914 1.3125,0.65625 0.375,0.2900386 0.670898,0.6503901 0.890625,1.0781245 0.225586,0.421875 0.339844,0.9140625 0.339844,1.4765625 H 71.61865 c -0.04687,-0.6855469 -0.28125,-1.1748047 -0.703125,-1.4648437 -0.421875,-0.2871094 -0.958008,-0.4335938 -1.605469,-0.4335938 -0.228515,0 -0.457031,0.023437 -0.691406,0.070312 -0.228516,0.046875 -0.433594,0.1259766 -0.621094,0.234375 -0.1875,0.1025391 -0.345703,0.2431641 -0.46875,0.421875 -0.125976,0.1816406 -0.1875,0.4072266 -0.1875,0.6796875 0,0.3837891 0.117188,0.6855469 0.351563,0.9023438 0.234375,0.2109375 0.541992,0.3720703 0.925781,0.4804687 0.03809,0.00879 0.193359,0.052734 0.46875,0.1289063 0.272461,0.070312 0.580078,0.1523437 0.925781,0.2460937 0.342774,0.09375 0.673828,0.1845703 0.996094,0.2695313 0.328125,0.079102 0.5625,0.140625 0.703125,0.1875 0.351563,0.1113281 0.65625,0.2578125 0.914063,0.4453125 0.263671,0.1875 0.483398,0.4072265 0.65625,0.65625 0.17871,0.243164 0.310546,0.5039062 0.398437,0.7851562 0.08496,0.28125 0.128906,0.5625 0.128906,0.84375 0,0.6035156 -0.125976,1.1191406 -0.375,1.546875 -0.243164,0.421875 -0.568359,0.77050781 -0.972656,1.04296875 -0.398437,0.27539063 -0.855469,0.47460938 -1.371094,0.59765625 -0.509765,0.12304688 -1.02832,0.1875 -1.558593,0.1875 -0.609375,0 -1.189454,-0.0791016 -1.734375,-0.234375 -0.539063,-0.14648437 -1.013672,-0.375 -1.417969,-0.6796875 -0.398438,-0.31054687 -0.720703,-0.7089844 -0.960938,-1.1953125 -0.234375,-0.4921875 -0.360351,-1.0693359 -0.375,-1.734375 z m 0,0"
       style="fill:#ffffff;fill-opacity:1;fill-rule:nonzero;stroke:none"
       aria-label="TROYES"
       transform="matrix(1.3333333,0,0,1.3333333,133.63347,158.2796)" />
    <path
       id="path4"
       d="M 0,0 C 18.595,7.751 35.949,11.63 45.928,10.857 V 28.273 H -34.703 V -19.793 C -26.926,-13.284 -14.577,-6.076 0,0"
       style="fill:#ffffff;fill-opacity:1;fill-rule:nonzero;stroke:none"
       transform="matrix(1.3333333,0,0,-1.3333333,54.668667,88.617867)"
       clip-path="url(#clipPath5)" />
    <path
       id="path6"
       d="m 0,0 c -18.555,-7.734 -35.875,-11.614 -45.864,-10.862 v -14.717 h 80.63 V 19.846 C 26.993,13.324 14.617,6.093 0,0"
       style="fill:#ffffff;fill-opacity:1;fill-rule:nonzero;stroke:none"
       transform="matrix(1.3333333,0,0,-1.3333333,69.5508,124.32227)"
       clip-path="url(#clipPath7)" />
    <path
       id="path8"
       d="M 0,0 C -3.409,-1.602 -7.001,-1.136 -8.022,1.039 -9.044,3.214 -7.109,6.275 -3.7,7.877 -0.291,9.478 3.302,9.013 4.323,6.838 5.345,4.662 3.409,1.602 0,0 M 44.781,21.395 C 42.737,26.325 26.542,24.292 8.608,16.856 -9.325,9.42 -22.206,-0.605 -20.161,-5.535 c 2.044,-4.93 18.239,-2.899 36.173,4.538 17.933,7.436 30.814,17.462 28.769,22.392"
       style="fill:#ffffff;fill-opacity:1;fill-rule:nonzero;stroke:none"
       transform="matrix(1.3333333,0,0,-1.3333333,37.330667,117.6048)"
       clip-path="url(#clipPath9)" />
  </g>
  <metadata
     id="metadata1">
    <rdf:RDF>
      <cc:Work
         rdf:about="">
        <dc:source>https://moodle.utt.fr/course/view.php?id=1749</dc:source>
        <dc:title>UTT</dc:title>
      </cc:Work>
    </rdf:RDF>
  </metadata>
</svg>
