<?xml version="1.0" encoding="UTF-8" standalone="no"?>
<!-- Created with Inkscape (http://www.inkscape.org/) -->

<svg
   version="1.1"
   id="svg1"
   width="298.21072"
   height="107.70272"
   viewBox="0 0 298.21072 107.70272"
   sodipodi:docname="UTT_Logo_Couleur.ai.svg"
   inkscape:version="1.3.2 (091e20ef0f, 2023-11-25, custom)"
   xmlns:inkscape="http://www.inkscape.org/namespaces/inkscape"
   xmlns:sodipodi="http://sodipodi.sourceforge.net/DTD/sodipodi-0.dtd"
   xmlns="http://www.w3.org/2000/svg"
   xmlns:svg="http://www.w3.org/2000/svg"
   xmlns:rdf="http://www.w3.org/1999/02/22-rdf-syntax-ns#"
   xmlns:cc="http://creativecommons.org/ns#"
   xmlns:dc="http://purl.org/dc/elements/1.1/">
  <title
     id="title1">UTT</title>
  <sodipodi:namedview
     id="namedview1"
     pagecolor="#505050"
     bordercolor="#ffffff"
     borderopacity="1"
     inkscape:showpageshadow="0"
     inkscape:pageopacity="0"
     inkscape:pagecheckerboard="1"
     inkscape:deskcolor="#505050"
     inkscape:zoom="2.7195534"
     inkscape:cx="149.10536"
     inkscape:cy="53.869138"
     inkscape:window-width="1504"
     inkscape:window-height="975"
     inkscape:window-x="0"
     inkscape:window-y="0"
     inkscape:window-maximized="1"
     inkscape:current-layer="svg1" />
  <defs
     id="defs1">
    <clipPath
       clipPathUnits="userSpaceOnUse"
       id="clipPath5">
      <path
         d="M 0,155.906 H 240.945 V 0 H 0 Z"
         transform="translate(-34.044901,-74.157502)"
         id="path5" />
    </clipPath>
    <radialGradient
       fx="0"
       fy="0"
       cx="0"
       cy="0"
       r="1"
       gradientUnits="userSpaceOnUse"
       gradientTransform="matrix(36.474625,-48.271706,-48.271706,-36.474625,50.149105,69.808136)"
       spreadMethod="pad"
       id="radialGradient6">
      <stop
         style="stop-opacity:1;stop-color:#009cde;"
         offset="0"
         id="stop5" />
      <stop
         style="stop-opacity:1;stop-color:#000066;"
         offset="1"
         id="stop6" />
    </radialGradient>
    <radialGradient
       fx="0"
       fy="0"
       cx="0"
       cy="0"
       r="1"
       gradientUnits="userSpaceOnUse"
       gradientTransform="matrix(36.474625,-48.271706,-48.271706,-36.474625,50.149105,69.808136)"
       spreadMethod="pad"
       id="radialGradient8">
      <stop
         style="stop-opacity:1;stop-color:#009cde;"
         offset="0"
         id="stop7" />
      <stop
         style="stop-opacity:1;stop-color:#000066;"
         offset="1"
         id="stop8" />
    </radialGradient>
    <radialGradient
       fx="0"
       fy="0"
       cx="0"
       cy="0"
       r="1"
       gradientUnits="userSpaceOnUse"
       gradientTransform="matrix(36.474625,-48.271706,-48.271706,-36.474625,50.149105,69.808136)"
       spreadMethod="pad"
       id="radialGradient10">
      <stop
         style="stop-opacity:1;stop-color:#009cde;"
         offset="0"
         id="stop9" />
      <stop
         style="stop-opacity:1;stop-color:#000066;"
         offset="1"
         id="stop10" />
    </radialGradient>
    <clipPath
       clipPathUnits="userSpaceOnUse"
       id="clipPath12">
      <path
         d="M 0,155.906 H 240.945 V 0 H 0 Z"
         transform="translate(-88.624,-99.902102)"
         id="path12" />
    </clipPath>
    <clipPath
       clipPathUnits="userSpaceOnUse"
       id="clipPath14">
      <path
         d="M 0,155.906 H 240.945 V 0 H 0 Z"
         transform="translate(-45.781301,-66.348899)"
         id="path14" />
    </clipPath>
    <clipPath
       clipPathUnits="userSpaceOnUse"
       id="clipPath16">
      <path
         d="M 0,155.906 H 240.945 V 0 H 0 Z"
         transform="translate(-26.026401,-75.195599)"
         id="path16" />
    </clipPath>
  </defs>
  <g
     id="layer-MC0"
     transform="translate(-10.715068,-51.461343)">
    <path
       id="path1"
       d="m 31.358427,-33.854233 h -4.136719 v 17.777344 c 0,6.8906249 -3.082031,13.5820312 -10.171875,13.5820312 -6.550781,0 -8.8476564,-3.2109375 -9.0468752,-9.3164062 V -33.854233 H 3.8662391 v 21.984375 c 0,7.8750002 3.3515625,12.85546894 11.8828129,12.85546894 5.050781,0 9.503906,-2.55468754 11.671875,-7.08984374 h 0.128906 v 6.10546874 h 3.808594 z M 48.681669,-44.014389 H 44.54495 v 10.160156 H 38.6387 v 3.480469 h 5.90625 v 23.1562499 c -0.07031,5.7773438 1.839844,7.61718754 7.347656,7.61718754 1.242188,0 2.425781,-0.140625 3.667969,-0.140625 V -3.2800141 c -1.171875,0.1289063 -2.355469,0.1992188 -3.539063,0.1992188 -2.953125,-0.1992188 -3.339843,-1.7695313 -3.339843,-4.4648438 V -30.373764 h 6.878906 v -3.480469 h -6.878906 z m 22.371093,0 h -4.136718 v 10.160156 h -5.90625 v 3.480469 h 5.90625 v 23.1562499 c -0.07031,5.7773438 1.839843,7.61718754 7.347656,7.61718754 1.242187,0 2.425781,-0.140625 3.667969,-0.140625 V -3.2800141 c -1.171875,0.1289063 -2.355469,0.1992188 -3.539063,0.1992188 -2.953125,-0.1992188 -3.339844,-1.7695313 -3.339844,-4.4648438 V -30.373764 h 6.878907 v -3.480469 h -6.878907 z m 0,0"
       style="fill:#9b9b9b;fill-opacity:1;fill-rule:nonzero;stroke:none"
       aria-label="utt"
       transform="matrix(1.3333333,0,0,1.3333333,130.73173,116.92413)" />
    <path
       id="path2"
       d="M 4.3949703,-4.6042578 H 3.1879391 v 2.7773437 c 0,0.5859375 -0.2109375,0.89062504 -0.796875,0.89062504 -0.5976563,0 -0.8085938,-0.30468754 -0.8085938,-0.89062504 V -4.6042578 H 0.37543906 v 2.7070312 c 0,1.33593754 0.62109375,1.99218754 2.01562504,1.99218754 1.3828125,0 2.0039062,-0.65625 2.0039062,-1.99218754 z m 1.8457031,4.60546874 h 1.125 V -2.8698828 h 0.011719 L 8.9828609,0.00121094 H 10.21333 V -4.6042578 H 9.0883297 v 2.8359375 H 9.0766109 L 7.4711422,-4.6042578 H 6.2406734 Z m 5.8535156,0 H 13.30122 V -4.6042578 H 12.094189 Z M 19.0229,-4.6042578 h -1.242188 l -0.902343,3.421875 h -0.01172 l -0.902344,-3.421875 H 14.7104 l 1.453125,4.60546874 h 1.371094 z m 1.40918,4.60546874 h 3.738281 V -1.0300391 h -2.53125 v -0.8789062 h 2.25 v -0.9257813 h -2.25 v -0.8085937 h 2.460937 V -4.6042578 H 20.43208 Z m 5.481445,0 h 1.207031 V -1.6745703 H 28.0229 c 0.5625,0 0.644531,0.4804687 0.667969,0.93749999 0.01172,0.12890625 0.03516,0.5859375 0.140625,0.73828125 h 1.183593 c -0.164062,-0.1640625 -0.175781,-0.84375 -0.1875,-1.04296874 -0.04687,-0.4335938 -0.1875,-0.984375 -0.679687,-1.1015625 v -0.011719 c 0.492187,-0.1875 0.726562,-0.65625 0.726562,-1.1484375 0,-0.9257812 -0.796875,-1.3007812 -1.617187,-1.3007812 h -2.34375 z m 1.207031,-3.64453124 h 0.949219 c 0.339844,0 0.609375,0.1523437 0.609375,0.5039062 0,0.3398438 -0.199219,0.5390625 -0.5625,0.5390625 h -0.996094 z m 4.253906,2.0976562 c 0,1.18359379 0.9375,1.64062504 1.992188,1.64062504 1.019531,0 2.003906,-0.375 2.003906,-1.53515624 0,-0.8320313 -0.667969,-1.1484375 -1.335937,-1.3359375 C 33.36665,-2.9519141 32.7104,-3.0222266 32.7104,-3.3737891 c 0,-0.3046875 0.316406,-0.3984375 0.574219,-0.3984375 0.363281,0 0.761718,0.140625 0.738281,0.5625 h 1.207031 c -0.01172,-1.0429687 -0.9375,-1.4882812 -1.851562,-1.4882812 -0.855469,0 -1.875,0.3984375 -1.875,1.3945312 0,0.84375 0.691406,1.1484375 1.347656,1.3359375 0.667969,0.1875 1.324219,0.2578125 1.324219,0.6679688 0,0.33984374 -0.375,0.46874999 -0.738282,0.46874999 -0.503906,0 -0.84375,-0.17578129 -0.867187,-0.71484379 z m 5.622071,1.54687504 h 1.207031 V -4.6042578 h -1.207031 z m 6.752929,-4.60546874 h -3.949218 v 1.03125 h 1.371093 V 0.00121094 H 42.36665 V -3.5730078 h 1.382812 z m 1.584961,4.60546874 h 3.738282 V -1.0300391 h -2.53125 v -0.8789062 h 2.25 v -0.9257813 h -2.25 v -0.8085937 h 2.460937 v -0.9609375 h -3.667969 z m 1.757813,-5.84765624 -0.621094,0.9609375 h 0.773438 l 1.007812,-0.9609375 z m 8.387695,5.84765624 H 57.4604 c 1.394531,0 2.261719,-0.80859375 2.261719,-2.32031254 0,-1.4296875 -0.84375,-2.2851562 -2.261719,-2.2851562 h -1.980469 z m 1.207031,-3.57421874 h 0.5625 c 0.820313,0 1.265625,0.4101562 1.265625,1.2421875 0,0.9257812 -0.363281,1.2773437 -1.265625,1.3007812 h -0.5625 z m 4.749024,3.57421874 h 3.738281 V -1.0300391 h -2.53125 v -0.8789062 h 2.25 v -0.9257813 h -2.25 v -0.8085937 h 2.460938 V -4.6042578 H 61.435986 Z M 74.99165,-4.6042578 h -3.949219 v 1.03125 h 1.371094 v 3.57421874 h 1.195312 V -3.5730078 h 1.382813 z m 1.584961,4.60546874 h 3.738281 V -1.0300391 h -2.53125 v -0.8789062 h 2.25 v -0.9257813 h -2.25 v -0.8085937 h 2.460938 v -0.9609375 h -3.667969 z m 9.735351,-2.95312504 c -0.03516,-1.1132812 -1.101562,-1.7460937 -2.097656,-1.7460937 -1.394531,0 -2.296875,1.0664062 -2.296875,2.4023437 0,1.32421879 0.902344,2.39062504 2.296875,2.39062504 1.160156,0 2.039063,-0.69140625 2.097656,-1.87500004 H 85.11665 c -0.04687,0.5273438 -0.363281,0.84375004 -0.925781,0.84375004 -0.773438,0 -1.078125,-0.67968754 -1.078125,-1.35937504 0,-0.6914062 0.304687,-1.3710937 1.078125,-1.3710937 0.503906,0 0.855468,0.2460937 0.925781,0.7148437 z m 1.69336,2.95312504 h 1.195312 V -1.8972266 h 1.582032 v 1.89843754 h 1.195312 V -4.6042578 h -1.195312 v 1.6757812 h -1.582032 v -1.6757812 h -1.195312 z m 5.841797,0 h 1.125 V -2.8698828 h 0.01172 l 1.605469,2.87109374 h 1.230469 V -4.6042578 h -1.125 v 2.8359375 h -0.01172 L 95.077588,-4.6042578 H 93.84712 Z m 5.677734,-2.29687504 c 0,1.32421879 0.820317,2.39062504 2.273437,2.39062504 1.45313,0 2.27344,-1.06640625 2.27344,-2.39062504 0,-1.3359375 -0.82031,-2.4023437 -2.27344,-2.4023437 -1.45312,0 -2.273437,1.0664062 -2.273437,2.4023437 z m 1.207027,0 c 0,-0.6914062 0.29297,-1.3710937 1.06641,-1.3710937 0.77344,0 1.06641,0.6796875 1.06641,1.3710937 0,0.6796875 -0.29297,1.35937504 -1.06641,1.35937504 -0.77344,0 -1.06641,-0.67968754 -1.06641,-1.35937504 z m 5.05079,2.29687504 h 3.35156 V -1.0300391 h -2.14453 v -3.5742187 h -1.20703 z m 4.82812,-2.29687504 c 0,1.32421879 0.82031,2.39062504 2.27344,2.39062504 1.45312,0 2.27344,-1.06640625 2.27344,-2.39062504 0,-1.3359375 -0.82032,-2.4023437 -2.27344,-2.4023437 -1.45313,0 -2.27344,1.0664062 -2.27344,2.4023437 z m 1.20703,0 c 0,-0.6914062 0.29297,-1.3710937 1.06641,-1.3710937 0.77344,0 1.0664,0.6796875 1.0664,1.3710937 0,0.6796875 -0.29296,1.35937504 -1.0664,1.35937504 -0.77344,0 -1.06641,-0.67968754 -1.06641,-1.35937504 z m 9.30176,-0.2226562 h -1.93359 v 0.890625 h 0.83203 c -0.0586,0.421875 -0.45703,0.69140624 -1.05469,0.69140624 -0.77344,0 -1.06641,-0.67968754 -1.06641,-1.35937504 0,-0.6914062 0.29297,-1.3710937 1.06641,-1.3710937 0.48047,0 0.86719,0.234375 0.91406,0.6328125 h 1.19531 c -0.11718,-1.1601563 -1.125,-1.6640625 -2.08593,-1.6640625 -1.39453,0 -2.29688,1.0664062 -2.29688,2.4023437 0,1.32421879 0.90235,2.39062504 2.29688,2.39062504 0.42187,0 0.97265,-0.15234375 1.28906,-0.59765625 l 0.0703,0.50390625 h 0.77344 z m 1.82812,2.51953124 h 1.20704 V -4.6042578 h -1.20704 z m 3.09375,0 h 3.73829 V -1.0300391 h -2.53125 v -0.8789062 h 2.25 v -0.9257813 h -2.25 v -0.8085937 h 2.46093 v -0.9609375 h -3.66797 z m 0,0"
       style="fill:#9b9b9b;fill-opacity:1;fill-rule:nonzero;stroke:none"
       aria-label="UNIVERSITÉDETECHNOLOGIE"
       transform="matrix(1.3333333,0,0,1.3333333,135.88613,134.98667)" />
    <path
       id="path3"
       d="M 0.11671406,-10.746859 H 8.8120266 v 1.6289059 H 5.4018703 V -7.65625e-4 H 3.5151516 V -9.1179531 H 0.11671406 Z m 13.91601594,0 h 5.121093 c 1.186524,0 2.074219,0.257812 2.660157,0.7734371 0.591797,0.5097657 0.890625,1.21875 0.890625,2.1328125 0,0.515625 -0.07617,0.9433594 -0.222657,1.2773438 -0.149414,0.336914 -0.325195,0.6064453 -0.527343,0.8085937 -0.196289,0.2050782 -0.395508,0.3515625 -0.597657,0.4453125 -0.196289,0.087891 -0.336914,0.1464844 -0.421875,0.1757813 v 0.035156 c 0.155274,0.017578 0.328125,0.067383 0.515625,0.1523438 0.1875,0.079102 0.357422,0.2080078 0.515625,0.3867187 0.164063,0.1728516 0.295899,0.3984375 0.398438,0.6796875 0.108398,0.28125 0.164062,0.6328125 0.164062,1.0546875 0,0.6328125 0.04687,1.2070313 0.140625,1.7226563 0.09375,0.51562498 0.240235,0.8847656 0.445313,1.101562475 H 21.099136 C 20.958511,-0.23514062 20.87648,-0.48709375 20.853042,-0.76248437 c -0.02344,-0.28125003 -0.03516,-0.55371093 -0.03516,-0.82031253 0,-0.4921875 -0.03223,-0.9140625 -0.09375,-1.265625 -0.06445,-0.3574218 -0.175781,-0.65625 -0.339844,-0.890625 -0.158203,-0.234375 -0.37207,-0.4042968 -0.644531,-0.515625 -0.275391,-0.1083984 -0.629883,-0.1640625 -1.066406,-0.1640625 H 15.90773 v 4.417968775 h -1.875 z m 1.875,4.8984371 h 3.082031 c 0.600586,0 1.057617,-0.1435547 1.371094,-0.4335937 0.310547,-0.2871094 0.46875,-0.7177735 0.46875,-1.2890625 0,-0.3427735 -0.05274,-0.6210938 -0.152344,-0.8320313 -0.102539,-0.2167968 -0.243164,-0.3867187 -0.421875,-0.5039062 -0.172852,-0.1230469 -0.37207,-0.2050781 -0.597656,-0.2460938 -0.219727,-0.038086 -0.451172,-0.058594 -0.691407,-0.058594 H 15.90773 Z m 15.878906,-3.6210937 c -0.571289,0 -1.066406,0.1171875 -1.488281,0.3515625 -0.416016,0.2285156 -0.75586,0.5361328 -1.019532,0.9257812 -0.257812,0.3837891 -0.451171,0.8203125 -0.574218,1.3125 -0.125977,0.4921875 -0.1875,0.9960938 -0.1875,1.5117188 0,0.5097656 0.06152,1.0078125 0.1875,1.5 0.123047,0.4921875 0.316406,0.9345703 0.574218,1.3242187 0.263672,0.3837891 0.603516,0.6914063 1.019532,0.9257813 0.421875,0.2285156 0.916992,0.3398437 1.488281,0.3398437 0.568359,0 1.060547,-0.1113281 1.476562,-0.3398437 0.421875,-0.234375 0.761719,-0.5419922 1.019532,-0.9257813 0.257812,-0.3896484 0.448242,-0.8320312 0.574218,-1.3242187 0.131836,-0.4921875 0.199219,-0.9902344 0.199219,-1.5 0,-0.515625 -0.06738,-1.0195313 -0.199219,-1.5117188 -0.125976,-0.4921875 -0.316406,-0.9287109 -0.574218,-1.3125 -0.257813,-0.3896484 -0.597657,-0.6972656 -1.019532,-0.9257812 -0.416015,-0.234375 -0.908203,-0.3515625 -1.476562,-0.3515625 z m 0,-1.5351564 c 0.802734,0 1.523437,0.152344 2.15625,0.457031 0.638672,0.298829 1.177734,0.7031254 1.617187,1.2187504 0.445313,0.5097656 0.785157,1.1074219 1.019532,1.7929687 0.234375,0.6796875 0.351562,1.4033203 0.351562,2.1679688 0,0.7675781 -0.117187,1.4941406 -0.351562,2.1796875 -0.234375,0.6796875 -0.574219,1.2773437 -1.019532,1.7929687 -0.439453,0.50976565 -0.978515,0.91113284 -1.617187,1.20703128 -0.632813,0.29589843 -1.353516,0.4453125 -2.15625,0.4453125 -0.805664,0 -1.529297,-0.14941407 -2.167969,-0.4453125 -0.632812,-0.29589844 -1.171875,-0.69726563 -1.617187,-1.20703128 -0.439453,-0.515625 -0.773438,-1.1132812 -1.007813,-1.7929687 -0.234375,-0.6855469 -0.351562,-1.4121094 -0.351562,-2.1796875 0,-0.7646485 0.117187,-1.4882813 0.351562,-2.1679688 0.234375,-0.6855468 0.56836,-1.2832031 1.007813,-1.7929687 0.445312,-0.515625 0.984375,-0.9199214 1.617187,-1.2187504 0.638672,-0.304687 1.362305,-0.457031 2.167969,-0.457031 z m 12.275391,6.7851564 -4.03125,-6.5273434 h 2.179687 l 2.847656,4.8164059 2.800782,-4.8164059 h 2.109375 l -4.019532,6.5273434 v 4.218749975 h -1.886718 z m 9.46289,-6.5273434 h 7.734375 v 1.6289059 h -5.859375 v 2.8125 h 5.414063 v 1.5351562 h -5.414063 v 3.140625 h 5.964844 v 1.628906275 h -7.839844 z m 13.40625,7.1601559 c 0,0.4160156 0.07031,0.7705078 0.210938,1.0664062 0.140625,0.2900391 0.333984,0.5273438 0.585937,0.7148438 0.249024,0.1816406 0.533203,0.3134765 0.855469,0.3984375 0.328125,0.087891 0.682617,0.1289062 1.066406,0.1289062 0.413086,0 0.764649,-0.046875 1.054688,-0.140625 0.287109,-0.099609 0.521484,-0.2255859 0.703125,-0.375 0.1875,-0.1464843 0.319336,-0.3193359 0.398437,-0.515625 0.07617,-0.1933593 0.117188,-0.3925781 0.117188,-0.5976562 0,-0.4042969 -0.09375,-0.7060547 -0.28125,-0.9023438 -0.181641,-0.2021484 -0.383789,-0.3427734 -0.609375,-0.421875 -0.375,-0.140625 -0.817383,-0.2724609 -1.324219,-0.3984375 -0.509766,-0.1230468 -1.133789,-0.2871093 -1.875,-0.4921875 -0.462891,-0.1171875 -0.84375,-0.2724609 -1.148438,-0.46875 -0.304687,-0.1933593 -0.550781,-0.4130859 -0.738281,-0.65625 -0.18164,-0.2402343 -0.310547,-0.4951172 -0.386719,-0.7617187 -0.07031,-0.272461 -0.105468,-0.5507813 -0.105468,-0.8320313 0,-0.5390625 0.111328,-1.0078125 0.339843,-1.40625 0.225586,-0.3984375 0.521485,-0.7265625 0.890625,-0.9843746 0.375,-0.263672 0.796875,-0.459961 1.265625,-0.585938 0.47461,-0.123047 0.952149,-0.1875 1.429688,-0.1875 0.5625,0 1.089844,0.07617 1.582031,0.222656 0.498047,0.149414 0.9375,0.369141 1.3125,0.65625 0.375,0.2900394 0.670899,0.650391 0.890625,1.0781254 0.225586,0.421875 0.339844,0.9140625 0.339844,1.4765625 h -1.886719 c -0.04687,-0.6855469 -0.28125,-1.1748047 -0.703125,-1.4648438 -0.421875,-0.2871093 -0.958008,-0.4335937 -1.605469,-0.4335937 -0.228515,0 -0.457031,0.023437 -0.691406,0.070312 -0.228515,0.046875 -0.433594,0.1259765 -0.621094,0.234375 -0.1875,0.102539 -0.345703,0.243164 -0.46875,0.421875 -0.125976,0.1816406 -0.1875,0.4072265 -0.1875,0.6796875 0,0.383789 0.117188,0.6855469 0.351563,0.9023437 0.234375,0.2109375 0.541992,0.3720703 0.925781,0.4804688 0.03809,0.00879 0.19336,0.052734 0.46875,0.1289062 0.272461,0.070312 0.580078,0.1523438 0.925781,0.2460938 0.342774,0.09375 0.673829,0.1845703 0.996094,0.2695312 0.328125,0.079102 0.5625,0.140625 0.703125,0.1875 0.351563,0.1113282 0.65625,0.2578125 0.914063,0.4453125 0.263672,0.1875 0.483398,0.4072266 0.65625,0.65625 0.178711,0.2431641 0.310547,0.5039063 0.398437,0.7851563 0.08496,0.28125 0.128906,0.5625 0.128906,0.84375 0,0.6035156 -0.125976,1.1191406 -0.375,1.546875 -0.243164,0.421875 -0.568359,0.77050779 -0.972656,1.04296873 -0.398437,0.27539062 -0.855469,0.47460937 -1.371094,0.59765625 -0.509765,0.12304687 -1.02832,0.1875 -1.558593,0.1875 -0.609375,0 -1.189453,-0.0791016 -1.734375,-0.234375 -0.539063,-0.14648438 -1.013672,-0.375 -1.417969,-0.6796875 C 65.981948,-0.9675625 65.659683,-1.366 65.419448,-1.8523281 c -0.234375,-0.4921875 -0.360351,-1.069336 -0.375,-1.734375 z m 0,0"
       style="fill:#9b9b9b;fill-opacity:1;fill-rule:nonzero;stroke:none"
       aria-label="TROYES"
       transform="matrix(1.3333333,0,0,1.3333333,135.7936,158.82133)" />
    <path
       id="path4"
       d="m 0,0 c 1.021,-2.175 -0.914,-5.234 -4.321,-6.834 -3.408,-1.601 -6.997,-1.136 -8.018,1.038 -1.021,2.174 0.913,5.234 4.32,6.834 C -4.611,2.639 -1.021,2.174 0,0"
       style="fill:#ffffff;fill-opacity:1;fill-rule:nonzero;stroke:none"
       transform="matrix(1.3333333,0,0,-1.3333333,45.3932,108.998)"
       clip-path="url(#clipPath5)" />
    <path
       id="path6"
       d="M 53.877,62.287 C 35.33,54.558 18.02,50.68 8.037,51.432 v 0 -14.71 H 88.624 V 82.13 C 80.856,75.609 68.49,68.379 53.877,62.287"
       transform="matrix(1.3333333,0,0,-1.3333333,0,207.87467)"
       style="fill:url(#radialGradient6);stroke:none" />
    <path
       id="path8"
       d="M 38.436,83.971 C 20.547,76.514 7.689,66.524 9.717,61.658 v 0 c 2.029,-4.866 18.175,-2.766 36.064,4.691 v 0 c 17.89,7.457 30.748,17.446 28.719,22.313 v 0 c -0.739,1.774 -3.356,2.622 -7.249,2.622 v 0 C 60.466,91.285 49.804,88.709 38.436,83.971 M 21.705,68.361 c -1.02,2.175 0.914,5.234 4.321,6.835 v 0 c 3.408,1.6 6.998,1.136 8.019,-1.039 v 0 c 1.021,-2.173 -0.913,-5.234 -4.321,-6.833 v 0 C 28.357,66.681 26.96,66.371 25.711,66.371 v 0 c -1.862,0 -3.394,0.689 -4.006,1.99"
       transform="matrix(1.3333333,0,0,-1.3333333,0,207.87467)"
       style="fill:url(#radialGradient8);stroke:none" />
    <path
       id="path10"
       d="M 8.037,117.31 V 69.265 c 7.772,6.506 20.11,13.712 34.683,19.787 v 0 c 18.587,7.747 35.931,11.624 45.904,10.85 v 0 17.408 z"
       transform="matrix(1.3333333,0,0,-1.3333333,0,207.87467)"
       style="fill:url(#radialGradient10);stroke:none" />
    <path
       id="path11"
       d="M 0,0 V -17.773"
       style="fill:#ffffff;fill-opacity:1;fill-rule:nonzero;stroke:none"
       transform="matrix(1.3333333,0,0,-1.3333333,118.16533,74.671867)"
       clip-path="url(#clipPath12)" />
    <path
       id="path13"
       d="m 0,0 c -17.889,-7.456 -34.036,-9.557 -36.064,-4.69 -2.028,4.866 10.83,14.855 28.719,22.312 17.889,7.456 34.036,9.557 36.064,4.69 C 30.748,17.447 17.89,7.457 0,0 M -3.061,22.703 C -17.634,16.628 -29.972,9.422 -37.745,2.916 v -17.833 c 9.984,-0.752 27.294,3.126 45.84,10.855 C 22.709,2.03 35.075,9.26 42.843,15.78 V 33.553 C 32.87,34.327 15.526,30.45 -3.061,22.703"
       style="fill:#ffffff;fill-opacity:1;fill-rule:nonzero;stroke:none"
       transform="matrix(1.3333333,0,0,-1.3333333,61.041733,119.40947)"
       clip-path="url(#clipPath14)" />
    <path
       id="path15"
       d="m 0,0 c -3.407,-1.601 -5.342,-4.66 -4.321,-6.834 1.021,-2.174 4.612,-2.639 8.019,-1.038 3.407,1.6 5.342,4.66 4.321,6.834 C 6.998,1.136 3.408,1.601 0,0"
       style="fill:#ffffff;fill-opacity:1;fill-rule:nonzero;stroke:none"
       transform="matrix(1.3333333,0,0,-1.3333333,34.701867,107.61387)"
       clip-path="url(#clipPath16)" />
  </g>
  <metadata
     id="metadata1">
    <rdf:RDF>
      <cc:Work
         rdf:about="">
        <dc:source>https://moodle.utt.fr/course/view.php?id=1749</dc:source>
        <dc:title>UTT</dc:title>
      </cc:Work>
    </rdf:RDF>
  </metadata>
</svg>
