<?xml version="1.0" encoding="UTF-8" standalone="no"?>
<!-- Created with Inkscape (http://www.inkscape.org/) -->

<svg
   version="1.1"
   id="svg1"
   width="107.451"
   height="107.45066"
   viewBox="0 0 107.451 107.45066"
   sodipodi:docname="UTT_Logo_Couleur_logo.svg"
   inkscape:version="1.3.2 (091e20ef0f, 2023-11-25, custom)"
   xmlns:inkscape="http://www.inkscape.org/namespaces/inkscape"
   xmlns:sodipodi="http://sodipodi.sourceforge.net/DTD/sodipodi-0.dtd"
   xmlns="http://www.w3.org/2000/svg"
   xmlns:svg="http://www.w3.org/2000/svg"
   xmlns:rdf="http://www.w3.org/1999/02/22-rdf-syntax-ns#"
   xmlns:cc="http://creativecommons.org/ns#"
   xmlns:dc="http://purl.org/dc/elements/1.1/">
  <sodipodi:namedview
     id="namedview1"
     pagecolor="#505050"
     bordercolor="#ffffff"
     borderopacity="1"
     inkscape:showpageshadow="0"
     inkscape:pageopacity="0"
     inkscape:pagecheckerboard="1"
     inkscape:deskcolor="#505050"
     inkscape:zoom="6.3191596"
     inkscape:cx="53.725498"
     inkscape:cy="59.10596"
     inkscape:window-width="1504"
     inkscape:window-height="975"
     inkscape:window-x="0"
     inkscape:window-y="0"
     inkscape:window-maximized="1"
     inkscape:current-layer="layer-MC0" />
  <defs
     id="defs1">
    <clipPath
       clipPathUnits="userSpaceOnUse"
       id="clipPath4">
      <path
         d="M 0,155.906 H 240.945 V 0 H 0 Z"
         transform="translate(-34.044901,-74.157502)"
         id="path4" />
    </clipPath>
    <radialGradient
       fx="0"
       fy="0"
       cx="0"
       cy="0"
       r="1"
       gradientUnits="userSpaceOnUse"
       gradientTransform="matrix(36.474625,-48.271706,-48.271706,-36.474625,50.149105,69.808136)"
       spreadMethod="pad"
       id="radialGradient5">
      <stop
         style="stop-opacity:1;stop-color:#009cde"
         offset="0"
         id="stop4" />
      <stop
         style="stop-opacity:1;stop-color:#000066"
         offset="1"
         id="stop5" />
    </radialGradient>
    <radialGradient
       fx="0"
       fy="0"
       cx="0"
       cy="0"
       r="1"
       gradientUnits="userSpaceOnUse"
       gradientTransform="matrix(36.474625,-48.271706,-48.271706,-36.474625,50.149105,69.808136)"
       spreadMethod="pad"
       id="radialGradient7">
      <stop
         style="stop-opacity:1;stop-color:#009cde"
         offset="0"
         id="stop6" />
      <stop
         style="stop-opacity:1;stop-color:#000066"
         offset="1"
         id="stop7" />
    </radialGradient>
    <radialGradient
       fx="0"
       fy="0"
       cx="0"
       cy="0"
       r="1"
       gradientUnits="userSpaceOnUse"
       gradientTransform="matrix(36.474625,-48.271706,-48.271706,-36.474625,50.149105,69.808136)"
       spreadMethod="pad"
       id="radialGradient9">
      <stop
         style="stop-opacity:1;stop-color:#009cde"
         offset="0"
         id="stop8" />
      <stop
         style="stop-opacity:1;stop-color:#000066"
         offset="1"
         id="stop9" />
    </radialGradient>
    <clipPath
       clipPathUnits="userSpaceOnUse"
       id="clipPath11">
      <path
         d="M 0,155.906 H 240.945 V 0 H 0 Z"
         transform="translate(-88.624,-99.902102)"
         id="path11" />
    </clipPath>
    <clipPath
       clipPathUnits="userSpaceOnUse"
       id="clipPath13">
      <path
         d="M 0,155.906 H 240.945 V 0 H 0 Z"
         transform="translate(-45.781301,-66.348899)"
         id="path13" />
    </clipPath>
    <clipPath
       clipPathUnits="userSpaceOnUse"
       id="clipPath15">
      <path
         d="M 0,155.906 H 240.945 V 0 H 0 Z"
         transform="translate(-26.026401,-75.195599)"
         id="path15" />
    </clipPath>
    <clipPath
       clipPathUnits="userSpaceOnUse"
       id="clipPath25">
      <path
         d="M 0,1080 H 1920 V 0 H 0 Z"
         transform="matrix(1.3333333,0,0,-1.3333333,0,1440)"
         id="path25" />
    </clipPath>
    <clipPath
       clipPathUnits="userSpaceOnUse"
       id="clipPath19">
      <path
         d="m 1217.48,489.16 h 243.65 V 316.3 h -243.65 z"
         transform="translate(-1310.4474,-444.09481)"
         id="path19" />
    </clipPath>
    <clipPath
       clipPathUnits="userSpaceOnUse"
       id="clipPath20">
      <path
         d="m 1217.48,489.16 h 243.65 V 316.3 h -243.65 z"
         transform="translate(-1395.8652,-440.53621)"
         id="path20" />
    </clipPath>
    <clipPath
       clipPathUnits="userSpaceOnUse"
       id="clipPath21">
      <path
         d="m 1217.48,489.16 h 243.65 V 316.3 h -243.65 z"
         transform="translate(-1461.1348,-440.53621)"
         id="path21" />
    </clipPath>
  </defs>
  <g
     id="layer-MC0"
     transform="translate(-10.715068,-51.461341)">
    <path
       id="path3"
       d="m 0,0 c 1.021,-2.175 -0.914,-5.234 -4.321,-6.834 -3.408,-1.601 -6.997,-1.136 -8.018,1.038 -1.021,2.174 0.913,5.234 4.32,6.834 C -4.611,2.639 -1.021,2.174 0,0"
       style="fill:#ffffff;fill-opacity:1;fill-rule:nonzero;stroke:none"
       transform="matrix(1.3333333,0,0,-1.3333333,45.3932,108.998)"
       clip-path="url(#clipPath4)" />
    <path
       id="path5"
       d="M 53.877,62.287 C 35.33,54.558 18.02,50.68 8.037,51.432 v 0 -14.71 H 88.624 V 82.13 C 80.856,75.609 68.49,68.379 53.877,62.287"
       transform="matrix(1.3333333,0,0,-1.3333333,0,207.87467)"
       style="fill:url(#radialGradient5);stroke:none" />
    <path
       id="path7"
       d="M 38.436,83.971 C 20.547,76.514 7.689,66.524 9.717,61.658 v 0 c 2.029,-4.866 18.175,-2.766 36.064,4.691 v 0 c 17.89,7.457 30.748,17.446 28.719,22.313 v 0 c -0.739,1.774 -3.356,2.622 -7.249,2.622 v 0 C 60.466,91.285 49.804,88.709 38.436,83.971 M 21.705,68.361 c -1.02,2.175 0.914,5.234 4.321,6.835 v 0 c 3.408,1.6 6.998,1.136 8.019,-1.039 v 0 c 1.021,-2.173 -0.913,-5.234 -4.321,-6.833 v 0 C 28.357,66.681 26.96,66.371 25.711,66.371 v 0 c -1.862,0 -3.394,0.689 -4.006,1.99"
       transform="matrix(1.3333333,0,0,-1.3333333,0,207.87467)"
       style="fill:url(#radialGradient7);stroke:none" />
    <path
       id="path9"
       d="M 8.037,117.31 V 69.265 c 7.772,6.506 20.11,13.712 34.683,19.787 v 0 c 18.587,7.747 35.931,11.624 45.904,10.85 v 0 17.408 z"
       transform="matrix(1.3333333,0,0,-1.3333333,0,207.87467)"
       style="fill:url(#radialGradient9);stroke:none" />
    <path
       id="path10"
       d="M 0,0 V -17.773"
       style="fill:#ffffff;fill-opacity:1;fill-rule:nonzero;stroke:none"
       transform="matrix(1.3333333,0,0,-1.3333333,118.16533,74.671867)"
       clip-path="url(#clipPath11)" />
    <path
       id="path12"
       d="m 0,0 c -17.889,-7.456 -34.036,-9.557 -36.064,-4.69 -2.028,4.866 10.83,14.855 28.719,22.312 17.889,7.456 34.036,9.557 36.064,4.69 C 30.748,17.447 17.89,7.457 0,0 M -3.061,22.703 C -17.634,16.628 -29.972,9.422 -37.745,2.916 v -17.833 c 9.984,-0.752 27.294,3.126 45.84,10.855 C 22.709,2.03 35.075,9.26 42.843,15.78 V 33.553 C 32.87,34.327 15.526,30.45 -3.061,22.703"
       style="fill:#ffffff;fill-opacity:1;fill-rule:nonzero;stroke:none"
       transform="matrix(1.3333333,0,0,-1.3333333,61.041733,119.40947)"
       clip-path="url(#clipPath13)" />
    <path
       id="path14"
       d="m 0,0 c -3.407,-1.601 -5.342,-4.66 -4.321,-6.834 1.021,-2.174 4.612,-2.639 8.019,-1.038 3.407,1.6 5.342,4.66 4.321,6.834 C 6.998,1.136 3.408,1.601 0,0"
       style="fill:#ffffff;fill-opacity:1;fill-rule:nonzero;stroke:none"
       transform="matrix(1.3333333,0,0,-1.3333333,34.701867,107.61387)"
       clip-path="url(#clipPath15)" />
    <g
       id="g24"
       clip-path="url(#clipPath25)"
       transform="matrix(0.16208515,0,0,0.16208515,-202.1398,-11.518037)">
      <path
         d="m 0,0 v -65.294 c 0,-31.74 -17.627,-54.18 -46.606,-54.18 -35.278,0 -36.793,28.979 -36.793,42.325 v 44.239 c -3.218,-1.196 -6.407,-2.394 -9.572,-3.536 v -38.923 c 0,-15.898 0.506,-52.426 46.099,-52.426 20.153,0 39.828,11.354 46.365,30.761 H 0 v -27.729 H 9.571 V 4.736 Z"
         style="fill:#ffffff;fill-opacity:1;fill-rule:nonzero;stroke:none"
         transform="matrix(1.3333333,0,0,-1.3333333,1747.2631,847.8736)"
         clip-path="url(#clipPath19)"
         id="path22" />
      <path
         d="m 0,0 v 8.295 h -28.23 v 25.573 c -3.166,-1.727 -6.357,-3.401 -9.575,-5.051 V 8.295 H -61.73 V 0 h 23.925 v -90.473 c -0.982,-29.218 17.893,-31.982 37.568,-30.731 v 8.321 c -18.159,-0.507 -27.993,1.513 -27.993,22.41 V 0 Z"
         style="fill:#ffffff;fill-opacity:1;fill-rule:nonzero;stroke:none"
         transform="matrix(1.3333333,0,0,-1.3333333,1861.1536,852.6184)"
         clip-path="url(#clipPath20)"
         id="path23" />
      <path
         d="m 0,0 v 8.295 h -28.236 v 40.329 h -9.571 V 8.295 H -61.732 V 0 h 23.925 v -90.473 c -1.008,-29.218 17.895,-31.982 37.539,-30.731 v 8.321 c -18.128,-0.507 -27.968,1.513 -27.968,22.41 V 0 Z"
         style="fill:#ffffff;fill-opacity:1;fill-rule:nonzero;stroke:none"
         transform="matrix(1.3333333,0,0,-1.3333333,1948.1797,852.6184)"
         clip-path="url(#clipPath21)"
         id="path24" />
    </g>
  </g>
  <metadata
     id="metadata15">
    <rdf:RDF>
      <cc:Work
         rdf:about="">
        <dc:source>https://moodle.utt.fr/course/view.php?id=1749</dc:source>
      </cc:Work>
    </rdf:RDF>
  </metadata>
</svg>
