<svg xmlns="http://www.w3.org/2000/svg" xmlns:xlink="http://www.w3.org/1999/xlink" contentStyleType="text/css" data-diagram-type="ACTIVITY" height="640px" preserveAspectRatio="none" style="width:740px;height:640px;background:#0B58A8;" version="1.1" viewBox="0 0 740 640" width="740px" zoomAndPan="magnify"><defs/><g><rect fill="#0B58A8" height="640" style="stroke:transparent;stroke-width:1;" width="740" x="0" y="0"/><rect fill="#0B58A8" height="24.5158" style="stroke:#0B58A8;stroke-width:1;" width="717.3802" x="10" y="8.774"/><ellipse cx="112.4546" cy="48.2898" fill="#0B58A8" rx="10" ry="10" style="stroke:#FFFFFF;stroke-width:1;"/><rect fill="#0B58A8" height="36.3441" rx="12.5" ry="12.5" style="stroke:#FFFFFF;stroke-width:1;" width="192.9092" x="16" y="78.2898"/><text fill="#FFFFFF" font-family="Verdana" font-size="12" lengthAdjust="spacing" textLength="172.9092" x="26" y="101.1179">Cr&#233;er un compte PUT /account</text><rect fill="#0B58A8" height="36.3441" rx="12.5" ry="12.5" style="stroke:#FFFFFF;stroke-width:1;" width="178.1851" x="23.3621" y="134.6339"/><text fill="#FFFFFF" font-family="Verdana" font-size="12" lengthAdjust="spacing" textLength="158.1851" x="33.3621" y="157.462">Se connecter POST /account</text><rect fill="#0B58A8" height="36.3441" rx="12.5" ry="12.5" style="stroke:#FFFFFF;stroke-width:1;" width="97.2325" x="63.8383" y="240.469"/><text fill="#FFFFFF" font-family="Verdana" font-size="12" lengthAdjust="spacing" textLength="77.2325" x="73.8383" y="263.2971">Bearer acquis</text><polygon fill="#0B58A8" points="93.4082,190.978,131.501,190.978,143.501,202.978,131.501,214.978,93.4082,214.978,81.4082,202.978,93.4082,190.978" style="stroke:#FFFFFF;stroke-width:1;"/><text fill="#FFFFFF" font-family="Verdana" font-size="11" lengthAdjust="spacing" textLength="17.0829" x="116.4546" y="226.737">yes</text><text fill="#FFFFFF" font-family="Verdana" font-size="11" lengthAdjust="spacing" textLength="38.0927" x="93.4082" y="207.246">isValid?</text><text fill="#FFFFFF" font-family="Verdana" font-size="11" lengthAdjust="spacing" textLength="13.4529" x="143.501" y="199.7551">no</text><ellipse cx="178.9539" cy="202.978" fill="transparent" rx="11" ry="11" style="stroke:#FFFFFF;stroke-width:1;"/><ellipse cx="178.9539" cy="202.978" fill="#0B58A8" rx="6" ry="6" style="stroke:#FFFFFF;stroke-width:1;"/><line style="stroke:#FFFFFF;stroke-width:1;" x1="10" x2="10" y1="8.774" y2="633.2575"/><polygon fill="#0B58A8" points="457.9678,296.8131,482.9816,296.8131,494.9816,308.8131,482.9816,320.8131,457.9678,320.8131,445.9678,308.8131,457.9678,296.8131" style="stroke:#FFFFFF;stroke-width:1;"/><text fill="#FFFFFF" font-family="Verdana" font-size="11" lengthAdjust="spacing" textLength="25.0138" x="457.9678" y="313.0811">r&#244;le?</text><text fill="#FFFFFF" font-family="Verdana" font-size="11" lengthAdjust="spacing" textLength="53.9876" x="391.9802" y="305.5901">passenger</text><text fill="#FFFFFF" font-family="Verdana" font-size="11" lengthAdjust="spacing" textLength="30.4808" x="494.9816" y="305.5901">driver</text><rect fill="#0B58A8" height="296.4444" style="stroke:#FFFFFF;stroke-width:1;" width="241.5655" x="218.9092" y="330.8131"/><path d="M297.481,330.8131 L297.481,342.881 L287.481,352.881 L218.9092,352.881 " fill="transparent" style="stroke:#FFFFFF;stroke-width:1;"/><text fill="#FFFFFF" font-family="Verdana" font-size="14" lengthAdjust="spacing" textLength="68.5717" x="221.9092" y="346.779">Passenger</text><rect fill="#0B58A8" height="36.3441" rx="12.5" ry="12.5" style="stroke:#FFFFFF;stroke-width:1;" width="221.5655" x="228.9092" y="369.881"/><text fill="#FFFFFF" font-family="Verdana" font-size="12" lengthAdjust="spacing" textLength="201.5655" x="238.9092" y="392.7091">Compl&#233;ter son r&#244;le PATCH /account</text><rect fill="#0B58A8" height="36.3441" rx="12.5" ry="12.5" style="stroke:#FFFFFF;stroke-width:1;" width="191.4692" x="243.9574" y="426.2251"/><text fill="#FFFFFF" font-family="Verdana" font-size="12" lengthAdjust="spacing" textLength="171.4692" x="253.9574" y="449.0532">Trouver un trajet POST /match</text><rect fill="#0B58A8" height="36.3441" rx="12.5" ry="12.5" style="stroke:#FFFFFF;stroke-width:1;" width="202.4493" x="238.4673" y="482.5692"/><text fill="#FFFFFF" font-family="Verdana" font-size="12" lengthAdjust="spacing" textLength="182.4493" x="248.4673" y="505.3973">S'inscrire au trajet PATCH /travel</text><rect fill="#0B58A8" height="36.3441" rx="12.5" ry="12.5" style="stroke:#FFFFFF;stroke-width:1;" width="171.4651" x="253.9594" y="538.9134"/><text fill="#FFFFFF" font-family="Verdana" font-size="12" lengthAdjust="spacing" textLength="151.4651" x="263.9594" y="561.7414">Finir le trajet DELETE /state</text><ellipse cx="339.692" cy="605.2575" fill="transparent" rx="10" ry="10" style="stroke:#FFFFFF;stroke-width:1.5;"/><line style="stroke:#FFFFFF;stroke-width:2.5;" x1="333.5048" x2="345.8792" y1="599.0703" y2="611.4447"/><line style="stroke:#FFFFFF;stroke-width:2.5;" x1="345.8792" x2="333.5048" y1="599.0703" y2="611.4447"/><rect fill="#0B58A8" height="296.4444" style="stroke:#FFFFFF;stroke-width:1;" width="241.5655" x="480.4747" y="330.8131"/><path d="M530.8786,330.8131 L530.8786,342.881 L520.8786,352.881 L480.4747,352.881 " fill="transparent" style="stroke:#FFFFFF;stroke-width:1;"/><text fill="#FFFFFF" font-family="Verdana" font-size="14" lengthAdjust="spacing" textLength="40.4038" x="483.4747" y="346.779">Driver</text><rect fill="#0B58A8" height="36.3441" rx="12.5" ry="12.5" style="stroke:#FFFFFF;stroke-width:1;" width="221.5655" x="490.4747" y="369.881"/><text fill="#FFFFFF" font-family="Verdana" font-size="12" lengthAdjust="spacing" textLength="201.5655" x="500.4747" y="392.7091">Compl&#233;ter son r&#244;le PATCH /account</text><rect fill="#0B58A8" height="36.3441" rx="12.5" ry="12.5" style="stroke:#FFFFFF;stroke-width:1;" width="167.7091" x="517.4029" y="426.2251"/><text fill="#FFFFFF" font-family="Verdana" font-size="12" lengthAdjust="spacing" textLength="147.7091" x="527.4029" y="449.0532">Cr&#233;er un trajet PUT /travel</text><rect fill="#0B58A8" height="36.3441" rx="12.5" ry="12.5" style="stroke:#FFFFFF;stroke-width:1;" width="211.9654" x="495.2747" y="482.5692"/><text fill="#FFFFFF" font-family="Verdana" font-size="12" lengthAdjust="spacing" textLength="191.9654" x="505.2747" y="505.3973">Commencer le trajet PATCH /state</text><rect fill="#0B58A8" height="36.3441" rx="12.5" ry="12.5" style="stroke:#FFFFFF;stroke-width:1;" width="171.4651" x="515.5249" y="538.9134"/><text fill="#FFFFFF" font-family="Verdana" font-size="12" lengthAdjust="spacing" textLength="151.4651" x="525.5249" y="561.7414">Finir le trajet DELETE /state</text><ellipse cx="601.2575" cy="605.2575" fill="transparent" rx="10" ry="10" style="stroke:#FFFFFF;stroke-width:1.5;"/><line style="stroke:#FFFFFF;stroke-width:2.5;" x1="595.0703" x2="607.4446" y1="599.0703" y2="611.4447"/><line style="stroke:#FFFFFF;stroke-width:2.5;" x1="607.4446" x2="595.0703" y1="599.0703" y2="611.4447"/><line style="stroke:#FFFFFF;stroke-width:1;" x1="212.9092" x2="212.9092" y1="8.774" y2="633.2575"/><line style="stroke:#FFFFFF;stroke-width:1;" x1="726.0402" x2="726.0402" y1="8.774" y2="633.2575"/><line style="stroke:#FFFFFF;stroke-width:1;" x1="112.4546" x2="112.4546" y1="58.2898" y2="78.2898"/><polygon fill="#FFFFFF" points="108.4546,68.2898,112.4546,78.2898,116.4546,68.2898,112.4546,72.2898" style="stroke:#FFFFFF;stroke-width:1;"/><line style="stroke:#FFFFFF;stroke-width:1;" x1="112.4546" x2="112.4546" y1="114.6339" y2="134.6339"/><polygon fill="#FFFFFF" points="108.4546,124.6339,112.4546,134.6339,116.4546,124.6339,112.4546,128.6339" style="stroke:#FFFFFF;stroke-width:1;"/><line style="stroke:#FFFFFF;stroke-width:1;" x1="112.4546" x2="112.4546" y1="214.978" y2="240.469"/><polygon fill="#FFFFFF" points="108.4546,230.469,112.4546,240.469,116.4546,230.469,112.4546,234.469" style="stroke:#FFFFFF;stroke-width:1;"/><line style="stroke:#FFFFFF;stroke-width:1;" x1="143.501" x2="167.9539" y1="202.978" y2="202.978"/><polygon fill="#FFFFFF" points="157.9539,198.978,167.9539,202.978,157.9539,206.978,161.9539,202.978" style="stroke:#FFFFFF;stroke-width:1;"/><line style="stroke:#FFFFFF;stroke-width:1;" x1="112.4546" x2="112.4546" y1="276.8131" y2="281.8131"/><line style="stroke:#FFFFFF;stroke-width:1;" x1="112.4546" x2="470.4747" y1="281.8131" y2="281.8131"/><line style="stroke:#FFFFFF;stroke-width:1;" x1="470.4747" x2="470.4747" y1="281.8131" y2="296.8131"/><polygon fill="#FFFFFF" points="466.4747,286.8131,470.4747,296.8131,474.4747,286.8131,470.4747,290.8131" style="stroke:#FFFFFF;stroke-width:1;"/><line style="stroke:#FFFFFF;stroke-width:1;" x1="112.4546" x2="112.4546" y1="170.978" y2="190.978"/><polygon fill="#FFFFFF" points="108.4546,180.978,112.4546,190.978,116.4546,180.978,112.4546,184.978" style="stroke:#FFFFFF;stroke-width:1;"/><line style="stroke:#FFFFFF;stroke-width:1;" x1="339.692" x2="339.692" y1="406.2251" y2="426.2251"/><polygon fill="#FFFFFF" points="335.692,416.2251,339.692,426.2251,343.692,416.2251,339.692,420.2251" style="stroke:#FFFFFF;stroke-width:1;"/><line style="stroke:#FFFFFF;stroke-width:1;" x1="339.692" x2="339.692" y1="462.5692" y2="482.5692"/><polygon fill="#FFFFFF" points="335.692,472.5692,339.692,482.5692,343.692,472.5692,339.692,476.5692" style="stroke:#FFFFFF;stroke-width:1;"/><line style="stroke:#FFFFFF;stroke-width:1;" x1="339.692" x2="339.692" y1="518.9134" y2="538.9134"/><polygon fill="#FFFFFF" points="335.692,528.9134,339.692,538.9134,343.692,528.9134,339.692,532.9134" style="stroke:#FFFFFF;stroke-width:1;"/><line style="stroke:#FFFFFF;stroke-width:1;" x1="339.692" x2="339.692" y1="575.2575" y2="595.2575"/><polygon fill="#FFFFFF" points="335.692,585.2575,339.692,595.2575,343.692,585.2575,339.692,589.2575" style="stroke:#FFFFFF;stroke-width:1;"/><line style="stroke:#FFFFFF;stroke-width:1;" x1="601.2575" x2="601.2575" y1="406.2251" y2="426.2251"/><polygon fill="#FFFFFF" points="597.2575,416.2251,601.2575,426.2251,605.2575,416.2251,601.2575,420.2251" style="stroke:#FFFFFF;stroke-width:1;"/><line style="stroke:#FFFFFF;stroke-width:1;" x1="601.2575" x2="601.2575" y1="462.5692" y2="482.5692"/><polygon fill="#FFFFFF" points="597.2575,472.5692,601.2575,482.5692,605.2575,472.5692,601.2575,476.5692" style="stroke:#FFFFFF;stroke-width:1;"/><line style="stroke:#FFFFFF;stroke-width:1;" x1="601.2575" x2="601.2575" y1="518.9134" y2="538.9134"/><polygon fill="#FFFFFF" points="597.2575,528.9134,601.2575,538.9134,605.2575,528.9134,601.2575,532.9134" style="stroke:#FFFFFF;stroke-width:1;"/><line style="stroke:#FFFFFF;stroke-width:1;" x1="601.2575" x2="601.2575" y1="575.2575" y2="595.2575"/><polygon fill="#FFFFFF" points="597.2575,585.2575,601.2575,595.2575,605.2575,585.2575,601.2575,589.2575" style="stroke:#FFFFFF;stroke-width:1;"/><line style="stroke:#FFFFFF;stroke-width:1;" x1="445.9678" x2="339.692" y1="308.8131" y2="308.8131"/><line style="stroke:#FFFFFF;stroke-width:1;" x1="339.692" x2="339.692" y1="308.8131" y2="369.881"/><polygon fill="#FFFFFF" points="335.692,359.881,339.692,369.881,343.692,359.881,339.692,363.881" style="stroke:#FFFFFF;stroke-width:1;"/><line style="stroke:#FFFFFF;stroke-width:1;" x1="494.9816" x2="601.2575" y1="308.8131" y2="308.8131"/><line style="stroke:#FFFFFF;stroke-width:1;" x1="601.2575" x2="601.2575" y1="308.8131" y2="369.881"/><polygon fill="#FFFFFF" points="597.2575,359.881,601.2575,369.881,605.2575,359.881,601.2575,363.881" style="stroke:#FFFFFF;stroke-width:1;"/><text fill="#FFFFFF" font-family="Verdana" font-size="18" lengthAdjust="spacing" textLength="179.8009" x="21.5542" y="28.0158">Sans Authentification</text><text fill="#FFFFFF" font-family="Verdana" font-size="18" lengthAdjust="spacing" textLength="239.7585" x="349.5955" y="28.0158">Authentification avec Bearer</text><!--SRC=[bL4xJiD04AszfnZIu5JfdGA598W22KiszAlDE1bahytks1B272WzDyZ567yI31MKk-_D-ynSyG4B15tGNgisqTR3gfO_ovIHqKobRPLdxLX5QtSweeFQWYcBYX7YfnGMsfYojhnKKO82M8k6XHK_9bEGCWZ9F-kSTZTpw0mWV4C_Lq5qYzh9W3QlDVcbmjmZXBOKo7DPARGxobJxEnNe1WqCisqlxqwVEOeuUGWhxJtQFRh1ImMLDA1-RXQViHcygo28rb8cFnsxq5xmNWRYLRg-d-GNNkhAkXdwizClo6F7GhCvz8pacgmtZfmijBwG1YLvDPZtj3kov41CHiPc-x1Djx2GDJDs3AciWezn4pj7uZh_KM7J__qp__VvpicwyqroYL21rk0qswXpYVRtyDtPlW00]--></g></svg>