<svg xmlns="http://www.w3.org/2000/svg" xmlns:xlink="http://www.w3.org/1999/xlink" contentStyleType="text/css" data-diagram-type="CLASS" height="1214px" preserveAspectRatio="none" style="width:951px;height:1214px;background:#0B58A8;" version="1.1" viewBox="0 0 951 1214" width="951px" zoomAndPan="magnify"><defs/><g><rect fill="#0B58A8" height="1214" style="stroke:transparent;stroke-width:1;" width="951" x="0" y="0"/><!--cluster reservation--><g id="cluster_reservation"><path d="M13.5,11.602 L95.2517,11.602 A3.75,3.75 0 0 1 97.7517,14.102 L104.7517,36.6699 L941.5,36.6699 A2.5,2.5 0 0 1 944,39.1699 L944,1204.672 A2.5,2.5 0 0 1 941.5,1207.172 L13.5,1207.172 A2.5,2.5 0 0 1 11,1204.672 L11,14.102 A2.5,2.5 0 0 1 13.5,11.602 " fill="#0B58A8" style="stroke:#FFFFFF;stroke-width:1;"/><line style="stroke:#FFFFFF;stroke-width:1;" x1="11" x2="104.7517" y1="36.6699" y2="36.6699"/><text fill="#FFFFFF" font-family="Verdana" font-size="14" font-weight="bold" lengthAdjust="spacing" textLength="80.7517" x="15" y="28.5679">reservation</text></g><!--cluster udp--><g id="cluster_udp"><path d="M37.5,509.352 L65.2959,509.352 A3.75,3.75 0 0 1 67.7959,511.852 L74.7959,534.4199 L581.5,534.4199 A2.5,2.5 0 0 1 584,536.9199 L584,888.522 A2.5,2.5 0 0 1 581.5,891.022 L37.5,891.022 A2.5,2.5 0 0 1 35,888.522 L35,511.852 A2.5,2.5 0 0 1 37.5,509.352 " fill="#0B58A8" style="stroke:#FFFFFF;stroke-width:1;"/><line style="stroke:#FFFFFF;stroke-width:1;" x1="35" x2="74.7959" y1="534.4199" y2="534.4199"/><text fill="#FFFFFF" font-family="Verdana" font-size="14" font-weight="bold" lengthAdjust="spacing" textLength="26.7959" x="39" y="526.3179">udp</text></g><!--cluster client--><g id="cluster_client"><path d="M285.5,57.602 L325.6158,57.602 A3.75,3.75 0 0 1 328.1158,60.102 L335.1158,82.6699 L496.5,82.6699 A2.5,2.5 0 0 1 499,85.1699 L499,473.852 A2.5,2.5 0 0 1 496.5,476.352 L285.5,476.352 A2.5,2.5 0 0 1 283,473.852 L283,60.102 A2.5,2.5 0 0 1 285.5,57.602 " fill="#0B58A8" style="stroke:#FFFFFF;stroke-width:1;"/><line style="stroke:#FFFFFF;stroke-width:1;" x1="283" x2="335.1158" y1="82.6699" y2="82.6699"/><text fill="#FFFFFF" font-family="Verdana" font-size="14" font-weight="bold" lengthAdjust="spacing" textLength="39.1158" x="287" y="74.5679">client</text></g><!--cluster server--><g id="cluster_server"><path d="M610.5,281.942 L655.7538,281.942 A3.75,3.75 0 0 1 658.2538,284.442 L665.2538,307.0099 L917.5,307.0099 A2.5,2.5 0 0 1 920,309.5099 L920,1180.672 A2.5,2.5 0 0 1 917.5,1183.172 L610.5,1183.172 A2.5,2.5 0 0 1 608,1180.672 L608,284.442 A2.5,2.5 0 0 1 610.5,281.942 " fill="#0B58A8" style="stroke:#FFFFFF;stroke-width:1;"/><line style="stroke:#FFFFFF;stroke-width:1;" x1="608" x2="665.2538" y1="307.0099" y2="307.0099"/><text fill="#FFFFFF" font-family="Verdana" font-size="14" font-weight="bold" lengthAdjust="spacing" textLength="44.2538" x="612" y="298.9079">server</text></g><!--cluster usine--><g id="cluster_usine"><path d="M650.5,725.222 L689.2719,725.222 A3.75,3.75 0 0 1 691.7719,727.722 L698.7719,750.2899 L877.5,750.2899 A2.5,2.5 0 0 1 880,752.7899 L880,1156.672 A2.5,2.5 0 0 1 877.5,1159.172 L650.5,1159.172 A2.5,2.5 0 0 1 648,1156.672 L648,727.722 A2.5,2.5 0 0 1 650.5,725.222 " fill="#0B58A8" style="stroke:#FFFFFF;stroke-width:1;"/><line style="stroke:#FFFFFF;stroke-width:1;" x1="648" x2="698.7719" y1="750.2899" y2="750.2899"/><text fill="#FFFFFF" font-family="Verdana" font-size="14" font-weight="bold" lengthAdjust="spacing" textLength="37.7719" x="652" y="742.1879">usine</text></g><!--class Udp--><g id="elem_Udp"><rect codeLine="3" fill="#0B58A8" height="121.3396" id="Udp" rx="2.5" ry="2.5" style="stroke:#FFFFFF;stroke-width:1;" width="183.3334" x="171.33" y="547.352"/><ellipse cx="246.4017" cy="561.8859" fill="#0B58A8" rx="9" ry="9" style="stroke:#FFFFFF;stroke-width:1;"/><path d="M241.5736,567.6359 L244.9174,555.4484 L248.058,555.4484 L251.433,567.6359 L248.9642,567.6359 L248.2299,564.6203 L244.7142,564.6203 L243.9642,567.6359 L241.5736,567.6359 Z M245.9799,559.5891 L245.2299,562.5891 L247.7455,562.5891 L247.0267,559.5891 Q246.8861,559.0109 246.7611,558.4641 Q246.6361,557.9016 246.4955,557.3234 Q246.3861,557.9016 246.2455,558.4641 Q246.1049,559.0109 245.9799,559.5891 Z " fill="#FFFFFF"/><text fill="#FFFFFF" font-family="Verdana" font-size="14" font-style="italic" lengthAdjust="spacing" textLength="25.6899" x="263.9017" y="567.3179">Udp</text><line style="stroke:#FFFFFF;stroke-width:1;" x1="172.33" x2="353.6634" y1="576.4199" y2="576.4199"/><polygon fill="transparent" points="182.33,586.4539,186.33,590.4539,182.33,594.4539,178.33,590.4539" style="stroke:#FFFFFF;stroke-width:1;"/><text fill="#FFFFFF" font-family="Verdana" font-size="14" lengthAdjust="spacing" textLength="159.3334" x="189.33" y="595.3858">socket: DatagramSocket</text><polygon fill="transparent" points="182.33,605.5218,186.33,609.5218,182.33,613.5218,178.33,609.5218" style="stroke:#FFFFFF;stroke-width:1;"/><text fill="#FFFFFF" font-family="Verdana" font-size="14" lengthAdjust="spacing" textLength="146.5515" x="189.33" y="614.4538">data: DatagramPacket</text><polygon fill="transparent" points="182.33,624.5897,186.33,628.5897,182.33,632.5897,178.33,628.5897" style="stroke:#FFFFFF;stroke-width:1;"/><text fill="#FFFFFF" font-family="Verdana" font-size="14" lengthAdjust="spacing" textLength="49.5038" x="189.33" y="633.5217">size: int</text><polygon fill="transparent" points="182.33,643.6576,186.33,647.6576,182.33,651.6576,178.33,647.6576" style="stroke:#FFFFFF;stroke-width:1;"/><text fill="#FFFFFF" font-family="Verdana" font-size="14" lengthAdjust="spacing" textLength="81.3677" x="189.33" y="652.5896">input: String</text><line style="stroke:#FFFFFF;stroke-width:1;" x1="172.33" x2="353.6634" y1="660.6916" y2="660.6916"/></g><!--class Sender--><g id="elem_Sender"><rect codeLine="9" fill="#0B58A8" height="64.1358" id="Sender" rx="2.5" ry="2.5" style="stroke:#FFFFFF;stroke-width:1;" width="172.6654" x="187.67" y="810.892"/><ellipse cx="246.9918" cy="825.4259" fill="#0B58A8" rx="9" ry="9" style="stroke:#FFFFFF;stroke-width:1;"/><path d="M246.4606,832.3478 Q244.7106,832.3478 243.5699,831.6134 Q242.4449,830.8634 241.8824,829.5197 Q241.3356,828.1603 241.3356,826.3634 Q241.3356,824.3322 241.9918,822.8791 Q242.6481,821.4259 243.9293,820.6447 Q245.2106,819.8634 247.0856,819.8634 Q247.9762,819.8634 248.6481,820.0509 Q249.3199,820.2228 250.0074,820.5666 L249.1949,822.5822 Q248.5699,822.2697 248.0231,822.1447 Q247.4918,822.0197 247.0074,822.0197 Q245.8356,822.0197 245.1324,822.5509 Q244.4293,823.0822 244.1324,824.0353 Q243.8356,824.9884 243.8356,826.2541 Q243.8356,828.2697 244.5543,829.2384 Q245.2731,830.1916 246.8668,830.1916 Q247.4606,830.1916 248.0856,830.0353 Q248.7106,829.8791 249.5387,829.5041 L249.5387,831.7228 Q248.8043,832.0353 248.0074,832.1916 Q247.2262,832.3478 246.4606,832.3478 Z " fill="#FFFFFF"/><text fill="#FFFFFF" font-family="Verdana" font-size="14" lengthAdjust="spacing" textLength="46.5218" x="264.4918" y="830.8579">Sender</text><line style="stroke:#FFFFFF;stroke-width:1;" x1="188.67" x2="359.3354" y1="839.9599" y2="839.9599"/><line style="stroke:#FFFFFF;stroke-width:1;" x1="188.67" x2="359.3354" y1="847.9599" y2="847.9599"/><ellipse cx="198.67" cy="862.9939" fill="#0B58A8" rx="3" ry="3" style="stroke:#FFFFFF;stroke-width:1;"/><text fill="#FFFFFF" font-family="Verdana" font-size="14" lengthAdjust="spacing" textLength="148.6654" x="205.67" y="866.9258">run(): DatagramPacket</text></g><!--class Request--><g id="elem_Request"><rect codeLine="12" fill="#0B58A8" height="64.1358" id="Request" rx="2.5" ry="2.5" style="stroke:#FFFFFF;stroke-width:1;" width="102.2737" x="50.86" y="810.892"/><ellipse cx="73.1984" cy="825.4259" fill="#0B58A8" rx="9" ry="9" style="stroke:#FFFFFF;stroke-width:1;"/><path d="M72.6671,832.3478 Q70.9171,832.3478 69.7765,831.6134 Q68.6515,830.8634 68.089,829.5197 Q67.5421,828.1603 67.5421,826.3634 Q67.5421,824.3322 68.1984,822.8791 Q68.8546,821.4259 70.1359,820.6447 Q71.4171,819.8634 73.2921,819.8634 Q74.1827,819.8634 74.8546,820.0509 Q75.5265,820.2228 76.214,820.5666 L75.4015,822.5822 Q74.7765,822.2697 74.2296,822.1447 Q73.6984,822.0197 73.214,822.0197 Q72.0421,822.0197 71.339,822.5509 Q70.6359,823.0822 70.339,824.0353 Q70.0421,824.9884 70.0421,826.2541 Q70.0421,828.2697 70.7609,829.2384 Q71.4796,830.1916 73.0734,830.1916 Q73.6671,830.1916 74.2921,830.0353 Q74.9171,829.8791 75.7452,829.5041 L75.7452,831.7228 Q75.0109,832.0353 74.214,832.1916 Q73.4327,832.3478 72.6671,832.3478 Z " fill="#FFFFFF"/><text fill="#FFFFFF" font-family="Verdana" font-size="14" lengthAdjust="spacing" textLength="53.5218" x="87.2735" y="830.8579">Request</text><line style="stroke:#FFFFFF;stroke-width:1;" x1="51.86" x2="152.1337" y1="839.9599" y2="839.9599"/><line style="stroke:#FFFFFF;stroke-width:1;" x1="51.86" x2="152.1337" y1="847.9599" y2="847.9599"/><ellipse cx="61.86" cy="862.9939" fill="#0B58A8" rx="3" ry="3" style="stroke:#FFFFFF;stroke-width:1;"/><text fill="#FFFFFF" font-family="Verdana" font-size="14" lengthAdjust="spacing" textLength="78.2737" x="68.86" y="866.9258">run(): String</text></g><!--class Receiver--><g id="elem_Receiver"><rect codeLine="15" fill="#0B58A8" height="64.1358" id="Receiver" rx="2.5" ry="2.5" style="stroke:#FFFFFF;stroke-width:1;" width="172.6654" x="395.67" y="810.892"/><ellipse cx="450.4418" cy="825.4259" fill="#0B58A8" rx="9" ry="9" style="stroke:#FFFFFF;stroke-width:1;"/><path d="M449.9106,832.3478 Q448.1606,832.3478 447.02,831.6134 Q445.895,830.8634 445.3325,829.5197 Q444.7856,828.1603 444.7856,826.3634 Q444.7856,824.3322 445.4418,822.8791 Q446.0981,821.4259 447.3793,820.6447 Q448.6606,819.8634 450.5356,819.8634 Q451.4262,819.8634 452.0981,820.0509 Q452.77,820.2228 453.4575,820.5666 L452.645,822.5822 Q452.02,822.2697 451.4731,822.1447 Q450.9418,822.0197 450.4575,822.0197 Q449.2856,822.0197 448.5825,822.5509 Q447.8793,823.0822 447.5825,824.0353 Q447.2856,824.9884 447.2856,826.2541 Q447.2856,828.2697 448.0043,829.2384 Q448.7231,830.1916 450.3168,830.1916 Q450.9106,830.1916 451.5356,830.0353 Q452.1606,829.8791 452.9887,829.5041 L452.9887,831.7228 Q452.2543,832.0353 451.4575,832.1916 Q450.6762,832.3478 449.9106,832.3478 Z " fill="#FFFFFF"/><text fill="#FFFFFF" font-family="Verdana" font-size="14" lengthAdjust="spacing" textLength="55.6218" x="467.9418" y="830.8579">Receiver</text><line style="stroke:#FFFFFF;stroke-width:1;" x1="396.67" x2="567.3354" y1="839.9599" y2="839.9599"/><line style="stroke:#FFFFFF;stroke-width:1;" x1="396.67" x2="567.3354" y1="847.9599" y2="847.9599"/><ellipse cx="406.67" cy="862.9939" fill="#0B58A8" rx="3" ry="3" style="stroke:#FFFFFF;stroke-width:1;"/><text fill="#FFFFFF" font-family="Verdana" font-size="14" lengthAdjust="spacing" textLength="148.6654" x="413.67" y="866.9258">run(): DatagramPacket</text></g><!--class Client--><g id="elem_Client"><rect codeLine="20" fill="#0B58A8" height="159.4754" id="Client" rx="2.5" ry="2.5" style="stroke:#FFFFFF;stroke-width:1;" width="183.3334" x="299.33" y="300.872"/><ellipse cx="368.4098" cy="315.4059" fill="#0B58A8" rx="9" ry="9" style="stroke:#FFFFFF;stroke-width:1;"/><path d="M367.8785,322.3278 Q366.1285,322.3278 364.9879,321.5934 Q363.8629,320.8434 363.3004,319.4997 Q362.7535,318.1403 362.7535,316.3434 Q362.7535,314.3122 363.4098,312.8591 Q364.066,311.4059 365.3473,310.6247 Q366.6285,309.8434 368.5035,309.8434 Q369.3942,309.8434 370.066,310.0309 Q370.7379,310.2028 371.4254,310.5466 L370.6129,312.5622 Q369.9879,312.2497 369.441,312.1247 Q368.9098,311.9997 368.4254,311.9997 Q367.2535,311.9997 366.5504,312.5309 Q365.8473,313.0622 365.5504,314.0153 Q365.2535,314.9684 365.2535,316.2341 Q365.2535,318.2497 365.9723,319.2184 Q366.691,320.1716 368.2848,320.1716 Q368.8785,320.1716 369.5035,320.0153 Q370.1285,319.8591 370.9567,319.4841 L370.9567,321.7028 Q370.2223,322.0153 369.4254,322.1716 Q368.6442,322.3278 367.8785,322.3278 Z " fill="#FFFFFF"/><text fill="#FFFFFF" font-family="Verdana" font-size="14" lengthAdjust="spacing" textLength="37.6738" x="385.9098" y="320.8379">Client</text><line style="stroke:#FFFFFF;stroke-width:1;" x1="300.33" x2="481.6634" y1="329.9399" y2="329.9399"/><rect fill="transparent" height="6" style="stroke:#FFFFFF;stroke-width:1;" width="6" x="307.33" y="341.9739"/><text fill="#FFFFFF" font-family="Verdana" font-size="14" lengthAdjust="spacing" textLength="159.3334" x="317.33" y="348.9058">socket: DatagramSocket</text><rect fill="transparent" height="6" style="stroke:#FFFFFF;stroke-width:1;" width="6" x="307.33" y="361.0418"/><text fill="#FFFFFF" font-family="Verdana" font-size="14" lengthAdjust="spacing" textLength="49.5038" x="317.33" y="367.9738">size: int</text><rect fill="transparent" height="6" style="stroke:#FFFFFF;stroke-width:1;" width="6" x="307.33" y="380.1097"/><text fill="#FFFFFF" font-family="Verdana" font-size="14" lengthAdjust="spacing" textLength="81.3677" x="317.33" y="387.0417">input: String</text><rect fill="transparent" height="6" style="stroke:#FFFFFF;stroke-width:1;" width="6" x="307.33" y="399.1776"/><text fill="#FFFFFF" font-family="Verdana" font-size="14" lengthAdjust="spacing" textLength="59.0098" x="317.33" y="406.1096">ip: String</text><rect fill="transparent" height="6" style="stroke:#FFFFFF;stroke-width:1;" width="6" x="307.33" y="418.2455"/><text fill="#FFFFFF" font-family="Verdana" font-size="14" lengthAdjust="spacing" textLength="52.6258" x="317.33" y="425.1775">port: int</text><line style="stroke:#FFFFFF;stroke-width:1;" x1="300.33" x2="481.6634" y1="433.2795" y2="433.2795"/><ellipse cx="310.33" cy="448.3134" fill="#0B58A8" rx="3" ry="3" style="stroke:#FFFFFF;stroke-width:1;"/><text fill="#FFFFFF" font-family="Verdana" font-size="14" lengthAdjust="spacing" textLength="31.4859" x="317.33" y="452.2454">run()</text></g><!--class Launcher--><g id="elem_Launcher"><rect codeLine="30" fill="#0B58A8" height="121.3396" id="Launcher" rx="2.5" ry="2.5" style="stroke:#FFFFFF;stroke-width:1;" width="150.9655" x="332.52" y="95.602"/><ellipse cx="373.4809" cy="110.1359" fill="#0B58A8" rx="9" ry="9" style="stroke:#FFFFFF;stroke-width:1;"/><path d="M372.9496,117.0578 Q371.1996,117.0578 370.059,116.3234 Q368.934,115.5734 368.3715,114.2297 Q367.8246,112.8703 367.8246,111.0734 Q367.8246,109.0422 368.4809,107.5891 Q369.1371,106.1359 370.4184,105.3547 Q371.6996,104.5734 373.5746,104.5734 Q374.4653,104.5734 375.1371,104.7609 Q375.809,104.9328 376.4965,105.2766 L375.684,107.2922 Q375.059,106.9797 374.5121,106.8547 Q373.9809,106.7297 373.4965,106.7297 Q372.3246,106.7297 371.6215,107.2609 Q370.9184,107.7922 370.6215,108.7453 Q370.3246,109.6984 370.3246,110.9641 Q370.3246,112.9797 371.0434,113.9484 Q371.7621,114.9016 373.3559,114.9016 Q373.9496,114.9016 374.5746,114.7453 Q375.1996,114.5891 376.0278,114.2141 L376.0278,116.4328 Q375.2934,116.7453 374.4965,116.9016 Q373.7153,117.0578 372.9496,117.0578 Z " fill="#FFFFFF"/><text fill="#FFFFFF" font-family="Verdana" font-size="14" lengthAdjust="spacing" textLength="61.5437" x="390.9809" y="115.5679">Launcher</text><line style="stroke:#FFFFFF;stroke-width:1;" x1="333.52" x2="482.4855" y1="124.6699" y2="124.6699"/><rect fill="transparent" height="6" style="stroke:#FFFFFF;stroke-width:1;" width="6" x="340.52" y="136.7039"/><text fill="#FFFFFF" font-family="Verdana" font-size="14" lengthAdjust="spacing" text-decoration="underline" textLength="83.2157" x="350.52" y="143.6358">PORT = 8532</text><rect fill="transparent" height="6" style="stroke:#FFFFFF;stroke-width:1;" width="6" x="340.52" y="155.7718"/><text fill="#FFFFFF" font-family="Verdana" font-size="14" lengthAdjust="spacing" text-decoration="underline" textLength="99.2316" x="350.52" y="162.7038">IP = "127.0.0.1"</text><rect fill="transparent" height="6" style="stroke:#FFFFFF;stroke-width:1;" width="6" x="340.52" y="174.8397"/><text fill="#FFFFFF" font-family="Verdana" font-size="14" lengthAdjust="spacing" text-decoration="underline" textLength="75.5437" x="350.52" y="181.7717">SIZE = 1024</text><line style="stroke:#FFFFFF;stroke-width:1;" x1="333.52" x2="482.4855" y1="189.8736" y2="189.8736"/><ellipse cx="343.52" cy="204.9076" fill="#0B58A8" rx="3" ry="3" style="stroke:#FFFFFF;stroke-width:1;"/><text fill="#FFFFFF" font-family="Verdana" font-size="14" lengthAdjust="spacing" text-decoration="underline" textLength="126.9655" x="350.52" y="208.8396">main(argv[]: String)</text></g><!--class Server--><g id="elem_Server"><rect codeLine="59" fill="#0B58A8" height="140.4075" id="Server" rx="2.5" ry="2.5" style="stroke:#FFFFFF;stroke-width:1;" width="279.583" x="624.21" y="537.812"/><ellipse cx="666.1701" cy="552.3459" fill="#0B58A8" rx="9" ry="9" style="stroke:#FFFFFF;stroke-width:1;"/><path d="M665.6389,559.2678 Q663.8889,559.2678 662.7482,558.5334 Q661.6232,557.7834 661.0607,556.4397 Q660.5139,555.0803 660.5139,553.2834 Q660.5139,551.2522 661.1701,549.7991 Q661.8264,548.3459 663.1076,547.5647 Q664.3889,546.7834 666.2639,546.7834 Q667.1545,546.7834 667.8264,546.9709 Q668.4982,547.1428 669.1857,547.4866 L668.3732,549.5022 Q667.7482,549.1897 667.2014,549.0647 Q666.6701,548.9397 666.1857,548.9397 Q665.0139,548.9397 664.3107,549.4709 Q663.6076,550.0022 663.3107,550.9553 Q663.0139,551.9084 663.0139,553.1741 Q663.0139,555.1897 663.7326,556.1584 Q664.4514,557.1116 666.0451,557.1116 Q666.6389,557.1116 667.2639,556.9553 Q667.8889,556.7991 668.717,556.4241 L668.717,558.6428 Q667.9826,558.9553 667.1857,559.1116 Q666.4045,559.2678 665.6389,559.2678 Z " fill="#FFFFFF"/><text fill="#FFFFFF" font-family="Verdana" font-size="14" lengthAdjust="spacing" textLength="42.1538" x="683.6701" y="557.7779">Server</text><rect fill="#0B58A8" height="18.3441" style="stroke:#FFFFFF;stroke-width:1;stroke-dasharray:2.0,2.0;" width="144.009" x="762.7841" y="534.812"/><text fill="#FFFFFF" font-family="Verdana" font-size="12" font-style="italic" lengthAdjust="spacing" textLength="142.009" x="763.7841" y="548.6401">? extends java.lang.Thread</text><line style="stroke:#FFFFFF;stroke-width:1;" x1="625.21" x2="902.793" y1="566.8799" y2="566.8799"/><rect fill="transparent" height="6" style="stroke:#FFFFFF;stroke-width:1;" width="6" x="632.21" y="578.9139"/><text fill="#FFFFFF" font-family="Verdana" font-size="14" lengthAdjust="spacing" textLength="159.3334" x="642.21" y="585.8458">socket: DatagramSocket</text><rect fill="transparent" height="6" style="stroke:#FFFFFF;stroke-width:1;" width="6" x="632.21" y="597.9818"/><text fill="#FFFFFF" font-family="Verdana" font-size="14" lengthAdjust="spacing" textLength="146.5515" x="642.21" y="604.9138">data: DatagramPacket</text><rect fill="transparent" height="6" style="stroke:#FFFFFF;stroke-width:1;" width="6" x="632.21" y="617.0497"/><text fill="#FFFFFF" font-family="Verdana" font-size="14" lengthAdjust="spacing" text-decoration="underline" textLength="182.7693" x="642.21" y="623.9817">voitures: ArrayList&lt;Voiture&gt;</text><line style="stroke:#FFFFFF;stroke-width:1;" x1="625.21" x2="902.793" y1="632.0836" y2="632.0836"/><ellipse cx="635.21" cy="647.1176" fill="#0B58A8" rx="3" ry="3" style="stroke:#FFFFFF;stroke-width:1;"/><text fill="#FFFFFF" font-family="Verdana" font-size="14" lengthAdjust="spacing" textLength="112.3356" x="642.21" y="651.0496">{@Override}run()</text><rect fill="#0B58A8" height="6" style="stroke:#FFFFFF;stroke-width:1;" width="6" x="632.21" y="663.1855"/><text fill="#FFFFFF" font-family="Verdana" font-size="14" lengthAdjust="spacing" textLength="255.583" x="642.21" y="670.1175">requestedData(received: String): String</text></g><!--class Launcher--><g id="elem_Launcher"><rect codeLine="70" fill="#0B58A8" height="121.3396" id="Launcher" rx="2.5" ry="2.5" style="stroke:#FFFFFF;stroke-width:1;" width="150.9655" x="655.52" y="319.942"/><ellipse cx="696.4809" cy="334.4759" fill="#0B58A8" rx="9" ry="9" style="stroke:#FFFFFF;stroke-width:1;"/><path d="M695.9496,341.3978 Q694.1996,341.3978 693.059,340.6634 Q691.934,339.9134 691.3715,338.5697 Q690.8246,337.2103 690.8246,335.4134 Q690.8246,333.3822 691.4809,331.9291 Q692.1371,330.4759 693.4184,329.6947 Q694.6996,328.9134 696.5746,328.9134 Q697.4653,328.9134 698.1371,329.1009 Q698.809,329.2728 699.4965,329.6166 L698.684,331.6322 Q698.059,331.3197 697.5121,331.1947 Q696.9809,331.0697 696.4965,331.0697 Q695.3246,331.0697 694.6215,331.6009 Q693.9184,332.1322 693.6215,333.0853 Q693.3246,334.0384 693.3246,335.3041 Q693.3246,337.3197 694.0434,338.2884 Q694.7621,339.2416 696.3559,339.2416 Q696.9496,339.2416 697.5746,339.0853 Q698.1996,338.9291 699.0278,338.5541 L699.0278,340.7728 Q698.2934,341.0853 697.4965,341.2416 Q696.7153,341.3978 695.9496,341.3978 Z " fill="#FFFFFF"/><text fill="#FFFFFF" font-family="Verdana" font-size="14" lengthAdjust="spacing" textLength="61.5437" x="713.9809" y="339.9079">Launcher</text><line style="stroke:#FFFFFF;stroke-width:1;" x1="656.52" x2="805.4855" y1="349.0099" y2="349.0099"/><rect fill="transparent" height="6" style="stroke:#FFFFFF;stroke-width:1;" width="6" x="663.52" y="361.0439"/><text fill="#FFFFFF" font-family="Verdana" font-size="14" lengthAdjust="spacing" text-decoration="underline" textLength="83.2157" x="673.52" y="367.9758">PORT = 8532</text><rect fill="transparent" height="6" style="stroke:#FFFFFF;stroke-width:1;" width="6" x="663.52" y="380.1118"/><text fill="#FFFFFF" font-family="Verdana" font-size="14" lengthAdjust="spacing" text-decoration="underline" textLength="99.2316" x="673.52" y="387.0438">IP = "127.0.0.1"</text><rect fill="transparent" height="6" style="stroke:#FFFFFF;stroke-width:1;" width="6" x="663.52" y="399.1797"/><text fill="#FFFFFF" font-family="Verdana" font-size="14" lengthAdjust="spacing" text-decoration="underline" textLength="91.2516" x="673.52" y="406.1117">TAILLE = 1024</text><line style="stroke:#FFFFFF;stroke-width:1;" x1="656.52" x2="805.4855" y1="414.2136" y2="414.2136"/><ellipse cx="666.52" cy="429.2476" fill="#0B58A8" rx="3" ry="3" style="stroke:#FFFFFF;stroke-width:1;"/><text fill="#FFFFFF" font-family="Verdana" font-size="14" lengthAdjust="spacing" text-decoration="underline" textLength="126.9655" x="673.52" y="433.1796">main(argv[]: String)</text></g><!--class Ouvrier--><g id="elem_Ouvrier"><rect codeLine="40" fill="#0B58A8" height="159.4754" id="Ouvrier" rx="2.5" ry="2.5" style="stroke:#FFFFFF;stroke-width:1;" width="137.3996" x="679.3" y="763.222"/><ellipse cx="719.3649" cy="777.7559" fill="#0B58A8" rx="9" ry="9" style="stroke:#FFFFFF;stroke-width:1;"/><path d="M718.8336,784.6778 Q717.0836,784.6778 715.943,783.9434 Q714.818,783.1934 714.2555,781.8497 Q713.7086,780.4903 713.7086,778.6934 Q713.7086,776.6622 714.3649,775.2091 Q715.0211,773.7559 716.3024,772.9747 Q717.5836,772.1934 719.4586,772.1934 Q720.3493,772.1934 721.0211,772.3809 Q721.693,772.5528 722.3805,772.8966 L721.568,774.9122 Q720.943,774.5997 720.3961,774.4747 Q719.8649,774.3497 719.3805,774.3497 Q718.2086,774.3497 717.5055,774.8809 Q716.8024,775.4122 716.5055,776.3653 Q716.2086,777.3184 716.2086,778.5841 Q716.2086,780.5997 716.9274,781.5684 Q717.6461,782.5216 719.2399,782.5216 Q719.8336,782.5216 720.4586,782.3653 Q721.0836,782.2091 721.9118,781.8341 L721.9118,784.0528 Q721.1774,784.3653 720.3805,784.5216 Q719.5993,784.6778 718.8336,784.6778 Z " fill="#FFFFFF"/><text fill="#FFFFFF" font-family="Verdana" font-size="14" lengthAdjust="spacing" textLength="49.7698" x="736.8649" y="783.1879">Ouvrier</text><line style="stroke:#FFFFFF;stroke-width:1;" x1="680.3" x2="815.6996" y1="792.2899" y2="792.2899"/><rect fill="transparent" height="6" style="stroke:#FFFFFF;stroke-width:1;" width="6" x="687.3" y="804.3239"/><text fill="#FFFFFF" font-family="Verdana" font-size="14" lengthAdjust="spacing" text-decoration="underline" textLength="101.8356" x="697.3" y="811.2558">voiture: Voiture</text><rect fill="transparent" height="6" style="stroke:#FFFFFF;stroke-width:1;" width="6" x="687.3" y="823.3918"/><text fill="#FFFFFF" font-family="Verdana" font-size="14" lengthAdjust="spacing" textLength="60.8858" x="697.3" y="830.3238">index: int</text><line style="stroke:#FFFFFF;stroke-width:1;" x1="680.3" x2="815.6996" y1="838.4257" y2="838.4257"/><ellipse cx="690.3" cy="853.4597" fill="#0B58A8" rx="3" ry="3" style="stroke:#FFFFFF;stroke-width:1;"/><text fill="#FFFFFF" font-family="Verdana" font-size="14" lengthAdjust="spacing" textLength="113.3996" x="697.3" y="857.3917">preparer(): String</text><ellipse cx="690.3" cy="872.5276" fill="#0B58A8" rx="3" ry="3" style="stroke:#FFFFFF;stroke-width:1;"/><text fill="#FFFFFF" font-family="Verdana" font-size="14" lengthAdjust="spacing" textLength="90.5937" x="697.3" y="876.4596">sortir(): String</text><ellipse cx="690.3" cy="891.5955" fill="#0B58A8" rx="3" ry="3" style="stroke:#FFFFFF;stroke-width:1;"/><text fill="#FFFFFF" font-family="Verdana" font-size="14" lengthAdjust="spacing" textLength="102.0316" x="697.3" y="895.5275">rentrer(): String</text><ellipse cx="690.3" cy="910.6634" fill="#0B58A8" rx="3" ry="3" style="stroke:#FFFFFF;stroke-width:1;"/><text fill="#FFFFFF" font-family="Verdana" font-size="14" lengthAdjust="spacing" textLength="101.1356" x="697.3" y="914.5954">vendre(): String</text></g><!--class Voiture--><g id="elem_Voiture"><rect codeLine="48" fill="#0B58A8" height="159.4754" id="Voiture" rx="2.5" ry="2.5" style="stroke:#FFFFFF;stroke-width:1;" width="199.4194" x="664.29" y="983.692"/><ellipse cx="736.3168" cy="998.2259" fill="#0B58A8" rx="9" ry="9" style="stroke:#FFFFFF;stroke-width:1;"/><path d="M735.7855,1005.1478 Q734.0355,1005.1478 732.8949,1004.4134 Q731.7699,1003.6634 731.2074,1002.3197 Q730.6605,1000.9603 730.6605,999.1634 Q730.6605,997.1322 731.3168,995.6791 Q731.973,994.2259 733.2543,993.4447 Q734.5355,992.6634 736.4105,992.6634 Q737.3011,992.6634 737.973,992.8509 Q738.6449,993.0228 739.3324,993.3666 L738.5199,995.3822 Q737.8949,995.0697 737.348,994.9447 Q736.8168,994.8197 736.3324,994.8197 Q735.1605,994.8197 734.4574,995.3509 Q733.7543,995.8822 733.4574,996.8353 Q733.1605,997.7884 733.1605,999.0541 Q733.1605,1001.0697 733.8793,1002.0384 Q734.598,1002.9916 736.1918,1002.9916 Q736.7855,1002.9916 737.4105,1002.8353 Q738.0355,1002.6791 738.8636,1002.3041 L738.8636,1004.5228 Q738.1293,1004.8353 737.3324,1004.9916 Q736.5511,1005.1478 735.7855,1005.1478 Z " fill="#FFFFFF"/><text fill="#FFFFFF" font-family="Verdana" font-size="14" lengthAdjust="spacing" textLength="47.8658" x="753.8168" y="1003.6579">Voiture</text><line style="stroke:#FFFFFF;stroke-width:1;" x1="665.29" x2="862.7094" y1="1012.7599" y2="1012.7599"/><rect fill="transparent" height="6" style="stroke:#FFFFFF;stroke-width:1;" width="6" x="672.29" y="1024.7939"/><text fill="#FFFFFF" font-family="Verdana" font-size="14" lengthAdjust="spacing" textLength="60.8858" x="682.29" y="1031.7258">index: int</text><rect fill="transparent" height="6" style="stroke:#FFFFFF;stroke-width:1;" width="6" x="672.29" y="1043.8618"/><text fill="#FFFFFF" font-family="Verdana" font-size="14" lengthAdjust="spacing" textLength="129.3455" x="682.29" y="1050.7938">disponible: boolean</text><rect fill="transparent" height="6" style="stroke:#FFFFFF;stroke-width:1;" width="6" x="672.29" y="1062.9297"/><text fill="#FFFFFF" font-family="Verdana" font-size="14" lengthAdjust="spacing" textLength="113.3856" x="682.29" y="1069.8617">prepare: boolean</text><rect fill="transparent" height="6" style="stroke:#FFFFFF;stroke-width:1;" width="6" x="672.29" y="1081.9976"/><text fill="#FFFFFF" font-family="Verdana" font-size="14" lengthAdjust="spacing" textLength="90.5797" x="682.29" y="1088.9296">sorti: boolean</text><rect fill="transparent" height="6" style="stroke:#FFFFFF;stroke-width:1;" width="6" x="672.29" y="1101.0655"/><text fill="#FFFFFF" font-family="Verdana" font-size="14" lengthAdjust="spacing" textLength="101.8776" x="682.29" y="1107.9975">vendu: boolean</text><rect fill="transparent" height="6" style="stroke:#FFFFFF;stroke-width:1;" width="6" x="672.29" y="1120.1334"/><text fill="#FFFFFF" font-family="Verdana" font-size="14" lengthAdjust="spacing" textLength="175.4194" x="682.29" y="1127.0654">tempsPreparation: Integer</text><line style="stroke:#FFFFFF;stroke-width:1;" x1="665.29" x2="862.7094" y1="1135.1674" y2="1135.1674"/></g><!--reverse link Udp to Sender--><g id="link_Udp_Sender"><path d="M266.682,686.9818 C268.822,732.1418 270.8,774.272 272.51,810.432 " fill="transparent" id="Udp-backto-Sender" style="stroke:#FFFFFF;stroke-width:1;"/><polygon fill="transparent" points="265.83,669.002,260.6887,687.2658,272.6753,686.6978,265.83,669.002" style="stroke:#FFFFFF;stroke-width:1;"/></g><!--reverse link Udp to Request--><g id="link_Udp_Request"><path d="M195.8695,682.706 C182.8995,697.936 181.26,700.922 170,717.222 C149.11,747.462 129.5,784.752 116.76,810.652 " fill="transparent" id="Udp-backto-Request" style="stroke:#FFFFFF;stroke-width:1;"/><polygon fill="transparent" points="207.54,669.002,191.3015,678.8159,200.4375,686.5962,207.54,669.002" style="stroke:#FFFFFF;stroke-width:1;"/></g><!--reverse link Udp to Receiver--><g id="link_Udp_Receiver"><path d="M342.4807,681.2771 C358.7507,696.6571 362.78,701.052 378,717.222 C406.71,747.702 437.1,784.792 457.57,810.572 " fill="transparent" id="Udp-backto-Receiver" style="stroke:#FFFFFF;stroke-width:1;"/><polygon fill="transparent" points="329.4,668.912,338.359,685.6373,346.6024,676.9169,329.4,668.912" style="stroke:#FFFFFF;stroke-width:1;"/></g><!--reverse link Client to Sender--><g id="link_Client_Sender"><path codeLine="28" d="M396.212,472.5587 C397.642,533.3987 394.19,606.902 372,678.222 C356.4,728.362 322.55,779.182 299.03,810.612 " fill="transparent" id="Client-backto-Sender" style="stroke:#FFFFFF;stroke-width:1;"/><polygon fill="#FFFFFF" points="395.93,460.562,392.0721,466.6543,396.212,472.5587,400.0699,466.4663,395.93,460.562" style="stroke:#FFFFFF;stroke-width:1;"/></g><!--reverse link Client to Receiver--><g id="link_Client_Receiver"><path codeLine="29" d="M408.9673,472.5141 C429.3473,575.6041 461.7,739.282 475.78,810.512 " fill="transparent" id="Client-backto-Receiver" style="stroke:#FFFFFF;stroke-width:1;"/><polygon fill="#FFFFFF" points="406.64,460.742,403.8796,467.4038,408.9673,472.5141,411.7277,465.8523,406.64,460.742" style="stroke:#FFFFFF;stroke-width:1;"/></g><!--reverse link Launcher to Request--><g id="link_Launcher_Request"><path codeLine="36" d="M475.0231,226.8597 C488.2231,243.8097 492.98,253.712 500,273.942 C530.64,362.292 526.9,394.782 500,484.352 C470.3,583.232 457.85,620.862 372,678.222 C333.99,703.622 206.91,690.242 170,717.222 C138.84,740.002 120.36,781.542 110.71,810.402 " fill="transparent" id="Launcher-backto-Request" style="stroke:#FFFFFF;stroke-width:1;"/><polygon fill="#FFFFFF" points="467.65,217.392,468.1806,224.5835,475.0231,226.8597,474.4924,219.6681,467.65,217.392" style="stroke:#FFFFFF;stroke-width:1;"/></g><!--reverse link Launcher to Client--><g id="link_Launcher_Client"><path codeLine="37" d="M402.4836,229.4069 C400.5236,254.9969 399.13,273.232 397.04,300.582 " fill="transparent" id="Launcher-backto-Client" style="stroke:#FFFFFF;stroke-width:1;"/><polygon fill="transparent" points="403.4,217.442,398.9535,223.119,402.4836,229.4069,406.9301,223.7299,403.4,217.442" style="stroke:#FFFFFF;stroke-width:1;"/></g><!--link Ouvrier to Voiture--><g id="link_Ouvrier_Voiture"><path codeLine="56" d="M753.8,923.142 C755.24,942.802 756.78,963.872 758.22,983.522 " fill="transparent" id="Ouvrier-Voiture" style="stroke:#FFFFFF;stroke-width:1;"/><text fill="#FFFFFF" font-family="Verdana" font-size="13" lengthAdjust="spacing" textLength="21.84" x="735.6588" y="971.7511">0..1</text></g><!--reverse link Server to Ouvrier--><g id="link_Server_Ouvrier"><path codeLine="66" d="M758.399,690.5639 C756.579,717.1039 755.31,735.582 753.43,762.942 " fill="transparent" id="Server-backto-Ouvrier" style="stroke:#FFFFFF;stroke-width:1;"/><polygon fill="transparent" points="759.22,678.592,754.8189,684.3043,758.399,690.5639,762.8001,684.8516,759.22,678.592" style="stroke:#FFFFFF;stroke-width:1;"/><text fill="#FFFFFF" font-family="Verdana" font-size="13" lengthAdjust="spacing" textLength="29.276" x="723.5787" y="751.4358">0..15</text></g><!--reverse link Server to Voiture--><g id="link_Server_Voiture"><path codeLine="67" d="M822.9898,689.0702 C829.9598,701.3602 830.1,704.022 834,717.222 C859.86,804.802 855.01,833.822 834,922.692 C829.16,943.162 820.84,964.042 811.58,983.212 " fill="transparent" id="Server-backto-Voiture" style="stroke:#FFFFFF;stroke-width:1;"/><polygon fill="transparent" points="817.07,678.632,816.5505,685.8243,822.9898,689.0702,823.5093,681.8778,817.07,678.632" style="stroke:#FFFFFF;stroke-width:1;"/><text fill="#FFFFFF" font-family="Verdana" font-size="13" lengthAdjust="spacing" textLength="14.872" x="801.3612" y="971.9629">15</text></g><!--reverse link Server to Sender--><g id="link_Server_Sender"><path codeLine="68" d="M612.684,672.9045 C568.684,689.0445 530.66,700.342 484,709.222 C460.79,713.632 399,706.402 378,717.222 C338.14,737.742 307.68,780.892 290.31,810.642 " fill="transparent" id="Server-backto-Sender" style="stroke:#FFFFFF;stroke-width:1;"/><polygon fill="#FFFFFF" points="623.95,668.772,616.9395,667.0829,612.684,672.9045,619.6945,674.5936,623.95,668.772" style="stroke:#FFFFFF;stroke-width:1;"/></g><!--reverse link Server to Receiver--><g id="link_Server_Receiver"><path codeLine="69" d="M670.5184,686.2345 C617.4484,730.0745 560.75,776.912 520.02,810.552 " fill="transparent" id="Server-backto-Receiver" style="stroke:#FFFFFF;stroke-width:1;"/><polygon fill="#FFFFFF" points="679.77,678.592,672.5967,679.3294,670.5184,686.2345,677.6917,685.4971,679.77,678.592" style="stroke:#FFFFFF;stroke-width:1;"/></g><!--reverse link Launcher to Server--><g id="link_Launcher_Server"><path codeLine="76" d="M741.5405,453.5951 C745.8605,483.0651 749.34,506.852 753.82,537.492 " fill="transparent" id="Launcher-backto-Server" style="stroke:#FFFFFF;stroke-width:1;"/><polygon fill="transparent" points="739.8,441.722,736.7125,448.2387,741.5405,453.5951,744.6279,447.0784,739.8,441.722" style="stroke:#FFFFFF;stroke-width:1;"/></g><!--link Launcher to Launcher--><g id="link_Launcher_Launcher"><path codeLine="78" d="M483.73,209.402 C535.38,244.952 603.52,291.852 655.19,327.422 " fill="transparent" id="Launcher-Launcher" style="stroke:#FFFFFF;stroke-width:1;stroke-dasharray:7.0,7.0;"/><text fill="#FFFFFF" font-family="Verdana" font-size="13" lengthAdjust="spacing" textLength="52.299" x="560.82" y="261.839">Network</text></g><!--SRC=[jLHDZzCm43sdlyA4Is6Lg2siGD6oi08EbIfQjOK3YCCq6QMcgHF6JbXOzR_Zn8cRz0k1X7BnVDZpvhsPF59ht2A3BO-Xbq6uWHWTGebKWEAfyFCeOmyz1rPI4OIAVJIsyrYcuGPLmDw1WfXWkwZiCX9fpzu_WyOl-IyC61ULmKMMwziBHLp4FMVNSy84f6GB514Imtkb3zAMkw9Sz9ySlshlpV5xZbATlNXKQ8uXykAlIkqQXbYReJ3XA5HvrJpyrjgETvOahqs6Tq26TcHjAqj9DRa6NTL7NUYfvx43nNp3uiMKfly6zWHo4Qur7nNm1wbqQhYRJUTBzegzl7usQhl7C-rqXwCN_a1_GxSTMum_lzVHuM3qlCJRkBV0HHyeBhvyRNepRTZ2fr5MihQoKfrbsZgZHtb2ydF91UvLcUO5ySFkYfIhdBGEdyp1Q17XlMKx8yo0aDeZv5n9BGW_y956T9HOQ1q8JyvVNT80wXJr8YwpLF1Lef6jqZH14DKO62mTNuMauobBvXsFmcqcPzNbYg60ZON2k9HUesc8qRIw0rzhQScuHE-Us8MnRrxRHVe61VW9YDXVhWaXkltJBfpvOHpA90DsHmG_9rogcnhaRJLYRwOQ0l48T_LsE1wPmS6eVBPFPjWZEtaTGUeMqeQ2QxSPbswi3DX9gGENjkz2od_RlkNTU3Bvj_qhUpIGjVJ7VpZV9lh-gOMpuO2v7r3zI6dZ_WO0]--></g></svg>